<svg width="68" height="68" viewBox="0 0 68 68" fill="none" xmlns="http://www.w3.org/2000/svg">
<path d="M16.0512 26.6145C17.1186 26.2953 18.1587 25.8963 19.2117 25.5337L23.804 23.983L45.8792 16.4753C46.6456 16.2152 47.4161 15.8942 48.199 15.6922C48.4404 15.6299 48.7299 15.5545 48.9749 15.6307C49.6144 15.8295 49.7912 16.7738 50.0863 17.301C50.3704 17.8086 50.7649 18.266 51.2709 18.5623C51.9548 18.9628 52.871 19.1079 53.6399 18.8994C53.9723 18.8092 54.29 18.6646 54.6234 18.5786C54.9111 18.5043 55.2372 18.4741 55.4999 18.6396C55.6848 18.756 55.8081 18.9599 55.901 19.1529C56.138 19.6453 56.2501 20.2104 56.4064 20.7338C56.5558 21.2339 56.73 21.7248 56.8619 22.2304C56.9091 22.4481 56.9445 22.6432 56.9431 22.8671C56.4869 23.5957 54.8932 23.2533 54.1046 25.2345C53.9776 25.5538 53.9404 25.8544 53.8583 26.1808C53.8349 27.2778 54.0826 28.2305 54.8691 29.042C55.5243 29.7179 56.4824 30.1311 57.4236 30.1354C58.024 30.1382 58.5155 29.8958 59.0816 29.7428C59.2186 29.8228 59.3632 29.8981 59.4469 30.039C59.7242 30.5061 59.8485 31.2723 60.0088 31.8029C60.1537 32.2829 60.3357 32.7497 60.4644 33.2349C60.5455 33.5406 60.724 34.1755 60.5726 34.4722C60.1445 35.3112 57.5755 34.7637 56.9298 37.5542L56.9244 37.6211C56.867 38.3747 57.2373 39.4414 56.6025 40.0105C56.4059 40.1868 56.1596 40.2893 55.9162 40.383C54.9027 40.7733 53.8545 41.0932 52.8277 41.4502L45.64 43.9257L33.1218 48.2165C29.1943 49.5851 25.2483 50.8982 21.2838 52.1557C20.7115 52.3341 19.5676 52.8531 19.0252 52.8098C18.8183 52.7932 18.6378 52.7088 18.477 52.5812C18.1843 52.3231 18.1344 51.8232 18.0307 51.4653C17.8339 50.7863 17.4199 50.2093 16.7912 49.8706C15.6176 49.2383 14.4659 49.7345 13.2994 50.0805C13.0286 50.1608 12.7635 50.1981 12.5083 50.0479C12.3089 49.9305 12.1632 49.7387 12.0629 49.5336C11.7816 48.9584 11.668 48.2394 11.4904 47.621C11.3229 47.0377 11.1078 46.4642 10.972 45.8723C10.9452 45.7554 10.8826 45.4896 10.9651 45.3914C11.3275 44.9598 12.5311 45.0575 13.338 43.7558C13.3685 43.7066 13.3977 43.6566 13.4256 43.6059C13.4536 43.5553 13.4803 43.5039 13.5056 43.4519C13.531 43.3998 13.5551 43.3472 13.5779 43.294C13.6007 43.2408 13.6221 43.187 13.6422 43.1327C13.6623 43.0784 13.681 43.0236 13.6983 42.9684C13.7157 42.9132 13.7316 42.8575 13.7462 42.8015C13.7608 42.7455 13.7739 42.6891 13.7857 42.6324C13.7975 42.5758 13.8078 42.5188 13.8167 42.4616C13.8257 42.4044 13.8332 42.347 13.8392 42.2894C13.8453 42.2319 13.8499 42.1742 13.8531 42.1164C13.8562 42.0586 13.858 42.0008 13.8583 41.9429C13.8586 41.885 13.8574 41.8271 13.8549 41.7693C13.8522 41.7115 13.8482 41.6537 13.8427 41.5961C13.8373 41.5385 13.8303 41.481 13.822 41.4237C13.8137 41.3664 13.8039 41.3094 13.7927 41.2526C13.7815 41.1958 13.7689 41.1393 13.7549 41.0831C13.7411 41.0263 13.7258 40.9698 13.7092 40.9138C13.6925 40.8577 13.6745 40.802 13.6552 40.7468C13.6358 40.6917 13.615 40.637 13.5929 40.5828C13.5709 40.5287 13.5475 40.4751 13.5228 40.422C13.4981 40.369 13.4721 40.3167 13.4448 40.2649C13.4175 40.2132 13.3889 40.1622 13.3591 40.1118C13.3293 40.0615 13.2983 40.0119 13.266 39.9632C13.2338 39.9144 13.2004 39.8664 13.1658 39.8193C13.1311 39.7721 13.0954 39.7258 13.0585 39.6805C13.0216 39.635 12.9836 39.5906 12.9445 39.5471C12.9054 39.5035 12.8653 39.461 12.8241 39.4195C12.7829 39.378 12.7408 39.3375 12.6976 39.298C12.6544 39.2585 12.6102 39.2202 12.5652 39.1829C12.5201 39.1456 12.4742 39.1095 12.4273 39.0744C12.3805 39.0394 12.3328 39.0056 12.2843 38.9729C12.2358 38.9402 12.1865 38.9088 12.1364 38.8785C11.4766 38.4884 10.5912 38.2375 9.82134 38.3565C9.62823 38.3863 9.43625 38.4544 9.24705 38.5036C9.0473 38.5556 8.78991 38.6096 8.60099 38.4989C8.48909 38.3419 8.41737 38.1582 8.35276 37.9777C8.18509 37.5091 7.25241 34.4765 7.27027 34.1139C7.29949 33.5209 8.54275 33.2774 8.99186 33.0666C9.07199 33.0294 9.15046 32.9889 9.22727 32.9452C9.30403 32.9015 9.37889 32.8547 9.45185 32.8049C9.52481 32.7551 9.5956 32.7023 9.66422 32.6467C9.73284 32.591 9.79907 32.5326 9.86291 32.4715C10.4187 31.932 10.6187 31.2835 10.6355 30.526C10.5756 29.9986 10.5743 29.3504 10.8494 28.8823C11.3588 28.0153 12.9344 27.6167 13.8486 27.3758C14.2523 27.1989 14.7047 27.088 15.1239 26.9463C15.4183 26.8083 15.7424 26.7161 16.0512 26.6145Z" fill="url(#paint0_linear_2640_26443)"/>
<path d="M60.3648 33.4769C60.4386 33.514 60.4303 33.5175 60.4692 33.5839C60.4526 33.6846 60.4345 33.7018 60.3686 33.7819C60.3374 33.7542 60.3088 33.7192 60.2803 33.6884C60.2761 33.5945 60.3137 33.55 60.3648 33.4769Z" fill="#F49541"/>
<path d="M22.7681 40.9896C23.0703 41.0609 23.3913 41.1075 23.6423 41.3017C23.41 41.3495 23.1376 41.3724 22.928 41.2386C22.8206 41.17 22.7965 41.1056 22.7681 40.9896Z" fill="#FDBF70"/>
<path d="M39.9949 25.0973C40.0393 24.898 40.0738 24.5979 40.1861 24.4295C40.2232 24.3738 40.2796 24.3298 40.3461 24.3191C40.531 24.2895 40.7095 24.4473 40.8557 24.544C40.5457 24.6414 40.2254 24.8719 39.9949 25.0973Z" fill="#FEFEFE"/>
<path d="M42.319 26.7188L42.353 26.6872C42.4372 26.7981 42.4679 26.9534 42.5232 27.0809C42.006 27.1425 41.4932 27.2272 40.9773 27.2968C40.8287 27.4393 40.6407 27.6111 40.5667 27.8069C40.4862 27.8135 40.5238 27.8208 40.4536 27.787C40.6615 27.5016 40.9598 27.2497 41.2098 26.9991C41.4053 26.996 42.3342 27.063 42.4277 26.9865L42.319 26.7188Z" fill="#F49541"/>
<path d="M53.7089 25.8597C53.6833 25.8045 53.6572 25.7424 53.6522 25.681C53.6225 25.3174 54.0266 24.5158 54.2735 24.2301C54.4361 24.0418 54.677 23.7737 54.9373 23.7549C54.3808 24.3424 54.1234 24.6288 53.8598 25.4116C53.8114 25.5555 53.7394 25.7128 53.7089 25.8597Z" fill="#FDBF70"/>
<path d="M56.8619 22.2304C56.9091 22.4481 56.9445 22.6432 56.9431 22.8671C56.2349 22.8946 55.7092 23.3642 55.0963 23.6327C55.2403 23.0879 56.1589 23.0369 56.5472 22.7174C56.702 22.5901 56.6799 22.3847 56.8154 22.2674C56.8305 22.2544 56.8465 22.2427 56.8619 22.2304Z" fill="#FDBF70"/>
<path d="M26.2002 41.2808C26.2548 41.364 26.2699 41.3746 26.2673 41.4724C26.0116 41.7542 25.4791 41.7936 25.1426 41.9685C24.8678 42.1113 24.649 42.462 24.3098 42.4651C24.2505 42.4656 24.2395 42.4392 24.1972 42.4031L24.1745 42.3302C24.4805 42.1186 24.7036 41.7848 24.9337 41.4963C25.3953 41.4647 25.7709 41.4832 26.2002 41.2808Z" fill="#FDBF70"/>
<path d="M55.0963 23.6327C55.7092 23.3642 56.2349 22.8946 56.9431 22.8671C56.4869 23.5957 54.8932 23.2533 54.1046 25.2345C53.9776 25.5538 53.9404 25.8544 53.8583 26.1808L53.838 26.1807L53.8153 26.2672L53.7781 26.3026L53.7679 26.3345C53.7306 26.2688 53.6862 26.1992 53.659 26.1289C53.6216 26.0324 53.6703 25.9476 53.7089 25.8597C53.7394 25.7128 53.8114 25.5555 53.8598 25.4116C54.1234 24.6288 54.3808 24.3424 54.9373 23.7549L55.0963 23.6327Z" fill="#F49541"/>
<path d="M16.0512 26.6145C16.2396 27.0777 16.4851 27.623 16.2839 28.1223C16.2471 28.2134 16.1829 28.3234 16.0824 28.3544C15.967 28.3899 15.8321 28.3156 15.7432 28.2488C15.3195 27.9302 15.2614 27.4156 15.1239 26.9463C15.4183 26.8083 15.7424 26.7161 16.0512 26.6145Z" fill="#FDBF70"/>
<path d="M49.5102 32.8894C49.6514 32.9224 49.7767 32.9817 49.8784 33.087C50.1751 33.3942 50.39 33.972 50.3859 34.4008C50.3837 34.6224 50.3104 34.7151 50.1535 34.8636C50.1423 34.8642 50.1311 34.8653 50.1199 34.8655C49.9604 34.8679 49.8379 34.8213 49.7222 34.7107C49.4349 34.4361 49.2812 33.8684 49.2782 33.4758C49.2762 33.2207 49.3314 33.0701 49.5102 32.8894Z" fill="#F49541"/>
<path d="M10.6355 30.526C10.5756 29.9986 10.5743 29.3504 10.8494 28.8823C11.3588 28.0153 12.9344 27.6167 13.8486 27.3758C13.8177 27.4711 13.7909 27.4656 13.7015 27.5109C13.2292 27.7502 12.5287 28.0722 12.132 28.404C11.5514 28.8899 10.7865 29.4273 10.7164 30.2465C10.6993 30.4472 10.7326 30.6494 10.6776 30.8451C10.6719 30.7359 10.6719 30.6303 10.6355 30.526Z" fill="#FCE8C4"/>
<path d="M50.4416 35.9565C50.6085 35.9551 50.6939 35.9658 50.8177 36.0856C51.1421 36.3994 51.3452 37.0577 51.3329 37.5054C51.3268 37.727 51.2645 37.8145 51.1046 37.9586C51.0898 37.9585 51.075 37.9588 51.0603 37.9582C50.8718 37.9507 50.7462 37.8854 50.6225 37.7433C50.3446 37.4239 50.19 36.8232 50.2188 36.4036C50.2332 36.1949 50.2878 36.0944 50.4416 35.9565Z" fill="#F67B1D"/>
<path d="M48.5038 29.814C48.6584 29.8215 48.7772 29.843 48.895 29.9514C49.2059 30.2376 49.3809 30.8245 49.3846 31.2411C49.3868 31.4863 49.3403 31.6209 49.1694 31.7947C49.1289 31.7988 49.0993 31.8029 49.0573 31.8016C48.904 31.7967 48.7976 31.7244 48.7011 31.6095C48.4184 31.2728 48.2138 30.6197 48.2642 30.1779C48.2848 29.9969 48.3659 29.9201 48.5038 29.814Z" fill="#F49541"/>
<path d="M20.2247 41.3963C20.2731 41.3973 20.3224 41.3971 20.3701 41.4065C20.5477 41.4413 20.697 41.5991 20.7924 41.7438C20.9883 42.0409 21.0876 42.4652 21.0042 42.8149C20.9549 43.0218 20.8505 43.1407 20.6725 43.249C20.4177 43.2035 20.2586 43.1016 20.1094 42.889C19.9147 42.6114 19.7926 42.2085 19.8597 41.8705C19.9078 41.628 20.0229 41.5244 20.2247 41.3963Z" fill="#FDBF70"/>
<path d="M21.1071 44.2566C21.1578 44.2572 21.1612 44.2561 21.2171 44.2627C21.3919 44.2835 21.5418 44.4031 21.6474 44.5375C21.8557 44.8026 21.9854 45.2572 21.9435 45.5923C21.9114 45.8498 21.7913 45.9768 21.5901 46.1277C21.5606 46.1234 21.5314 46.1177 21.5025 46.1105C21.4736 46.1032 21.4451 46.0946 21.417 46.0846C21.3889 46.0745 21.3614 46.0631 21.3345 46.0503C21.3076 46.0375 21.2813 46.0234 21.2558 46.008C21.2303 45.9926 21.2056 45.9759 21.1817 45.9581C21.1579 45.9402 21.1349 45.9212 21.113 45.901C21.091 45.8809 21.0701 45.8597 21.0502 45.8375C21.0304 45.8152 21.0117 45.792 20.9941 45.7679C20.7416 45.4242 20.7031 45.0194 20.7639 44.6117C20.8705 44.4722 20.9678 44.3661 21.1071 44.2566Z" fill="#FDBF70"/>
<path d="M19.2997 38.3725C19.419 38.3818 19.5238 38.4124 19.6239 38.4799C20.0229 38.7488 20.1116 39.3609 20.187 39.7977C20.0952 40.0094 20.0212 40.1382 19.828 40.2696C19.7713 40.2764 19.7132 40.284 19.6561 40.2831C19.5121 40.2807 19.3704 40.1773 19.2795 40.0727C18.971 39.7175 18.9325 39.1645 18.9685 38.7198C19.0601 38.5733 19.1624 38.4767 19.2997 38.3725Z" fill="#FDBF70"/>
<path d="M22.0924 47.178C22.3181 47.2212 22.4927 47.3208 22.6378 47.4996C22.9274 47.8565 22.9768 48.3141 22.9369 48.7539C22.8378 48.8874 22.7395 48.9784 22.6059 49.0777C22.5529 49.0782 22.4981 49.0787 22.4457 49.0698C22.2469 49.0358 22.0654 48.8497 21.9619 48.6875C21.7705 48.3876 21.6549 47.9283 21.7465 47.5784C21.8029 47.363 21.9063 47.2875 22.0924 47.178Z" fill="#FDBF70"/>
<path d="M46.5415 23.5697C46.5708 23.5704 46.6001 23.5716 46.6294 23.5731C46.8291 23.5845 46.9461 23.6418 47.0782 23.7937C47.3545 24.1114 47.5075 24.6935 47.4758 25.1131C47.4572 25.3588 47.3809 25.4797 47.1978 25.6387C47.0357 25.6146 46.9115 25.5788 46.7919 25.4594C46.4253 25.0935 46.2922 24.3285 46.3027 23.8277C46.3756 23.7165 46.4302 23.6438 46.5415 23.5697Z" fill="#FDBF70"/>
<path d="M16.3135 29.319C16.3556 29.3162 16.3976 29.3137 16.4398 29.3135C16.6208 29.313 16.7734 29.4161 16.894 29.5442C17.1519 29.8184 17.3136 30.2777 17.3022 30.6541C17.2947 30.9008 17.2253 31.0402 17.0444 31.2039C16.9727 31.2105 16.8982 31.2188 16.8263 31.2122C16.6622 31.1972 16.5338 31.0886 16.4316 30.967C16.1824 30.6705 16.0375 30.1648 16.0715 29.7782C16.0902 29.5655 16.1488 29.4526 16.3135 29.319Z" fill="#FDBF70"/>
<path d="M47.6137 26.654C47.7149 26.6667 47.8025 26.7101 47.8853 26.7676C48.3088 27.0614 48.4068 27.759 48.4971 28.2298C48.4109 28.4661 48.3297 28.6024 48.1394 28.7691C48.0383 28.7416 47.9352 28.7133 47.8458 28.6566C47.4103 28.3806 47.329 27.6706 47.2254 27.2068C47.3205 26.9497 47.3922 26.8219 47.6137 26.654Z" fill="#FDBF70"/>
<path d="M45.5525 20.4498C45.7348 20.4438 45.8801 20.4428 46.0308 20.5599C46.3412 20.8012 46.4824 21.2563 46.5314 21.6346C46.575 21.9725 46.5443 22.1792 46.3383 22.4506C46.2011 22.4785 46.0862 22.4907 45.9594 22.4202C45.6567 22.252 45.5223 21.8853 45.4436 21.5665C45.3435 21.1606 45.3304 20.8176 45.5525 20.4498Z" fill="#FDBF70"/>
<path d="M17.3034 32.2701C17.3567 32.2685 17.4122 32.2667 17.465 32.2751C17.6312 32.3016 17.7699 32.436 17.8678 32.5638C18.1108 32.8811 18.2535 33.3866 18.1969 33.7807C18.1614 34.0274 18.0683 34.1389 17.875 34.2889C17.8628 34.289 17.8506 34.2899 17.8384 34.2893C17.6369 34.2794 17.5001 34.1828 17.3759 34.0293C17.1092 33.6999 16.9526 33.1216 17.0139 32.7042C17.0453 32.4903 17.1311 32.3926 17.3034 32.2701Z" fill="#FDBF70"/>
<path d="M18.3025 35.3198C18.3676 35.3251 18.4339 35.3311 18.4966 35.3502C18.7042 35.4137 18.8574 35.6082 18.9578 35.7913C19.1322 36.1097 19.2561 36.586 19.145 36.9375C19.0863 37.1231 18.989 37.1887 18.8238 37.2805C18.7732 37.2859 18.7109 37.296 18.6609 37.2882C18.5099 37.2648 18.3782 37.1397 18.2887 37.0241C18.0557 36.7237 17.9168 36.2066 17.969 35.8318C18.005 35.5726 18.0988 35.4744 18.3025 35.3198Z" fill="#FDBF70"/>
<path d="M44.6815 17.2641C44.7566 17.2629 44.8345 17.26 44.9091 17.269C45.0619 17.2872 45.1919 17.4617 45.2685 17.5801C45.5014 17.9402 45.677 18.6209 45.5748 19.0391C45.5321 19.2138 45.4414 19.2939 45.2946 19.3881C45.11 19.3973 44.9922 19.3613 44.8546 19.2327C44.545 18.9438 44.3922 18.3599 44.3941 17.9433C44.3954 17.6394 44.4642 17.4721 44.6815 17.2641Z" fill="#FDBF70"/>
<path d="M40.8557 24.544C40.9907 24.6357 41.1245 24.7308 41.2638 24.8158C41.6223 24.8269 41.9912 24.8108 42.3465 24.8575C42.229 25.2226 42.0891 25.5778 41.9491 25.9346C42.1152 26.1774 42.1642 26.4762 42.319 26.7188L42.4277 26.9865C42.3342 27.063 41.4053 26.996 41.2098 26.9991C40.9598 27.2497 40.6615 27.5016 40.4536 27.787C40.4476 27.7773 40.4415 27.7677 40.4357 27.7579C40.4261 27.7416 40.417 27.725 40.4075 27.7086C40.226 27.3937 40.1933 26.9923 39.9651 26.7094C39.7787 26.4782 39.3009 26.3589 39.1973 26.1109C39.0644 25.7929 39.8862 25.4885 39.9876 25.1257C39.9902 25.1163 39.9924 25.1068 39.9949 25.0973C40.2254 24.8719 40.5457 24.6414 40.8557 24.544Z" fill="#FCE8C4"/>
<path d="M23.4353 40.0496C23.4168 39.7613 23.3357 39.141 23.5175 38.8922C23.54 38.8614 23.5616 38.8477 23.5903 38.8259C23.9369 38.8584 24.2047 39.426 24.5385 39.4549C24.855 39.4822 25.4443 39.074 25.6746 39.336C25.7608 39.648 25.6007 40.0418 25.5006 40.3387C25.6778 40.6728 25.9624 40.986 26.2002 41.2808C25.7709 41.4832 25.3953 41.4647 24.9337 41.4963C24.7036 41.7848 24.4805 42.1186 24.1745 42.3302C23.9102 42.0584 23.7862 41.6456 23.6423 41.3017C23.3913 41.1075 23.0703 41.0609 22.7681 40.9896C22.6864 40.9345 22.6731 40.9316 22.6384 40.8407C22.7188 40.5066 23.2115 40.2913 23.4353 40.0496Z" fill="#FCE8C4"/>
<path d="M35.7061 28.0572C35.7643 28.1594 35.7601 28.2401 35.7832 28.3506C35.8291 28.57 35.8783 28.7612 35.8864 28.9881C35.8967 29.2776 35.841 29.5743 35.7995 29.8602C35.7358 30.299 35.6753 30.7408 35.5854 31.1751C35.5055 31.5605 35.3997 31.9414 35.3274 32.3282C35.2475 32.7557 34.8805 35.218 35.1248 35.5151C35.1451 35.5397 35.1822 35.5431 35.2109 35.5571C35.1859 35.8485 35.1857 36.14 35.2104 36.4314C34.8783 36.8557 34.8171 37.9833 34.7546 38.5207C34.6948 39.0357 34.6095 39.5479 34.5392 40.0614C34.4649 40.6045 34.4173 41.1662 34.2667 41.6948C34.2048 41.9123 34.121 42.1374 33.9741 42.3125C33.767 42.5594 33.4783 42.6298 33.1714 42.6676C32.8361 42.4997 32.5889 42.3389 32.3864 42.0095C32.563 42.0046 32.6759 41.9634 32.8182 41.8563C33.0099 41.712 33.0666 41.5254 33.1277 41.3036C33.3161 40.6198 33.422 39.9082 33.5516 39.2116L34.2055 35.7466C34.5757 33.9283 34.9283 32.1066 35.2633 30.2815C35.4043 29.5404 35.6044 28.8049 35.7061 28.0572Z" fill="#F49541"/>
<path d="M32.3864 42.0095C32.2892 41.9615 32.1848 41.9143 32.0968 41.8504C31.977 41.7632 31.8832 41.6336 31.877 41.4809C31.8587 41.0261 32.1965 39.8717 32.303 39.3761L33.002 35.9641C33.3469 34.2429 33.6622 32.5126 33.9822 30.7865C34.1218 30.0336 34.2354 29.272 34.3997 28.5245C34.4735 28.1896 34.5351 27.746 34.7674 27.485C34.8562 27.3852 34.9742 27.3154 35.11 27.3122C35.2807 27.3083 35.4308 27.3913 35.5454 27.5133C35.7113 27.6897 35.7162 27.8262 35.7061 28.0572C35.6044 28.8049 35.4043 29.5404 35.2633 30.2815C34.9283 32.1066 34.5757 33.9283 34.2055 35.7466L33.5516 39.2116C33.422 39.9082 33.3161 40.6198 33.1277 41.3036C33.0666 41.5254 33.0099 41.712 32.8182 41.8563C32.6759 41.9634 32.563 42.0046 32.3864 42.0095Z" fill="#FCE8C4"/>
<path d="M35.2109 35.5571C35.2609 35.4174 35.2537 35.2244 35.2893 35.0737C35.2997 35.0276 35.3113 34.9817 35.3241 34.9361C35.3368 34.8905 35.3507 34.8452 35.3658 34.8003C35.3808 34.7554 35.397 34.711 35.4143 34.6669C35.4316 34.6228 35.45 34.5792 35.4695 34.5361C35.489 34.4929 35.5096 34.4503 35.5312 34.4082C35.5529 34.3661 35.5757 34.3246 35.5994 34.2837C35.6232 34.2427 35.648 34.2024 35.6738 34.1627C35.6996 34.123 35.7264 34.084 35.7542 34.0457C35.782 34.0074 35.8108 33.9697 35.8405 33.9329C35.8702 33.896 35.9008 33.8599 35.9323 33.8246C35.9639 33.7893 35.9963 33.7548 36.0295 33.7211C36.0628 33.6874 36.0969 33.6546 36.1318 33.6226C36.1668 33.5907 36.2025 33.5596 36.239 33.5295C36.2755 33.4994 36.3128 33.4702 36.3508 33.4419C36.3888 33.4136 36.4274 33.3863 36.4668 33.3601C36.5062 33.3338 36.5462 33.3085 36.5868 33.2842C37.3321 32.8366 38.3047 32.682 39.1483 32.9005C40.162 33.1631 40.6508 33.8588 41.1581 34.7095C41.5864 35.7916 41.8219 36.9316 41.3429 38.0443C41.02 38.7945 40.3863 39.3566 39.6319 39.6536C38.9021 39.941 38.1156 40.0161 37.3857 39.6895C37.2174 39.6141 37.0557 39.5229 36.8954 39.4319C36.8507 39.4037 36.807 39.3738 36.7644 39.3424C35.8515 38.6767 35.3875 37.5069 35.2104 36.4314C35.1857 36.14 35.1859 35.8485 35.2109 35.5571Z" fill="#FCE8C4"/>
<path d="M37.8464 33.9734C38.1909 33.9379 38.4728 33.9766 38.7792 34.1553C39.4312 34.5354 39.8129 35.2939 40.0059 35.9972C40.1756 36.6157 40.2723 37.4281 39.9245 38.0036C39.7017 38.3725 39.3756 38.5335 38.9754 38.6407C38.6351 38.7127 38.3127 38.6484 38.0117 38.4757C37.3553 38.0987 36.967 37.3439 36.772 36.6385C36.6003 36.017 36.4896 35.2008 36.8352 34.6177C37.0727 34.2172 37.4149 34.0752 37.8464 33.9734Z" fill="url(#paint1_linear_2640_26443)"/>
<path d="M28.6616 29.6299C29.2693 29.5701 29.8732 29.7966 30.3554 30.1564C31.3156 30.8727 31.8883 32.0516 32.052 33.2203C32.1774 34.1156 32.0833 35.0821 31.5218 35.8217C30.9426 36.5847 30.1368 36.8403 29.2231 36.9601C28.5288 36.9653 27.9732 36.8336 27.4181 36.4002C26.4426 35.6385 25.8854 34.3081 25.7458 33.1048C25.649 32.2705 25.7959 31.4384 26.3304 30.77C26.9091 30.0463 27.7636 29.7234 28.6616 29.6299Z" fill="#FCE8C4"/>
<path d="M28.521 30.825C28.7362 30.8237 28.9424 30.8804 29.1325 30.9809C29.8158 31.3422 30.2105 32.1808 30.42 32.8879C30.6196 33.5619 30.7923 34.4606 30.4239 35.1085C30.1879 35.5235 29.8461 35.6895 29.4029 35.8015C29.1087 35.7577 28.872 35.6855 28.6251 35.5082C27.8357 34.9415 27.4156 33.7814 27.2726 32.8597C27.1904 32.3302 27.1909 31.7486 27.5351 31.3035C27.7877 30.9769 28.1276 30.8666 28.521 30.825Z" fill="#FDBF70"/>
<path d="M58.4197 30.9819C58.5191 30.9504 58.6482 30.92 58.7302 30.8561C58.8752 30.7431 59.0189 30.4336 59.2166 30.4585L59.2971 30.5504L59.3726 30.4726C59.4399 30.5015 59.4572 30.5656 59.4833 30.6329C59.6318 31.0159 59.7256 31.4491 59.8259 31.8483L59.8621 31.8538L59.8954 31.8046C59.9315 31.852 59.9582 31.859 59.9351 31.9273C59.9308 31.9402 59.9183 31.9489 59.911 31.9605C59.8712 32.0226 59.8718 32.0865 59.8661 32.1579L59.8239 32.1657C59.8233 32.1444 59.8245 32.123 59.8219 32.1019C59.8146 32.0416 59.8125 32.0555 59.7638 32.0167C59.7391 31.9388 59.6937 31.7101 59.6311 31.6738C59.5801 31.7994 59.7153 32.444 59.7721 32.5917C59.7924 32.6447 59.8204 32.6953 59.8458 32.7461C59.9365 32.9275 60.0764 33.2714 60.0143 33.4636C59.9411 33.4996 59.892 33.4949 59.8126 33.4927L59.8209 33.543C59.8926 33.5532 59.9549 33.5492 60.0268 33.5425C60.1382 33.81 60.1468 34.234 60.1123 34.519C59.9108 34.6283 59.6618 34.8041 59.4437 34.8622L59.4197 34.7657L59.3446 34.77C59.322 34.8268 59.3162 34.8583 59.3106 34.9175L59.2726 34.9602L59.2261 34.9565L59.2294 34.8481C59.219 34.8561 59.2085 34.8642 59.1979 34.8719C59.0561 34.9762 58.6445 35.1852 58.4619 35.202C58.4136 35.2065 58.3063 35.1814 58.2677 35.1965C58.022 35.2923 57.4699 35.8205 57.2827 36.0282C56.9742 36.3705 56.8924 37.3199 56.6905 37.4919C56.6076 37.5625 56.5464 37.5954 56.5124 37.6995C56.5643 37.8518 56.6423 37.9569 56.7803 38.0412L56.8275 38.0386C56.8374 37.8868 56.8479 37.738 56.8743 37.5877L56.9298 37.5542L56.9244 37.6211C56.867 38.3747 57.2373 39.4414 56.6025 40.0105C56.4059 40.1868 56.1596 40.2893 55.9162 40.383C54.9027 40.7733 53.8545 41.0932 52.8277 41.4502L45.64 43.9257L33.1218 48.2165C29.1943 49.5851 25.2483 50.8982 21.2838 52.1557C20.7115 52.3341 19.5676 52.8531 19.0252 52.8098C18.8183 52.7932 18.6378 52.7088 18.477 52.5812C18.8572 52.3994 19.3085 52.3679 19.7068 52.2314C20.7075 51.8883 21.6884 51.4893 22.6747 51.1073C22.6836 50.8678 22.6737 50.6081 22.7664 50.384C22.8213 50.2511 22.9079 50.126 23.0521 50.0823C23.1369 50.0567 23.2284 50.0797 23.3041 50.1209C23.5988 50.2808 23.6969 50.6531 23.7863 50.9491C24.3402 50.7733 24.7118 50.3694 25.2338 50.1486C25.7833 49.9163 26.3103 49.6461 26.8551 49.4073C27.1009 49.2995 27.3574 49.2176 27.6034 49.1106C27.8439 49.006 28.0704 48.8706 28.3112 48.7662C28.7444 48.5785 29.1848 48.442 29.6132 48.2348C30.3198 47.893 31.0326 47.5468 31.722 47.1718C32.0928 46.9701 32.4491 46.741 32.8225 46.5445C33.1594 46.3673 33.5187 46.2348 33.8526 46.0508C34.5507 45.6661 35.1737 45.1278 35.8656 44.7572C36.1735 44.5923 36.5148 44.5037 36.8428 44.3878C37.4647 44.1681 38.0245 43.8838 38.5501 43.4843C38.7 43.1398 38.8192 42.628 38.7195 42.2584C38.699 42.1822 38.6832 42.1478 38.6136 42.1069C38.0858 41.797 37.3258 40.8397 37.1057 40.2623C37.0155 40.0255 36.9946 39.7703 36.9065 39.5372C36.8788 39.4641 36.88 39.502 36.8954 39.4319C37.0557 39.5229 37.2174 39.6141 37.3857 39.6895C38.1156 40.0161 38.9021 39.941 39.6319 39.6536C40.3863 39.3566 41.02 38.7945 41.3429 38.0443C41.8219 36.9316 41.5864 35.7916 41.1581 34.7095C42.067 35.175 42.6764 35.8397 43.1684 36.7325C43.4487 37.241 43.6805 37.687 44.1071 38.093C44.098 38.7423 44.5081 39.0078 44.8384 39.4832C44.9534 39.6488 45.0304 39.8661 45.1094 40.0517C45.2007 40.118 45.4181 40.1127 45.5357 40.123C45.9594 40.1599 46.2776 40.5046 46.6991 40.558C47.1703 40.6179 48.6509 40.2083 49.1517 40.0205C49.5083 39.8869 50.0632 39.6116 50.4217 39.4426C50.5304 39.2802 50.6357 39.097 50.7631 38.9498C51.1947 38.8354 51.6338 38.9082 52.0531 38.8082C52.9636 38.5912 53.4769 38.0744 54.1225 37.469C54.2878 37.3139 54.4756 37.1802 54.5934 36.9825C54.8433 36.5629 54.8242 35.9557 54.9573 35.4855C55.053 35.1472 55.2661 34.7821 55.4626 34.4898C55.6837 34.161 56.6229 33.9952 56.501 33.4777L56.3637 33.2998C56.3626 33.0927 56.3684 32.8841 56.3383 32.6788C56.5377 32.5984 56.7468 32.5253 56.9394 32.4302L57.0847 32.0786C57.3654 31.9609 57.7201 31.8536 57.96 31.6632C57.9885 31.5812 57.9145 31.5209 57.9274 31.4828C57.9529 31.4072 58.1574 31.2965 58.2233 31.2287C58.2957 31.1544 58.358 31.0652 58.4197 30.9819Z" fill="#FAA44B"/>
<path d="M51.4158 39.3409C51.5635 39.3422 51.6617 39.3445 51.7797 39.4393C52.112 39.706 52.3232 40.3146 52.3599 40.7333C52.3836 41.004 52.3504 41.151 52.1754 41.3588C52.1506 41.3601 52.1258 41.3611 52.1009 41.3612C51.9479 41.3618 51.8472 41.3476 51.737 41.2317C51.4254 40.9037 51.1997 40.1911 51.2133 39.7387C51.219 39.552 51.2847 39.4674 51.4158 39.3409Z" fill="#F67B1D"/>
<defs>
<linearGradient id="paint0_linear_2640_26443" x1="45.8734" y1="47.7288" x2="21.3821" y2="20.1458" gradientUnits="userSpaceOnUse">
<stop stop-color="#F99638"/>
<stop offset="1" stop-color="#FFF2BB"/>
</linearGradient>
<linearGradient id="paint1_linear_2640_26443" x1="5.93613" y1="25.8012" x2="40.0019" y2="62.2455" gradientUnits="userSpaceOnUse">
<stop stop-color="#ED843A"/>
<stop offset="1" stop-color="#FEB669"/>
</linearGradient>
</defs>
</svg>
