<svg width="68" height="68" viewBox="0 0 68 68" fill="none" xmlns="http://www.w3.org/2000/svg">
<path d="M35.8847 48.4517C35.4118 48.4517 35.0508 48.2401 34.8019 47.8169C34.6775 47.6178 34.6152 47.4186 34.6152 47.2195C34.6152 46.9955 34.6775 46.7715 34.8019 46.5474L40.2159 37.3623C40.3155 37.2129 40.3155 37.0511 40.2159 36.8769L35.2126 28.5878C35.0882 28.3638 35.026 28.1522 35.026 27.9531C35.026 27.754 35.0882 27.5424 35.2126 27.3183C35.4367 26.8952 35.7976 26.6836 36.2954 26.6836H39.1705C39.8426 26.6836 40.4649 26.8578 41.0374 27.2063C41.6348 27.5548 42.0953 28.0278 42.4189 28.6252L43.1656 30.044C43.7382 31.2388 44.3231 32.4461 44.9205 33.6658C44.9454 33.7405 44.9952 33.7778 45.0699 33.7778C45.1446 33.7778 45.1819 33.7405 45.1819 33.6658C45.3561 33.2177 45.6051 32.5706 45.9287 31.7242C46.2771 30.853 46.4887 30.2929 46.5634 30.044L47.1235 28.7372C47.3475 28.1149 47.7333 27.617 48.281 27.2437C48.8535 26.8703 49.4633 26.6836 50.1105 26.6836H52.7615C53.2594 26.6836 53.6327 26.8952 53.8817 27.3183C54.0061 27.5424 54.0683 27.7664 54.0683 27.9904C54.0683 28.1896 54.0061 28.4011 53.8817 28.6252L48.8037 37.661C48.729 37.8103 48.7415 37.9721 48.841 38.1464L54.1804 46.5848C54.3048 46.8088 54.3671 47.0204 54.3671 47.2195C54.3671 47.4186 54.3048 47.6178 54.1804 47.8169C53.9563 48.2401 53.6078 48.4517 53.1349 48.4517H50.2225C49.5504 48.4517 48.9157 48.2899 48.3183 47.9663C47.7209 47.6178 47.2604 47.1448 46.9368 46.5474L46.0407 45.0539C45.0699 43.187 44.4227 41.9673 44.0991 41.3948C44.0742 41.345 44.0244 41.3201 43.9497 41.3201C43.9 41.3201 43.8626 41.345 43.8377 41.3948C43.3648 42.4153 42.842 43.6351 42.2695 45.0539L41.6721 46.4354C41.3983 47.0577 40.9751 47.5556 40.4026 47.9289C39.855 48.2774 39.2452 48.4517 38.5731 48.4517H35.8847Z" fill="url(#paint0_linear_2640_26918)"/>
<path d="M17.2029 48.4516C16.6055 48.4516 16.0828 48.24 15.6347 47.8168C15.2116 47.3688 15 46.846 15 46.2486V22.2029C15 21.6055 15.2116 21.0952 15.6347 20.6721C16.0828 20.224 16.6055 20 17.2029 20H30.8313C31.4536 20 31.9764 20.224 32.3995 20.6721C32.8227 21.0952 33.0343 21.6055 33.0343 22.2029V23.4724C33.0343 24.0698 32.8227 24.5926 32.3995 25.0406C31.9764 25.4638 31.4536 25.6754 30.8313 25.6754H22.1316C21.9324 25.6754 21.8329 25.7625 21.8329 25.9367V30.6787C21.8329 30.8529 21.9324 30.94 22.1316 30.94H29.1511C29.7734 30.94 30.2961 31.1641 30.7193 31.6121C31.1425 32.0353 31.3541 32.5456 31.3541 33.143V34.4872C31.3541 35.0846 31.1425 35.6073 30.7193 36.0554C30.2961 36.4785 29.7734 36.6901 29.1511 36.6901H22.1316C21.9324 36.6901 21.8329 36.7772 21.8329 36.9515V42.4402C21.8329 42.6144 21.9324 42.7015 22.1316 42.7015H31.2794C31.8768 42.7015 32.3871 42.9256 32.8102 43.3736C33.2583 43.7968 33.4823 44.3071 33.4823 44.9045V46.2486C33.4823 46.846 33.2583 47.3688 32.8102 47.8168C32.3871 48.24 31.8768 48.4516 31.2794 48.4516H17.2029Z" fill="url(#paint1_linear_2640_26918)"/>
<path d="M50.6152 30C46.7492 30 43.6152 26.866 43.6152 23C43.6152 19.134 46.7492 16 50.6152 16C54.4812 16 57.6152 19.134 57.6152 23C57.6152 26.866 54.4812 30 50.6152 30Z" fill="url(#paint2_linear_2640_26918)"/>
<path d="M50.2037 22.5877C50.4316 22.3599 50.8015 22.3599 51.0294 22.5877L54.5287 26.087C54.7565 26.3148 54.7565 26.6848 54.5287 26.9126C54.3009 27.1405 53.9309 27.1405 53.7031 26.9126L50.6156 23.8252L47.5282 26.9108C47.3004 27.1386 46.9304 27.1386 46.7026 26.9108C46.4748 26.683 46.4748 26.313 46.7026 26.0852L50.2019 22.5859L50.2037 22.5877Z" fill="white"/>
<path d="M50.2037 19.0877C50.4316 18.8599 50.8015 18.8599 51.0294 19.0877L54.5287 22.587C54.7565 22.8148 54.7565 23.1848 54.5287 23.4126C54.3009 23.6405 53.9309 23.6405 53.7031 23.4126L50.6156 20.3252L47.5282 23.4108C47.3004 23.6386 46.9304 23.6386 46.7026 23.4108C46.4748 23.183 46.4748 22.813 46.7026 22.5852L50.2019 19.0859L50.2037 19.0877Z" fill="white"/>
<defs>
<linearGradient id="paint0_linear_2640_26918" x1="15.4732" y1="22.1657" x2="53.11" y2="59.205" gradientUnits="userSpaceOnUse">
<stop stop-color="#FEE0A2"/>
<stop offset="1" stop-color="#E27F00"/>
</linearGradient>
<linearGradient id="paint1_linear_2640_26918" x1="18.7214" y1="22.1656" x2="56.3581" y2="59.2049" gradientUnits="userSpaceOnUse">
<stop stop-color="#FEE0A2"/>
<stop offset="1" stop-color="#E27F00"/>
</linearGradient>
<linearGradient id="paint2_linear_2640_26918" x1="43.6144" y1="23.0078" x2="48.1063" y2="16.4879" gradientUnits="userSpaceOnUse">
<stop stop-color="#FFA800"/>
<stop offset="1" stop-color="#E27F00"/>
</linearGradient>
</defs>
</svg>
