<svg width="68" height="68" viewBox="0 0 68 68" fill="none" xmlns="http://www.w3.org/2000/svg">
<path d="M41.0527 48.2773C40.4095 48.2773 39.8158 48.0918 39.2715 47.7207C38.752 47.3249 38.3809 46.8177 38.1582 46.1992L32.3691 28.7207C32.3197 28.5475 32.2949 28.3743 32.2949 28.2012C32.2949 27.8796 32.3939 27.5827 32.5918 27.3105C32.9134 26.8652 33.334 26.6426 33.8535 26.6426H36.3027C36.946 26.6426 37.515 26.8405 38.0098 27.2363C38.5293 27.6322 38.8757 28.1393 39.0488 28.7578L41.0898 36.625C41.263 37.3177 41.5228 38.3939 41.8691 39.8535C42.2402 41.3132 42.5247 42.4141 42.7227 43.1562C42.7227 43.2305 42.7474 43.2676 42.7969 43.2676C42.8711 43.2676 42.9206 43.2305 42.9453 43.1562C43.2422 41.8451 43.7617 39.668 44.5039 36.625L46.6191 28.7578C46.7923 28.1393 47.1263 27.6322 47.6211 27.2363C48.1406 26.8405 48.722 26.6426 49.3652 26.6426H51.4805C52.0247 26.6426 52.4577 26.8652 52.7793 27.3105C52.9772 27.6074 53.0762 27.9167 53.0762 28.2383C53.0762 28.3867 53.0514 28.5475 53.002 28.7207L47.3613 46.1992C47.1634 46.8177 46.7923 47.3249 46.248 47.7207C45.7285 48.0918 45.1471 48.2773 44.5039 48.2773H41.0527Z" fill="#FFA800"/>
<path d="M16.1895 48.2773C15.5957 48.2773 15.0762 48.0671 14.6309 47.6465C14.2103 47.2012 14 46.6816 14 46.0879V22.1895C14 21.5957 14.2103 21.0885 14.6309 20.668C15.0762 20.2227 15.5957 20 16.1895 20H18.6016C19.2201 20 19.7396 20.2227 20.1602 20.668C20.5807 21.0885 20.791 21.5957 20.791 22.1895V42.3027C20.791 42.4759 20.89 42.5625 21.0879 42.5625H29.5859C30.2044 42.5625 30.724 42.7852 31.1445 43.2305C31.5651 43.651 31.7754 44.1582 31.7754 44.752V46.0879C31.7754 46.6816 31.5651 47.2012 31.1445 47.6465C30.724 48.0671 30.2044 48.2773 29.5859 48.2773H16.1895Z" fill="#FFA800"/>
</svg>
