<svg width="68" height="68" viewBox="0 0 68 68" fill="none" xmlns="http://www.w3.org/2000/svg">
<path d="M33.7884 13.2073L33.8484 13.2045C35.8964 13.1157 36.3002 14.4071 36.8864 15.9294C37.0745 16.4179 37.6968 17.9671 38.0324 18.2765C39.1641 18.6118 40.9221 18.5382 42.1544 18.7065C43.6979 18.9174 44.8886 20.15 44.639 21.7695C44.3905 23.3817 41.7119 24.5209 40.3701 25.5071C40.6516 27.7391 41.768 30.6507 39.4035 31.9604C37.0492 33.2644 34.8568 30.3301 33.892 30.7088C32.6546 31.125 31.6701 32.1832 30.3365 32.2928C28.9863 32.4037 27.7584 31.6101 27.2951 30.3498C26.5947 28.4448 28.1358 26.8957 28.0349 25.435C27.574 25.5926 26.6349 24.8249 26.2449 24.5935C25.0374 23.8772 23.632 23.31 23.4257 21.7302C23.1276 19.446 25.1631 18.7117 27.0145 18.5028C27.692 18.4264 29.1935 18.4127 29.7606 18.0522C31.4276 16.992 31.0969 13.509 33.7884 13.2073Z" fill="url(#paint0_linear_2640_26442)"/>
<path d="M22.9017 30.2003C26.0232 30.1802 25.3164 34.7009 26.9906 35.5167C28.243 36.1269 31.4311 35.4253 32.8066 36.224C34.1072 36.979 34.1742 39.0246 33.1356 40.0152C32.0212 41.0779 30.051 41.9538 29.2937 43.2925L29.2692 43.3363C29.4023 43.9948 29.4735 44.6621 29.662 45.3092C30.0663 46.6989 31.4633 48.2001 29.4416 49.3581C27.8526 50.2681 27.0459 48.7313 26.0615 48.4704C25.3202 48.2739 24.4327 48.4451 23.5447 48.2048C23.3951 48.304 23.2475 48.4068 23.0991 48.508C22.0039 49.3186 20.4225 50.8927 19.0074 50.9147C17.3171 50.9409 16.084 49.5421 16.4032 47.8528C16.6998 46.2837 16.957 45.3288 16.9368 43.624C15.6539 41.9531 10.9821 41.188 12.9396 37.9778C13.6958 36.7376 14.6777 36.5755 16.0029 36.41C19.577 35.9638 19.1893 36.0057 20.291 32.5598C20.7454 31.1386 21.2805 30.3663 22.9017 30.2003Z" fill="url(#paint1_linear_2640_26442)"/>
<path d="M46.955 30.227C50.3889 29.8056 49.6117 34.4689 51.171 35.8389C52.0076 36.574 55.0978 36.1688 56.3807 36.9846C57.7333 37.8446 57.9981 39.9639 56.797 41.0721C55.7844 42.0064 54.0251 42.4411 53.2992 43.6106C53.2127 45.686 54.3572 48.4954 53.0611 49.9919C51.0316 52.335 48.7245 49.8557 47.1189 48.4668C46.9044 48.2975 46.6946 48.141 46.4587 48.0022C44.7421 48.4923 43.289 49.9035 41.6567 49.6912C40.6623 49.5618 39.7105 48.6554 39.6778 47.6202C39.6499 46.7392 40.4856 44.418 40.6619 43.1623C38.9534 41.4717 34.8313 40.1237 36.7791 37.0696C37.9985 35.1577 40.7734 36.1761 42.626 35.7315C44.8512 35.1976 43.916 30.9602 46.955 30.227Z" fill="url(#paint2_linear_2640_26442)"/>
<defs>
<linearGradient id="paint0_linear_2640_26442" x1="34.0627" y1="9.54818" x2="34.0627" y2="35.6742" gradientUnits="userSpaceOnUse">
<stop stop-color="#FFEFB6"/>
<stop offset="1" stop-color="#F49541"/>
</linearGradient>
<linearGradient id="paint1_linear_2640_26442" x1="23.1892" y1="26.24" x2="23.1892" y2="54.5706" gradientUnits="userSpaceOnUse">
<stop stop-color="#FFEFB6"/>
<stop offset="1" stop-color="#F49541"/>
</linearGradient>
<linearGradient id="paint2_linear_2640_26442" x1="46.9439" y1="26.2317" x2="46.9439" y2="54.6216" gradientUnits="userSpaceOnUse">
<stop stop-color="#FFEFB6"/>
<stop offset="1" stop-color="#F49541"/>
</linearGradient>
</defs>
</svg>
