<svg width="309" height="90" viewBox="0 0 309 90" fill="none" xmlns="http://www.w3.org/2000/svg">
<path d="M31.6258 10.1885C19.9028 10.1885 10.3994 19.6919 10.3994 31.4149C10.3994 37.1359 14.3608 42.3283 18.0409 46.1455C20.8815 49.0919 18.3253 67.5471 17.0111 75.8142C16.6788 77.9047 18.2889 79.8111 20.4057 79.8111H85.2988C87.4156 79.8111 89.0257 77.9047 88.6934 75.8142C87.3792 67.5471 84.823 49.0919 87.6636 46.1455C91.3436 42.3283 95.3051 37.1359 95.3051 31.4149C95.3051 19.6919 85.8017 10.1885 74.0787 10.1885H31.6258Z" fill="#FFEECC"/>
<path fill-rule="evenodd" clip-rule="evenodd" d="M0.210938 31.4151C0.210938 14.065 14.276 0 31.626 0H74.0789C91.4289 0 105.494 14.065 105.494 31.4151C105.494 40.1826 100.427 47.2116 96.6112 51.4835C96.6112 51.4839 96.6112 51.4844 96.6111 51.4848C96.5132 53.0833 96.5702 55.3967 96.7812 58.2277C97.1976 63.8161 98.1123 70.1659 98.7559 74.2149C100.061 82.423 93.7513 90 85.299 90H20.4059C11.9536 90 5.64424 82.423 6.94898 74.2149C7.59262 70.1659 8.50729 63.8161 8.92372 58.2277C9.13467 55.3967 9.19167 53.0833 9.09375 51.4848C9.09372 51.4844 9.0937 51.4839 9.09367 51.4835C5.27756 47.2116 0.210938 40.1826 0.210938 31.4151ZM10.3996 31.4151C10.3996 19.6921 19.903 10.1887 31.626 10.1887H74.0789C85.8019 10.1887 95.3053 19.6921 95.3053 31.4151C95.3053 37.1361 91.3438 42.3285 87.6638 46.1457C84.8232 49.0921 87.3794 67.5473 88.6936 75.8144C89.0259 77.9049 87.4157 79.8113 85.299 79.8113H20.4059C18.2891 79.8113 16.679 77.9049 17.0113 75.8144C18.3255 67.5473 20.8817 49.0921 18.0411 46.1457C14.361 42.3285 10.3996 37.1361 10.3996 31.4151Z" fill="#FFA800"/>
<circle cx="39.2673" cy="35.6604" r="3.39623" fill="#23272E"/>
<circle cx="66.4372" cy="35.6604" r="3.39623" fill="#23272E"/>
<circle cx="29.0786" cy="43.3017" r="6.79245" fill="#FFA800"/>
<circle cx="76.6259" cy="43.3017" r="6.79245" fill="#FFA800"/>
<path d="M47.7583 42.4526C47.7583 42.4526 50.7556 44.1507 52.8526 44.1507C54.9497 44.1507 57.947 42.4526 57.947 42.4526" stroke="#23272E" stroke-width="3.46554" stroke-linecap="round" stroke-linejoin="round"/>
<path d="M293.282 5.95459H306.496V39.8288H293.282V27.3142L286.24 27.9293V39.8288H273.046V5.95459H286.24V18.1934L293.282 17.6207V5.95459Z" fill="#434E61"/>
<path d="M263.565 23.7082L266.81 23.687C267.602 23.687 268.062 23.68 268.189 23.6658V39.4045C263.226 40.2388 259.266 40.656 256.311 40.656C253.355 40.656 250.584 40.2388 247.996 39.4045C245.408 38.5561 243.167 37.3541 241.272 35.7986C239.377 34.2431 237.892 32.3624 236.818 30.1564C235.743 27.9363 235.206 25.4546 235.206 22.7113C235.206 17.3237 237.348 13.0249 241.633 9.81493C245.931 6.60498 251.439 5 258.156 5C261.451 5 264.06 5.35352 265.983 6.06056C266.322 6.18782 266.506 6.25146 266.534 6.25146V16.4964C264.456 15.8601 262.547 15.5419 260.807 15.5419C257.64 15.5419 255.158 16.3833 253.362 18.0661C251.566 19.7488 250.676 21.6861 250.69 23.8779C250.69 25.4051 251.107 26.6566 251.941 27.6323C252.79 28.608 253.949 29.0959 255.42 29.0959C256.212 29.0959 256.82 28.9969 257.244 28.7989C257.272 28.2757 257.286 27.604 257.286 26.7839V23.7082C259.379 23.7082 261.472 23.7082 263.565 23.7082Z" fill="#434E61"/>
<path d="M215.946 40.656C204.704 40.656 199.083 35.8765 199.083 26.3173V5.95459H212.467V25.9355C212.467 27.9435 213.139 29.2515 214.482 29.8596C214.949 30.0717 215.508 30.1777 216.158 30.1777C217.996 30.1777 219.156 29.301 219.637 27.5475C219.778 27.0243 219.849 26.4587 219.849 25.8507V5.95459H231.578V26.3173C231.578 35.8765 226.368 40.656 215.946 40.656Z" fill="#434E61"/>
<path d="M181.881 18.8297C181.881 16.4399 180.736 15.245 178.445 15.245C177.455 15.245 176.352 15.8672 175.136 17.1116C173.312 18.9923 172.039 21.2336 171.318 23.8355C171.092 24.6557 170.978 25.4122 170.978 26.1051C170.978 28.4525 172.166 29.6262 174.542 29.6262C175.489 29.6403 176.571 29.011 177.787 27.7384C179.555 25.8718 180.806 23.6093 181.542 20.9508C181.768 20.1306 181.881 19.4236 181.881 18.8297ZM176.09 40.656C171.07 40.656 166.715 39.0298 163.024 35.7774C161.851 34.7451 160.832 33.5644 159.97 32.2351C158.132 29.4211 157.212 26.2748 157.212 22.7962C157.212 19.3034 158.061 16.2136 159.758 13.5269C161.455 10.8401 163.731 8.7473 166.588 7.24838C169.444 5.74946 172.4 5 175.454 5C178.523 5 181.223 5.41008 183.557 6.23025C185.89 7.05041 187.919 8.23117 189.644 9.77251C191.384 11.2997 192.748 13.1734 193.738 15.3935C194.728 17.6136 195.223 20.1236 195.223 22.9234C195.223 26.4021 194.339 29.4989 192.571 32.2139C190.804 34.9148 188.449 37.0006 185.508 38.4712C182.567 39.9277 179.428 40.656 176.09 40.656Z" fill="#434E61"/>
<path d="M119.859 5.9545C128.443 5.31817 134.043 5 136.659 5C139.289 5 141.36 5.24746 142.873 5.74239C144.401 6.22318 145.765 6.89486 146.967 7.75745C149.3 9.41192 151.061 11.6108 152.249 14.3541C153.451 17.0974 154.052 19.8761 154.052 22.6901C154.052 25.5041 153.592 27.9646 152.673 30.0716C151.768 32.1644 150.509 33.932 148.897 35.3744C145.603 38.3581 141.339 39.8429 136.107 39.8287H119.859V5.9545ZM133.053 16.7086V29.6262C133.802 28.9898 134.615 28.3606 135.492 27.7384C138.858 25.3203 140.54 22.7891 140.54 20.1448C140.54 18.858 140.158 17.6701 139.395 16.5813C138.631 15.4783 137.634 14.9268 136.404 14.9268C135.188 14.9268 134.071 15.5207 133.053 16.7086Z" fill="#434E61"/>
<path d="M293.282 50.2983H306.496V84.1726H293.282V71.658L286.24 72.2731V84.1726H273.046V50.2983H286.24V62.5372L293.282 61.9645V50.2983Z" fill="#434E61"/>
<path d="M263.565 68.0525L266.81 68.0313C267.602 68.0313 268.062 68.0242 268.189 68.0101V83.7487C263.226 84.583 259.266 85.0002 256.311 85.0002C253.355 85.0002 250.584 84.583 247.996 83.7487C245.408 82.9003 243.167 81.6983 241.272 80.1428C239.377 78.5874 237.892 76.7066 236.818 74.5007C235.743 72.2806 235.206 69.7989 235.206 67.0556C235.206 61.6679 237.348 57.3691 241.633 54.1592C245.931 50.9492 251.439 49.3442 258.156 49.3442C261.451 49.3442 264.06 49.6978 265.983 50.4048C266.322 50.5321 266.506 50.5957 266.534 50.5957V60.8407C264.456 60.2044 262.547 59.8862 260.807 59.8862C257.64 59.8862 255.158 60.7276 253.362 62.4103C251.566 64.0931 250.676 66.0303 250.69 68.2222C250.69 69.7494 251.107 71.0008 251.941 71.9765C252.79 72.9523 253.949 73.4401 255.42 73.4401C256.212 73.4401 256.82 73.3411 257.244 73.1432C257.272 72.6199 257.286 71.9483 257.286 71.1281V68.0525C259.379 68.0525 261.472 68.0525 263.565 68.0525Z" fill="#434E61"/>
<path d="M215.946 84.9998C204.704 84.9998 199.083 80.2202 199.083 70.6611V50.2983H212.467V70.2793C212.467 72.2872 213.139 73.5953 214.482 74.2033C214.949 74.4154 215.508 74.5215 216.158 74.5215C217.996 74.5215 219.156 73.6448 219.637 71.8913C219.778 71.3681 219.849 70.8025 219.849 70.1944V50.2983H231.578V70.6611C231.578 80.2202 226.368 84.9998 215.946 84.9998Z" fill="#434E61"/>
<path d="M181.881 63.1739C181.881 60.7841 180.736 59.5892 178.445 59.5892C177.455 59.5892 176.352 60.2114 175.136 61.4558C173.312 63.3365 172.039 65.5778 171.318 68.1797C171.092 68.9999 170.978 69.7564 170.978 70.4493C170.978 72.7967 172.166 73.9704 174.542 73.9704C175.489 73.9845 176.571 73.3553 177.787 72.0826C179.555 70.216 180.806 67.9535 181.542 65.295C181.768 64.4749 181.881 63.7678 181.881 63.1739ZM176.09 85.0002C171.07 85.0002 166.715 83.374 163.024 80.1216C161.851 79.0894 160.832 77.9086 159.97 76.5794C158.132 73.7654 157.212 70.619 157.212 67.1404C157.212 63.6476 158.061 60.5579 159.758 57.8711C161.455 55.1844 163.731 53.0915 166.588 51.5926C169.444 50.0937 172.4 49.3442 175.454 49.3442C178.523 49.3442 181.223 49.7543 183.557 50.5745C185.89 51.3947 187.919 52.5754 189.644 54.1167C191.384 55.644 192.748 57.5176 193.738 59.7377C194.728 61.9578 195.223 64.4678 195.223 67.2677C195.223 70.7463 194.339 73.8431 192.571 76.5582C190.804 79.259 188.449 81.3448 185.508 82.8154C182.567 84.2719 179.428 85.0002 176.09 85.0002Z" fill="#434E61"/>
<path d="M119.859 50.2987C128.443 49.6624 134.043 49.3442 136.659 49.3442C139.289 49.3442 141.36 49.5917 142.873 50.0866C144.401 50.5674 145.765 51.2391 146.967 52.1017C149.3 53.7562 151.061 55.955 152.249 58.6984C153.451 61.4417 154.052 64.2203 154.052 67.0343C154.052 69.8484 153.592 72.3089 152.673 74.4158C151.768 76.5087 150.509 78.2763 148.897 79.7186C145.603 82.7023 141.339 84.1871 136.107 84.173H119.859V50.2987ZM133.053 61.0528V73.9704C133.802 73.3341 134.615 72.7048 135.492 72.0826C138.858 69.6645 140.54 67.1333 140.54 64.489C140.54 63.2022 140.158 62.0144 139.395 60.9255C138.631 59.8226 137.634 59.2711 136.404 59.2711C135.188 59.2711 134.071 59.865 133.053 61.0528Z" fill="#434E61"/>
</svg>
