<svg width="177" height="184" viewBox="0 0 177 184" fill="none" xmlns="http://www.w3.org/2000/svg">
<path d="M64.5205 11.3213C51.4949 11.3213 40.9355 21.8806 40.9355 34.9062C40.9355 41.2629 45.3371 47.0322 49.4261 51.2735C52.5823 54.5473 49.742 75.0531 48.2819 84.2388C47.9127 86.5616 49.7017 88.6798 52.0536 88.6798H124.157C126.509 88.6798 128.298 86.5616 127.929 84.2388C126.469 75.0531 123.628 54.5473 126.785 51.2735C130.874 47.0322 135.275 41.2629 135.275 34.9062C135.275 21.8806 124.716 11.3213 111.69 11.3213H64.5205Z" fill="#FFEECC"/>
<path fill-rule="evenodd" clip-rule="evenodd" d="M29.6147 34.9057C29.6147 15.6278 45.2425 0 64.5204 0H111.69C130.968 0 146.596 15.6278 146.596 34.9057C146.596 44.6474 140.966 52.4573 136.726 57.2039C136.726 57.2044 136.726 57.2049 136.726 57.2054C136.617 58.9815 136.681 61.5519 136.915 64.6974C137.378 70.9068 138.394 77.9621 139.109 82.4611C140.559 91.5811 133.548 100 124.157 100H52.0536C42.6622 100 35.6517 91.5811 37.1015 82.4611C37.8166 77.9621 38.8329 70.9068 39.2956 64.6974C39.53 61.5519 39.5933 58.9815 39.4845 57.2054C39.4845 57.2049 39.4845 57.2044 39.4844 57.2039C35.2443 52.4573 29.6147 44.6474 29.6147 34.9057ZM40.9355 34.9057C40.9355 21.8801 51.4948 11.3208 64.5204 11.3208H111.69C124.716 11.3208 135.275 21.8801 135.275 34.9057C135.275 41.2623 130.874 47.0317 126.785 51.273C123.628 54.5468 126.469 75.0526 127.929 84.2383C128.298 86.561 126.509 88.6792 124.157 88.6792H52.0536C49.7016 88.6792 47.9126 86.561 48.2818 84.2383C49.742 75.0526 52.5822 54.5468 49.4261 51.273C45.3371 47.0317 40.9355 41.2623 40.9355 34.9057Z" fill="#FFA800"/>
<circle cx="73.0109" cy="39.6227" r="3.77358" fill="#23272E"/>
<circle cx="103.2" cy="39.6227" r="3.77358" fill="#23272E"/>
<circle cx="61.6902" cy="48.1131" r="7.54717" fill="#FFA800"/>
<circle cx="114.52" cy="48.1131" r="7.54717" fill="#FFA800"/>
<path d="M82.4448 47.1699C82.4448 47.1699 85.7751 49.0567 88.1052 49.0567C90.4353 49.0567 93.7656 47.1699 93.7656 47.1699" stroke="#23272E" stroke-width="3.8506" stroke-linecap="round" stroke-linejoin="round"/>
<path d="M160.199 112.859H172.092V143.346H160.199V132.083L153.861 132.637V143.346H141.987V112.859H153.861V123.874L160.199 123.359V112.859Z" fill="#434E61"/>
<path d="M133.454 128.837L136.374 128.818C137.087 128.818 137.501 128.812 137.615 128.799V142.964C133.148 143.715 129.585 144.09 126.925 144.09C124.265 144.09 121.77 143.715 119.441 142.964C117.112 142.2 115.095 141.119 113.39 139.719C111.685 138.319 110.348 136.626 109.381 134.641C108.414 132.643 107.93 130.409 107.93 127.94C107.93 123.091 109.858 119.222 113.714 116.333C117.583 113.444 122.54 112 128.586 112C131.551 112 133.899 112.318 135.63 112.955C135.935 113.069 136.101 113.126 136.126 113.126V122.347C134.255 121.774 132.537 121.488 130.972 121.488C128.121 121.488 125.888 122.245 124.271 123.759C122.655 125.274 121.853 127.017 121.866 128.99C121.866 130.365 122.241 131.491 122.992 132.369C123.756 133.247 124.799 133.686 126.123 133.686C126.836 133.686 127.383 133.597 127.765 133.419C127.79 132.948 127.803 132.344 127.803 131.605V128.837C129.686 128.837 131.57 128.837 133.454 128.837Z" fill="#434E61"/>
<path d="M90.5965 144.091C80.4788 144.091 75.4199 139.789 75.4199 131.186V112.859H87.4657V130.842C87.4657 132.649 88.0703 133.827 89.2793 134.374C89.6993 134.565 90.202 134.66 90.7874 134.66C92.4419 134.66 93.4855 133.871 93.9182 132.293C94.0454 131.822 94.1091 131.313 94.1091 130.766V112.859H104.666V131.186C104.666 139.789 99.9761 144.091 90.5965 144.091Z" fill="#434E61"/>
<path d="M59.9376 124.447C59.9376 122.296 58.9067 121.22 56.845 121.22C55.9541 121.22 54.9614 121.78 53.8669 122.9C52.2252 124.593 51.0798 126.61 50.4307 128.952C50.2271 129.69 50.1253 130.371 50.1253 130.995C50.1253 133.107 51.1943 134.164 53.3324 134.164C54.1851 134.176 55.1587 133.61 56.2532 132.465C57.844 130.785 58.9703 128.748 59.6321 126.356C59.8357 125.618 59.9376 124.981 59.9376 124.447ZM54.726 144.09C50.208 144.09 46.2882 142.627 42.9665 139.7C41.9102 138.771 40.9939 137.708 40.2175 136.512C38.5631 133.979 37.7358 131.147 37.7358 128.017C37.7358 124.873 38.4994 122.092 40.0266 119.674C41.5538 117.256 43.6028 115.373 46.1736 114.024C48.7444 112.675 51.4043 112 54.1533 112C56.915 112 59.3458 112.369 61.4457 113.107C63.5456 113.845 65.3719 114.908 66.9245 116.295C68.4899 117.67 69.718 119.356 70.6089 121.354C71.4998 123.352 71.9452 125.611 71.9452 128.131C71.9452 131.262 71.1498 134.049 69.5589 136.493C67.9681 138.923 65.8491 140.801 63.202 142.124C60.5548 143.435 57.7295 144.09 54.726 144.09Z" fill="#434E61"/>
<path d="M4.11865 112.859C11.8438 112.286 16.8835 112 19.238 112C21.6051 112 23.4696 112.223 24.8313 112.668C26.2058 113.101 27.434 113.705 28.5157 114.482C30.6156 115.971 32.2001 117.95 33.2691 120.419C34.3509 122.888 34.8918 125.388 34.8918 127.921C34.8918 130.454 34.4782 132.668 33.6509 134.564C32.8364 136.448 31.7038 138.039 30.2529 139.337C27.2876 142.022 23.4505 143.359 18.7416 143.346H4.11865V112.859ZM15.9927 122.538V134.164C16.6672 133.591 17.399 133.024 18.188 132.465C21.217 130.288 22.7314 128.01 22.7314 125.63C22.7314 124.472 22.3878 123.403 21.7006 122.423C21.0133 121.43 20.1161 120.934 19.0089 120.934C17.9144 120.934 16.909 121.469 15.9927 122.538Z" fill="#434E61"/>
<path d="M160.199 152.769H172.092V183.256H160.199V171.993L153.861 172.546V183.256H141.987V152.769H153.861V163.784L160.199 163.269V152.769Z" fill="#434E61"/>
<path d="M133.454 168.748L136.374 168.728C137.087 168.728 137.501 168.722 137.615 168.709V182.874C133.148 183.625 129.585 184.001 126.925 184.001C124.265 184.001 121.77 183.625 119.441 182.874C117.112 182.111 115.095 181.029 113.39 179.629C111.685 178.229 110.348 176.536 109.381 174.551C108.414 172.553 107.93 170.319 107.93 167.85C107.93 163.001 109.858 159.133 113.714 156.244C117.583 153.355 122.54 151.91 128.586 151.91C131.551 151.91 133.899 152.228 135.63 152.865C135.935 152.979 136.101 153.036 136.126 153.036V162.257C134.255 161.684 132.537 161.398 130.972 161.398C128.121 161.398 125.888 162.155 124.271 163.67C122.655 165.184 121.853 166.928 121.866 168.9C121.866 170.275 122.241 171.401 122.992 172.279C123.756 173.157 124.799 173.596 126.123 173.596C126.836 173.596 127.383 173.507 127.765 173.329C127.79 172.858 127.803 172.254 127.803 171.516V168.748C129.686 168.748 131.57 168.748 133.454 168.748Z" fill="#434E61"/>
<path d="M90.5965 184C80.4788 184 75.4199 179.699 75.4199 171.095V152.769H87.4657V170.752C87.4657 172.559 88.0703 173.736 89.2793 174.284C89.6993 174.474 90.202 174.57 90.7874 174.57C92.4419 174.57 93.4855 173.781 93.9182 172.203C94.0454 171.732 94.1091 171.223 94.1091 170.676V152.769H104.666V171.095C104.666 179.699 99.9761 184 90.5965 184Z" fill="#434E61"/>
<path d="M59.9376 164.357C59.9376 162.206 58.9067 161.131 56.845 161.131C55.9541 161.131 54.9614 161.691 53.8669 162.811C52.2252 164.503 51.0798 166.52 50.4307 168.862C50.2271 169.6 50.1253 170.281 50.1253 170.905C50.1253 173.017 51.1943 174.074 53.3324 174.074C54.1851 174.086 55.1587 173.52 56.2532 172.375C57.844 170.695 58.9703 168.658 59.6321 166.266C59.8357 165.528 59.9376 164.891 59.9376 164.357ZM54.726 184.001C50.208 184.001 46.2882 182.537 42.9665 179.61C41.9102 178.681 40.9939 177.618 40.2175 176.422C38.5631 173.889 37.7358 171.057 37.7358 167.927C37.7358 164.783 38.4994 162.002 40.0266 159.584C41.5538 157.166 43.6028 155.283 46.1736 153.934C48.7444 152.585 51.4043 151.91 54.1533 151.91C56.915 151.91 59.3458 152.279 61.4457 153.017C63.5456 153.756 65.3719 154.818 66.9245 156.205C68.4899 157.58 69.718 159.266 70.6089 161.264C71.4998 163.262 71.9452 165.521 71.9452 168.041C71.9452 171.172 71.1498 173.959 69.5589 176.403C67.9681 178.833 65.8491 180.711 63.202 182.034C60.5548 183.345 57.7295 184.001 54.726 184.001Z" fill="#434E61"/>
<path d="M4.11865 152.769C11.8438 152.197 16.8835 151.91 19.238 151.91C21.6051 151.91 23.4696 152.133 24.8313 152.578C26.2058 153.011 27.434 153.616 28.5157 154.392C30.6156 155.881 32.2001 157.86 33.2691 160.329C34.3509 162.798 34.8918 165.299 34.8918 167.831C34.8918 170.364 34.4782 172.578 33.6509 174.475C32.8364 176.358 31.7038 177.949 30.2529 179.247C27.2876 181.932 23.4505 183.269 18.7416 183.256H4.11865V152.769ZM15.9927 162.448V174.074C16.6672 173.501 17.399 172.935 18.188 172.375C21.217 170.198 22.7314 167.92 22.7314 165.54C22.7314 164.382 22.3878 163.313 21.7006 162.333C21.0133 161.341 20.1161 160.844 19.0089 160.844C17.9144 160.844 16.909 161.379 15.9927 162.448Z" fill="#434E61"/>
</svg>
