<svg width="40" height="40" viewBox="0 0 40 40" fill="none" xmlns="http://www.w3.org/2000/svg">
<path fill-rule="evenodd" clip-rule="evenodd" d="M23.7803 9.36462C24.8237 7.44393 23.3619 4.84981 21.2815 5.12435C20.7747 5.17623 20.3937 5.36706 19.9673 5.63739C18.2189 3.904 14.7653 6.57018 16.2361 9.29543C16.4971 9.779 16.9521 10.2295 17.3699 10.6432C17.4787 10.7508 17.5849 10.856 17.6845 10.9586L19.0681 12.3935C19.0857 12.4117 19.1031 12.4297 19.1202 12.4475C19.765 13.1165 20.0495 13.4116 20.818 12.6279L22.4603 10.9254C22.5482 10.8327 22.6396 10.7393 22.7321 10.6448C23.1185 10.2501 23.5248 9.8349 23.7803 9.36462ZM30.3537 12.8872C30.1554 11.5745 29.1235 11.1001 27.9338 11.1425C27.7676 11.1478 27.3568 11.1455 26.8662 11.1428C25.8114 11.1369 24.3876 11.129 24.2303 11.1904C24.0338 11.2669 23.8239 11.5013 23.6518 11.6934C23.602 11.7491 23.5554 11.8011 23.5132 11.8448L22.255 13.1326C22.215 13.1739 22.175 13.2155 22.1349 13.2573C21.3308 14.0942 20.4936 14.9655 19.1808 14.3036C18.6291 14.0254 17.666 12.9833 16.8676 12.1195C16.5209 11.7444 16.2053 11.4029 15.968 11.1722C15.6658 11.1485 15.362 11.1495 15.0587 11.1505C14.9918 11.1507 14.9249 11.1509 14.8581 11.1509L12.1756 11.1516C12.1284 11.1517 12.0803 11.1515 12.0316 11.1512C11.7843 11.15 11.5211 11.1486 11.2852 11.1893C9.58977 11.4815 9.62878 13.2602 9.65887 14.6323C9.66261 14.8031 9.66622 14.9677 9.66633 15.1223V29.8894C9.40262 29.893 9.01384 29.885 8.57412 29.876C7.46312 29.8533 6.02691 29.8239 5.461 29.9574C4.01472 30.2984 4.06866 32.3738 5.48988 32.6918C5.97169 32.7996 7.6601 32.7522 8.50814 32.7283C8.63128 32.7249 8.7367 32.7219 8.81814 32.72C9.34267 32.7318 9.86796 32.7302 10.393 32.7285C10.579 32.7279 10.7651 32.7273 10.951 32.7274L33.2498 32.7276C33.335 32.7277 33.4204 32.729 33.5056 32.7304C34.1223 32.7401 34.729 32.7497 35.2176 32.2833C36.021 31.5166 35.5918 30.1781 34.5195 29.9321C34.2156 29.8624 33.7863 29.8737 33.4127 29.8836C33.2937 29.8868 33.1804 29.8897 33.0786 29.8899L30.7948 29.8912C30.6598 29.8917 30.5248 29.8952 30.39 29.8999L30.3921 14.7972C30.3923 14.647 30.3954 14.4875 30.3987 14.3237C30.4083 13.8391 30.4186 13.3171 30.3537 12.8872Z" fill="url(#paint0_linear_2432_14295)"/>
<path d="M14.3461 20.8465C16.5006 20.7034 16.8031 23.5599 14.6916 23.9859C12.4396 24.1472 12.3444 21.0998 14.3461 20.8465Z" fill="#FFF6C5"/>
<path d="M14.4488 15.125C16.482 14.9288 16.8688 18.0812 14.6334 18.294C12.6608 18.4969 12.1948 15.3517 14.4488 15.125Z" fill="#FFF6C5"/>
<path d="M25.3514 20.8666C27.4235 20.5616 27.8835 23.6904 25.7859 23.9875C23.2327 24.0312 23.4292 21.0756 25.3514 20.8666Z" fill="#FFF6C5"/>
<path d="M25.4892 15.086C27.6117 15.0187 27.7452 18.258 25.5363 18.284C23.3547 18.2524 23.2488 15.2326 25.4892 15.086Z" fill="#FFF6C5"/>
<path d="M19.7492 16.3135C22.0622 15.9633 22.4167 19.1483 20.4019 19.5026C18.2876 19.9944 17.5136 16.6153 19.7492 16.3135Z" fill="#FFF6C5"/>
<path d="M19.8188 22.6471C21.6076 22.4534 23.2917 23.7895 23.7039 25.5002C23.8807 26.2337 23.8166 27.8011 23.8171 28.5752C23.8174 29.0126 23.8491 29.4622 23.8261 29.898C22.5605 29.945 21.0417 29.9218 19.78 29.8812C18.4756 29.9243 17.1544 29.9044 15.8491 29.8908C15.9971 29.876 16.1502 29.8829 16.2991 29.8827L16.2965 26.9046C16.2977 26.5984 16.2859 26.2844 16.3166 25.9796C16.4952 24.2095 18.0042 22.6735 19.8188 22.6471Z" fill="#FFF6C5"/>
<defs>
<linearGradient id="paint0_linear_2432_14295" x1="19.9994" y1="5.08428" x2="33.3668" y2="15.4785" gradientUnits="userSpaceOnUse">
<stop stop-color="#FFA800"/>
<stop offset="1" stop-color="#E27F00"/>
</linearGradient>
</defs>
</svg>
