<svg width="40" height="40" viewBox="0 0 40 40" fill="none" xmlns="http://www.w3.org/2000/svg">
<path d="M12.9183 26.2511C14.9153 27.6882 17.1048 28.3697 19.5561 28.5602C19.289 29.6017 18.9867 30.6144 18.7306 31.6711L18.3654 33.2152C18.121 34.2587 17.962 35.2339 16.6743 35.2757C15.7184 35.1767 15.3312 34.0587 14.7722 33.4067L14.7574 33.3898C13.7234 33.9539 12.393 35.2187 11.3413 33.6779C10.7293 32.7815 11.3584 31.5997 11.6438 30.6985L12.1983 28.9132C12.4719 28.0394 12.7495 27.1524 12.9183 26.2511Z" fill="url(#paint0_linear_2432_42955)"/>
<path d="M27.1064 26.2434C27.1125 26.2474 28.1671 29.8984 28.2474 30.1466C28.5608 31.1167 29.333 32.7007 28.7329 33.641C27.7947 35.111 26.3819 34.1342 25.2888 33.4177C24.8796 34.045 24.1597 35.1216 23.4546 35.2715C22.2036 35.4986 21.8776 34.2672 21.6711 33.3531L20.8913 29.9904C20.7724 29.5042 20.6364 29.0177 20.5401 28.5268C22.8825 28.5871 25.2471 27.6189 27.1064 26.2434Z" fill="url(#paint1_linear_2432_42955)"/>
<path fill-rule="evenodd" clip-rule="evenodd" d="M19.6619 5.67302L19.6102 5.67507C14.9524 5.84845 11.2074 8.85146 9.71206 13.179C8.35518 17.1061 9.49062 21.7356 12.5505 24.5698C14.9314 26.775 17.3093 27.53 20.4443 27.5166C26.4792 27.3078 31.1072 22.2668 30.9001 16.246C30.6944 10.2635 25.6783 5.44938 19.6619 5.67302ZM25.3906 12.4445C24.1888 10.8024 21.8498 9.70523 19.7975 9.89123C16.5554 10.0822 14.0289 12.237 13.4424 15.4226C12.634 19.8128 16.0671 23.5354 20.4318 23.4177C22.3643 23.2254 24.0462 22.5245 25.303 20.9849C27.3262 18.5065 27.2514 14.987 25.3906 12.4445Z" fill="url(#paint2_linear_2432_42955)"/>
<path d="M19.9726 12.6436C20.8207 12.606 21.0705 14.0661 21.3654 14.6503L21.3816 14.682C22.0326 14.6822 23.6587 14.5088 23.7564 15.516C23.8304 16.2786 22.7719 16.6262 22.3679 17.1224C22.4616 17.9429 23.0371 19.1811 22.1258 19.5835C21.2281 19.98 20.7977 18.9312 20.0788 18.6944L20.0243 18.7194C19.4356 18.9872 18.8638 19.8375 18.1419 19.6494C16.9788 19.3465 17.5779 17.935 17.7854 17.1634C17.3782 16.7439 16.3229 16.2349 16.3146 15.587C16.2995 14.4247 17.9462 14.6761 18.7129 14.6847C18.94 14.0254 19.1086 12.7547 19.9726 12.6436Z" fill="url(#paint3_linear_2432_42955)"/>
<defs>
<linearGradient id="paint0_linear_2432_42955" x1="17.57" y1="35.7873" x2="25.841" y2="8.25917" gradientUnits="userSpaceOnUse">
<stop stop-color="#05807C"/>
<stop offset="1" stop-color="#04C8BC"/>
</linearGradient>
<linearGradient id="paint1_linear_2432_42955" x1="17.57" y1="35.7873" x2="25.841" y2="8.25917" gradientUnits="userSpaceOnUse">
<stop stop-color="#05807C"/>
<stop offset="1" stop-color="#04C8BC"/>
</linearGradient>
<linearGradient id="paint2_linear_2432_42955" x1="17.57" y1="35.7873" x2="25.841" y2="8.25917" gradientUnits="userSpaceOnUse">
<stop stop-color="#05807C"/>
<stop offset="1" stop-color="#04C8BC"/>
</linearGradient>
<linearGradient id="paint3_linear_2432_42955" x1="17.57" y1="35.7873" x2="25.841" y2="8.25917" gradientUnits="userSpaceOnUse">
<stop stop-color="#05807C"/>
<stop offset="1" stop-color="#04C8BC"/>
</linearGradient>
</defs>
</svg>
