<svg width="40" height="40" viewBox="0 0 40 40" fill="none" xmlns="http://www.w3.org/2000/svg">
<path d="M24.0655 29.9058C25.526 29.7973 25.3398 31.2266 24.4633 31.345C22.8728 31.3916 23.2117 30.1023 24.0655 29.9058Z" fill="white"/>
<path fill-rule="evenodd" clip-rule="evenodd" d="M26.4542 21.0579C26.8744 21.0475 27.2937 21.0415 27.7128 21.0415C28.2963 21.0415 28.8795 21.0529 29.4646 21.0796C29.5044 21.9551 29.5069 22.8419 29.4898 23.7182C29.4905 23.8743 29.4915 24.0304 29.4925 24.1867C29.4978 25.0408 29.5032 25.897 29.471 26.7496C29.3228 30.6736 26.1199 34.1925 22.2389 34.7322C21.2207 34.8737 19.8009 34.8686 18.747 34.8238C14.317 34.6357 10.8567 31.1341 10.5792 26.749C10.5657 26.5361 10.569 26.3199 10.5722 26.105C10.5734 26.0243 10.5747 25.9439 10.575 25.8638L10.5756 24.4858C10.5756 24.1555 10.5722 23.8239 10.5688 23.4917C10.5608 22.7058 10.5528 21.9171 10.5889 21.1368C10.9017 21.1574 11.2247 21.1459 11.5446 21.1345C11.6917 21.1292 11.8382 21.124 11.9827 21.1219L26.4542 21.0579Z" fill="url(#paint0_linear_2432_14277)"/>
<path d="M15.6795 29.829C16.0025 29.8083 16.3336 29.8248 16.6576 29.825L19.9262 29.8265C20.2793 29.8251 20.7922 29.7383 21.1103 29.9297C21.7095 30.2902 21.5747 31.1961 20.8838 31.3098C20.6149 31.3338 20.3324 31.316 20.062 31.3151L16.742 31.3145C16.167 31.3146 15.2129 31.4862 15.0493 30.7306C14.9604 30.3203 15.2907 29.9156 15.6795 29.829Z" fill="#FFF6C5"/>
<path d="M13.2348 18.0201C12.5349 17.1252 11.9378 16.0188 11.717 14.9016C10.2038 7.24495 18.7306 2.21438 24.9248 6.40208C27.1619 7.91458 28.4907 10.4499 28.5033 13.1315C28.512 14.9996 27.8838 16.4843 26.8521 18.0046C27.5586 18.0811 29.4393 17.915 29.9291 18.184C31.2864 18.9291 30.9675 20.6481 29.4645 21.0795C28.4593 21.0336 27.4596 21.0329 26.4542 21.0578L11.9826 21.1218C11.5238 21.1284 11.0454 21.1668 10.5888 21.1367C8.95326 20.5432 8.85763 18.6425 10.2045 18.149C10.7794 17.9383 12.4824 18.0574 13.2348 18.0201Z" fill="url(#paint1_linear_2432_14277)"/>
<path d="M20.1416 7.41633C20.8617 6.87451 22.1509 7.3727 22.8679 7.70839C22.7549 7.77601 21.3857 7.41276 21.0581 7.39995C20.8104 7.39033 20.3588 7.47883 20.1416 7.41633Z" fill="#FFF6C5"/>
<path d="M18.0833 7.33363C18.4039 7.16469 18.6208 6.99126 19.0075 7.10994C19.3234 7.20688 19.6951 7.58257 19.6001 7.94294C19.7366 7.75063 19.956 7.56251 20.1414 7.41651C20.3586 7.47901 20.8101 7.39051 21.0579 7.40013C21.3854 7.41294 22.7546 7.77619 22.8677 7.70857C23.1799 7.77401 23.8809 8.27238 24.1329 8.48307C26.7676 10.6854 27.1119 14.4441 24.8896 17.0758C23.8711 18.2819 23.5427 18.0414 22.1423 18.0407L17.2736 18.0409C16.5104 18.0418 16.3286 18.1473 15.7186 17.6204C12.3427 14.7049 13.3257 9.08513 17.5448 7.49038C17.7082 7.42863 17.9099 7.34594 18.0833 7.33363Z" fill="#FFF6C5"/>
<path fill-rule="evenodd" clip-rule="evenodd" d="M22.5569 11.2954C23.829 11.1438 24.2695 12.9946 22.8167 13.2598C21.446 13.3558 21.2188 11.5139 22.5569 11.2954ZM17.2437 11.3158C18.6907 11.1993 18.8445 13.0352 17.5307 13.2799C16.1075 13.3362 15.9168 11.4801 17.2437 11.3158ZM22.0108 15.7112C22.3935 15.1857 22.2262 14.427 21.5055 14.4761C21.331 14.5663 21.2019 14.7039 21.072 14.8423C20.7662 15.1681 20.4564 15.4982 19.5428 15.2237C19.2275 15.129 19.0619 14.9563 18.9089 14.7967C18.7819 14.6643 18.6636 14.5409 18.4755 14.4786C17.6576 14.6881 17.6856 15.5032 18.3111 15.973C19.3415 16.7372 21.185 16.8452 22.0108 15.7112Z" fill="url(#paint2_linear_2432_14277)"/>
<path d="M18.0833 7.33363C18.404 7.16469 18.6208 6.99126 19.0075 7.10994C19.3234 7.20688 19.6951 7.58257 19.6001 7.94294C19.4711 8.22932 19.29 8.54263 19.306 8.86451C19.3477 8.82926 19.3851 8.47969 19.5363 8.29569C20.764 6.80219 23.3238 8.94744 21.8569 10.6438C21.0266 11.6039 19.4411 11.4733 18.5418 10.6856C17.6791 9.92988 17.2613 8.26294 18.0833 7.33363Z" fill="url(#paint3_linear_2432_14277)"/>
<defs>
<linearGradient id="paint0_linear_2432_14277" x1="20.0204" y1="21.0407" x2="26.8924" y2="27.533" gradientUnits="userSpaceOnUse">
<stop stop-color="#FFA800"/>
<stop offset="1" stop-color="#E27F00"/>
</linearGradient>
<linearGradient id="paint1_linear_2432_14277" x1="20.0183" y1="4.88574" x2="28.0884" y2="12.2431" gradientUnits="userSpaceOnUse">
<stop stop-color="#FFA800"/>
<stop offset="1" stop-color="#E27F00"/>
</linearGradient>
<linearGradient id="paint2_linear_2432_14277" x1="20.0326" y1="11.2863" x2="22.6567" y2="13.8178" gradientUnits="userSpaceOnUse">
<stop stop-color="#FFA800"/>
<stop offset="1" stop-color="#E27F00"/>
</linearGradient>
<linearGradient id="paint3_linear_2432_14277" x1="19.9662" y1="7.07055" x2="22.0035" y2="8.60906" gradientUnits="userSpaceOnUse">
<stop stop-color="#FFA800"/>
<stop offset="1" stop-color="#E27F00"/>
</linearGradient>
</defs>
</svg>
