<svg width="40" height="40" viewBox="0 0 40 40" fill="none" xmlns="http://www.w3.org/2000/svg">
<path d="M17.0204 21.7063C17.8293 21.7631 18.6242 21.821 19.4366 21.8261C19.459 22.8196 19.4439 23.8162 19.444 24.81L19.4419 32.1438C19.4446 32.8264 19.618 33.7799 18.6181 33.8987C17.9727 33.9753 16.484 33.6378 15.8155 33.4645C15.1686 33.28 13.5085 32.7923 13.0524 32.3438C12.642 31.9402 13.0632 31.5137 13.3168 31.1638C15.375 28.3246 16.9862 25.3334 17.0204 21.7063Z" fill="url(#paint0_linear_2432_14283)"/>
<path d="M22.8892 21.746C23.1333 21.7135 23.0353 22.1115 23.0462 22.2847C23.2487 25.496 24.762 28.5245 26.6982 31.049C26.9221 31.341 27.1515 31.5938 27.2443 31.9562C27.0563 32.6812 25.0478 33.2038 24.3605 33.4097C23.5052 33.6652 22.4192 33.8976 21.5274 33.9122C20.4522 33.9298 20.5666 32.8475 20.5665 32.1085L20.5675 25.2359C20.5676 24.0937 20.5802 22.9502 20.5613 21.8082C21.3294 21.822 22.1255 21.822 22.8892 21.746Z" fill="url(#paint1_linear_2432_14283)"/>
<path d="M18.3508 5.92578C19.805 5.79457 19.4443 7.73097 19.4443 8.72822L19.444 17.49C19.444 18.5296 19.4597 19.5719 19.4363 20.6112C18.6398 20.5341 17.8388 20.5492 17.0403 20.5038C17.0278 19.5848 16.9863 18.682 16.8708 17.7693C16.8638 17.4302 16.7383 16.8439 16.6737 16.4965C16.1667 13.7728 15.0282 11.3374 13.4896 9.05684C13.2802 8.74653 12.9961 8.4274 12.9083 8.05803C13.154 6.93128 17.4178 6.003 18.3508 5.92578Z" fill="url(#paint2_linear_2432_14283)"/>
<path d="M21.3253 5.94267C22.6986 5.84336 24.7918 6.59097 26.0238 7.15822C27.021 7.61728 27.5102 7.82822 26.7382 8.86034C24.9878 11.2005 23.5316 14.4757 23.2047 17.425C23.0472 18.4563 23.0138 19.4884 22.9736 20.5288C22.1697 20.5517 21.3656 20.6081 20.5617 20.6126C20.5845 19.4563 20.568 18.2975 20.5681 17.1409L20.5679 8.16034C20.5673 7.43303 20.3303 6.11036 21.3253 5.94267Z" fill="url(#paint3_linear_2432_14283)"/>
<path d="M32.8231 20.6129C33.9169 20.4865 34.0056 21.3197 33.8808 22.1718C33.4695 24.9816 32.0899 27.6602 30.1655 29.7304C28.415 31.6135 28.3786 31.3966 27.0177 29.3758C25.4263 26.9987 24.3655 24.5842 24.2066 21.6984C27.0968 21.4594 29.9468 20.9502 32.8231 20.6129Z" fill="url(#paint4_linear_2432_14283)"/>
<path d="M6.91572 20.6105C8.02916 20.5492 9.99622 20.9742 11.136 21.1357C12.7093 21.3587 14.2785 21.5133 15.8587 21.6646C15.8011 24.4021 14.6714 26.9341 13.2003 29.1878C11.8795 31.2487 11.7475 31.7369 9.99129 29.8446C8.34654 28.0724 7.09635 25.9623 6.48966 23.6127C6.25741 22.7132 5.60475 20.8907 6.91572 20.6105Z" fill="url(#paint5_linear_2432_14283)"/>
<path d="M11.5418 8.89422C12.0718 8.91759 12.7851 10.223 13.0504 10.6283C15.1211 13.791 15.7562 16.8034 15.88 20.4672C14.2756 20.2835 12.6718 20.1117 11.07 19.9032C10.0517 19.7235 8.94885 19.6047 7.91372 19.4542C6.02807 19.1801 5.89482 19.0918 6.28785 17.2237C6.75791 14.9894 7.7666 12.8999 9.16116 11.0977C9.56941 10.57 10.8687 8.98072 11.5418 8.89422Z" fill="url(#paint6_linear_2432_14283)"/>
<path d="M28.4622 8.90903C29.0402 8.89915 29.8772 9.95153 30.2289 10.3423C32.1198 12.4431 33.4195 14.98 33.8574 17.7839C34.1295 19.5257 33.2523 19.3003 31.9765 19.4708C30.9926 19.6023 30.0092 19.743 29.0283 19.8951C27.4163 20.1546 25.7709 20.3413 24.1408 20.4321C24.1354 17.472 24.8807 14.4367 26.2904 11.8335C26.6412 11.1858 27.7483 9.1214 28.4622 8.90903Z" fill="url(#paint7_linear_2432_14283)"/>
<defs>
<linearGradient id="paint0_linear_2432_14283" x1="20.0007" y1="5.91776" x2="33.0074" y2="14.8219" gradientUnits="userSpaceOnUse">
<stop stop-color="#FFA800"/>
<stop offset="1" stop-color="#E27F00"/>
</linearGradient>
<linearGradient id="paint1_linear_2432_14283" x1="20.0007" y1="5.91776" x2="33.0074" y2="14.8219" gradientUnits="userSpaceOnUse">
<stop stop-color="#FFA800"/>
<stop offset="1" stop-color="#E27F00"/>
</linearGradient>
<linearGradient id="paint2_linear_2432_14283" x1="20.0007" y1="5.91776" x2="33.0074" y2="14.8219" gradientUnits="userSpaceOnUse">
<stop stop-color="#FFA800"/>
<stop offset="1" stop-color="#E27F00"/>
</linearGradient>
<linearGradient id="paint3_linear_2432_14283" x1="20.0007" y1="5.91776" x2="33.0074" y2="14.8219" gradientUnits="userSpaceOnUse">
<stop stop-color="#FFA800"/>
<stop offset="1" stop-color="#E27F00"/>
</linearGradient>
<linearGradient id="paint4_linear_2432_14283" x1="20.0007" y1="5.91776" x2="33.0074" y2="14.8219" gradientUnits="userSpaceOnUse">
<stop stop-color="#FFA800"/>
<stop offset="1" stop-color="#E27F00"/>
</linearGradient>
<linearGradient id="paint5_linear_2432_14283" x1="20.0007" y1="5.91776" x2="33.0074" y2="14.8219" gradientUnits="userSpaceOnUse">
<stop stop-color="#FFA800"/>
<stop offset="1" stop-color="#E27F00"/>
</linearGradient>
<linearGradient id="paint6_linear_2432_14283" x1="20.0007" y1="5.91776" x2="33.0074" y2="14.8219" gradientUnits="userSpaceOnUse">
<stop stop-color="#FFA800"/>
<stop offset="1" stop-color="#E27F00"/>
</linearGradient>
<linearGradient id="paint7_linear_2432_14283" x1="20.0007" y1="5.91776" x2="33.0074" y2="14.8219" gradientUnits="userSpaceOnUse">
<stop stop-color="#FFA800"/>
<stop offset="1" stop-color="#E27F00"/>
</linearGradient>
</defs>
</svg>
