<svg width="40" height="40" viewBox="0 0 40 40" fill="none" xmlns="http://www.w3.org/2000/svg">
<path d="M18.2236 29.8142C19.5466 29.8001 19.1693 30.7901 19.1604 31.7723L19.1592 33.5789C19.1594 34.0339 19.2961 34.641 18.8525 34.9324C17.8402 35.5974 17.37 34.1152 16.9995 33.4749C16.8833 33.7115 16.7879 33.9609 16.687 34.2046C16.5268 34.5615 16.3271 35.0405 15.8831 35.0937C14.9056 35.2109 14.9741 34.1677 14.9738 33.5555L14.9748 31.1573C14.9756 30.695 14.9166 30.0208 15.4972 29.8711C16.0335 29.7328 17.5678 29.8519 18.2236 29.8142Z" fill="url(#paint0_linear_2432_14293)"/>
<path d="M28.4192 27.4317C29.0505 27.4565 30.596 27.3069 31.0386 27.6599C31.7044 28.1911 31.2529 29.0292 30.3483 29.1191C30.1813 30.1349 29.7406 30.7904 30.2544 32.0124C30.5402 32.0468 30.8171 31.9968 31.0453 32.2174C31.3958 32.556 31.4485 33.0922 31.0853 33.4416C30.639 33.8709 29.6111 33.7317 29.0433 33.7317L22.5733 33.7314C21.7103 33.7315 20.8452 33.745 19.9826 33.7184C19.9347 33.1684 19.964 32.5977 19.9552 32.0445L27.6232 32.0427C27.9225 32.0397 28.2196 32.0258 28.5193 32.0309C28.4955 31.6397 28.4533 31.2574 28.4471 30.8641C28.4458 30.2609 28.4752 29.7137 28.6144 29.124C28.1145 29.0796 27.6067 29.098 27.1051 29.0982L15.1708 29.099C14.6002 29.102 13.7898 29.2382 13.3211 28.8257C12.8191 28.3839 13.1387 27.5873 13.7634 27.5158C14.2336 27.462 14.7354 27.4872 15.2098 27.4825L28.4192 27.4317Z" fill="url(#paint1_linear_2432_14293)"/>
<path d="M11.6661 5.98362C11.9975 5.95131 12.324 5.98798 12.6554 5.99741C12.5974 6.80123 12.6372 7.63079 12.6372 8.43761L12.6371 26.9184C11.1355 27.7429 10.0847 30.1341 11.4802 31.5082C12.2066 32.2236 13.2796 32.1113 14.2145 32.1092C14.2209 32.6507 14.219 33.1917 14.1978 33.733L13.5476 33.7488C13.2388 33.7273 12.9316 33.7492 12.6231 33.7359C10.9533 33.6633 9.39995 32.5754 9.21658 30.8219C9.16795 30.357 9.19627 29.8768 9.1977 29.4101L9.19839 9.63286C9.19695 9.26136 9.16027 8.88917 9.19683 8.51886C9.32433 7.22748 10.3548 6.11752 11.6661 5.98362Z" fill="url(#paint2_linear_2432_14293)"/>
<path d="M13.4438 5.95561C14.7843 5.98363 16.1286 5.96317 17.4697 5.96319L27.4455 5.96229C27.9275 5.96151 28.4163 5.94411 28.8975 5.96434C30.0446 6.01256 31.102 6.86479 31.2523 8.03086C31.2981 8.38598 31.2879 8.75317 31.2876 9.11079L31.2877 25.4465C31.2877 25.972 31.3 26.5007 31.2726 27.0255C31.2247 27.0659 30.7798 26.9113 30.6836 26.8942C29.8407 26.744 28.7796 26.7955 27.9156 26.7959L14.9066 26.7957C14.4239 26.7957 13.939 26.7874 13.4567 26.8095L13.4566 8.42954C13.4566 7.60717 13.48 6.77704 13.4438 5.95561ZM21.914 12.3305C20.7262 12.5182 20.5851 14.3474 19.875 14.974C19.3227 15.4614 16.3443 14.917 16.7003 16.726C16.9518 18.0039 18.7933 18.064 18.5561 19.6512L18.4089 20.6028C18.3042 21.2597 18.1938 21.8551 18.8495 22.2746C19.9531 22.9807 21.4148 21.2567 22.0765 21.4345C22.9277 21.7176 24.226 22.7704 25.0881 22.3304C26.2256 21.7499 25.4125 20.0727 25.4083 19.0274C25.8263 18.2755 27.0172 17.5656 27.2865 16.9182C27.4978 16.4101 27.2207 15.7912 26.7507 15.54C26.0577 15.1697 24.9136 15.3691 24.2653 15.073C23.4383 14.6952 23.1788 12.2202 21.914 12.3305Z" fill="url(#paint3_linear_2432_14293)"/>
<defs>
<linearGradient id="paint0_linear_2432_14293" x1="20.2563" y1="5.95284" x2="32.2034" y2="12.2149" gradientUnits="userSpaceOnUse">
<stop stop-color="#FFA800"/>
<stop offset="1" stop-color="#E27F00"/>
</linearGradient>
<linearGradient id="paint1_linear_2432_14293" x1="20.2563" y1="5.95284" x2="32.2034" y2="12.2149" gradientUnits="userSpaceOnUse">
<stop stop-color="#FFA800"/>
<stop offset="1" stop-color="#E27F00"/>
</linearGradient>
<linearGradient id="paint2_linear_2432_14293" x1="20.2563" y1="5.95284" x2="32.2034" y2="12.2149" gradientUnits="userSpaceOnUse">
<stop stop-color="#FFA800"/>
<stop offset="1" stop-color="#E27F00"/>
</linearGradient>
<linearGradient id="paint3_linear_2432_14293" x1="20.2563" y1="5.95284" x2="32.2034" y2="12.2149" gradientUnits="userSpaceOnUse">
<stop stop-color="#FFA800"/>
<stop offset="1" stop-color="#E27F00"/>
</linearGradient>
</defs>
</svg>
