<svg width="40" height="40" viewBox="0 0 40 40" fill="none" xmlns="http://www.w3.org/2000/svg">
<path d="M21.7547 7.76318C23.2895 7.89481 24.5545 7.55518 26.0739 8.14075C28.1619 8.94556 28.7955 10.2793 29.7349 12.2111L30.3526 13.4847C30.4854 13.7544 30.6287 14.0204 30.75 14.2956L32.7455 14.2957C33.0415 14.2951 33.3719 14.2537 33.663 14.3039C34.3654 14.4249 34.5762 15.2791 34.1321 15.7809C33.7046 16.2641 32.2439 16.0809 31.5655 16.1114C31.6959 16.3936 31.856 16.667 32.0019 16.9417L33.0146 18.8262C33.8765 20.4071 34.4004 21.3467 34.4012 23.1535C34.4017 24.3311 34.2687 25.4752 33.5927 26.4674C33.2256 27.0062 32.5237 27.7679 31.9033 28.0201C32.0602 28.7647 32.2141 29.4787 31.9273 30.2137C30.6032 33.6079 25.3069 31.758 26.7833 28.0841C26.347 28.0359 25.9076 28.0482 25.4694 28.0487L18.1543 28.0486L15.1582 28.0492C14.5425 28.0491 13.9247 28.0385 13.3094 28.0594C13.7874 29.6386 13.3964 31.1254 11.7776 31.8073C9.49661 32.7683 7.22586 30.4273 8.20104 28.0841C6.31629 27.0396 5.66712 25.3865 5.66119 23.3672C5.6546 21.1244 6.23663 20.3612 7.26698 18.5025C7.71223 17.6993 8.14179 16.8912 8.60336 16.0971C7.95048 16.0769 6.43729 16.2569 5.97602 15.8521C5.62148 15.541 5.55047 14.9267 5.88499 14.5746C6.25667 14.1833 6.90398 14.2956 7.38623 14.2961L9.21367 14.2931C9.38017 14.039 9.51286 13.7522 9.65611 13.4837L10.5963 11.6938C10.9785 10.9627 11.3471 10.1808 11.9065 9.56681C13.5525 7.75993 15.2466 7.78218 17.4679 7.78206L19.9303 7.78268C20.5387 7.78293 21.1467 7.79 21.7547 7.76318Z" fill="url(#paint0_linear_2432_14289)"/>
<path d="M16.9715 22.3727C18.5012 22.3458 20.0357 22.3686 21.5658 22.3685L23.3507 22.3681C24.2578 22.3682 25.142 22.0818 25.38 23.1001C25.1813 23.7448 24.6612 23.6651 24.0834 23.664L23.0223 23.6601C21.3077 23.6832 19.59 23.6626 17.8752 23.6627L16.1955 23.6642C15.8797 23.6652 15.5484 23.6871 15.2345 23.6542C14.7194 23.6001 14.4679 22.9977 14.8538 22.6101C15.2517 22.2104 16.4516 22.3684 16.9715 22.3727Z" fill="#FFF6C5"/>
<path d="M29.1091 20.2223C31.7878 19.9361 32.2923 24.2071 29.3798 24.4624C26.6954 24.7849 26.1562 20.5196 29.1091 20.2223Z" fill="#FFF6C5"/>
<path d="M10.9255 20.2223C13.6042 19.9361 14.1087 24.2071 11.1962 24.4624C8.51185 24.7849 7.9726 20.5196 10.9255 20.2223Z" fill="#FFF6C5"/>
<path d="M16.4259 9.71557C16.9271 9.69732 17.4344 9.71238 17.9363 9.71238L22.7674 9.71188C23.4105 9.71226 24.1374 9.68563 24.7653 9.81976C26.9428 10.2851 27.5433 12.2028 28.3958 13.9728C28.6189 14.4359 29.2698 15.2138 28.8144 15.6926C28.4436 16.0824 27.2523 15.9373 26.7638 15.9373C25.7151 15.9373 24.6643 15.9224 23.6158 15.9429C22.7177 15.9232 21.817 15.9387 20.9186 15.9368L12.6684 15.9371C12.3538 15.9373 11.5478 16.0347 11.2878 15.8334C10.7094 15.3858 11.4586 14.3677 11.6867 13.8969C12.1671 12.9055 12.6033 11.7763 13.3474 10.9451C14.291 9.89126 15.0989 9.78801 16.4259 9.71557Z" fill="#FFF6C5"/>
<defs>
<linearGradient id="paint0_linear_2432_14289" x1="20.0152" y1="7.76173" x2="31.8633" y2="17.4298" gradientUnits="userSpaceOnUse">
<stop stop-color="#FFA800"/>
<stop offset="1" stop-color="#E27F00"/>
</linearGradient>
</defs>
</svg>
