<svg width="40" height="40" viewBox="0 0 40 40" fill="none" xmlns="http://www.w3.org/2000/svg">
<path d="M19.9755 5.32042C21.5114 5.26005 21.021 7.73957 21.0975 8.84707C21.8951 8.30401 22.9213 6.58638 23.8088 6.52163C24.6055 6.46351 25.1557 7.42607 24.767 8.09751C24.4413 8.66001 23.825 9.16719 23.3702 9.63644C22.7494 10.2771 22.148 10.9291 21.5163 11.5601C21.0621 12.0139 20.7371 12.5136 20.044 12.5254C19.2125 12.5165 18.2705 11.3337 17.7448 10.7776L15.8522 8.80613C15.5688 8.51113 15.2135 8.20201 15.1636 7.77026C15.0934 7.16251 15.5345 6.55119 16.1648 6.51807C16.9051 6.47913 18.3252 8.36776 18.9648 8.93332C18.9759 8.39901 18.9695 7.86344 18.9698 7.32894C18.9703 6.51782 18.8809 5.41807 19.9755 5.32042Z" fill="url(#paint0_linear_2432_14288)"/>
<path d="M16.6851 13.119C17.5632 13.4017 19.0701 13.6488 19.8267 13.997C20.5121 14.3124 20.4503 15.4315 20.4914 16.0615C20.7037 19.3082 20.7688 23.6285 17.6747 25.6189C16.4433 26.411 14.4018 26.8846 12.9316 26.5652C12.6944 27.2605 12.5276 27.9864 12.337 28.6961C12.1344 29.4505 11.6719 30.4911 11.998 31.2474C12.5319 32.4858 13.8231 31.9897 14.4256 32.9024C14.9261 33.6606 14.3259 34.7397 13.4239 34.6859C12.4153 34.6257 10.1729 33.8416 9.07358 33.5833C8.32966 33.3498 7.55958 33.2002 6.81514 32.9711C5.88218 32.6839 5.63136 31.5589 6.37684 30.9508C7.21646 30.2659 8.12747 31.146 9.0404 30.7096C9.94569 30.2769 9.98437 29.4404 10.2197 28.5611C10.4453 27.7186 10.6426 26.8548 10.9274 26.0306C9.64251 25.4875 8.58844 24.6448 7.80969 23.4858C5.5443 20.1145 7.93937 16.0159 9.91806 13.136C11.1323 11.3688 11.0976 11.634 13.0013 12.1442L15.2561 12.7494C15.7308 12.8768 16.2048 13.0145 16.6851 13.119Z" fill="url(#paint1_linear_2432_14288)"/>
<path d="M28.0596 11.8632C29.1467 11.4864 29.4925 12.2039 30.0559 13.0103C31.7859 15.4864 34.015 19.2307 32.8551 22.3051C32.1926 24.0611 30.819 25.2789 29.1447 26.0418C29.2603 26.7098 29.4815 27.3804 29.657 28.0354C29.8981 28.9347 29.9821 30.1611 30.8365 30.6455C32.044 31.33 33.0727 29.9903 33.9337 31.2455C34.2651 31.7285 34.1068 32.4716 33.6141 32.7846C33.2544 33.0131 32.0149 33.2969 31.5601 33.4187L27.6674 34.463C27.2379 34.5802 26.7539 34.7829 26.3023 34.6853C25.6177 34.5139 25.2247 33.6937 25.5207 33.0522C25.9583 32.1034 27.3076 32.4877 27.9144 31.4368C28.3433 30.694 27.9549 29.8218 27.7533 29.071L27.0938 26.6167C25.4516 26.563 24.7529 26.8368 23.0176 25.9762C19.2637 24.1144 19.3411 19.5979 19.5822 15.9927C19.7 14.2318 19.5408 14.1586 21.3181 13.6817L26.0014 12.427C26.6876 12.2433 27.381 12.073 28.0596 11.8632Z" fill="url(#paint2_linear_2432_14288)"/>
<defs>
<linearGradient id="paint0_linear_2432_14288" x1="20.0201" y1="5.3189" x2="23.6024" y2="8.65432" gradientUnits="userSpaceOnUse">
<stop stop-color="#FFA800"/>
<stop offset="1" stop-color="#E27F00"/>
</linearGradient>
<linearGradient id="paint1_linear_2432_14288" x1="15.6479" y1="12.8125" x2="22.3471" y2="18.0546" gradientUnits="userSpaceOnUse">
<stop stop-color="#FFA800"/>
<stop offset="1" stop-color="#E27F00"/>
</linearGradient>
<linearGradient id="paint2_linear_2432_14288" x1="24.3983" y1="12.8367" x2="32.8174" y2="14.0345" gradientUnits="userSpaceOnUse">
<stop stop-color="#FFA800"/>
<stop offset="1" stop-color="#E27F00"/>
</linearGradient>
</defs>
</svg>
