<svg width="40" height="40" viewBox="0 0 40 40" fill="none" xmlns="http://www.w3.org/2000/svg">
<path fill-rule="evenodd" clip-rule="evenodd" d="M17.2967 6.48074C17.0607 6.4774 16.8199 6.474 16.5905 6.50742C16.0224 6.56873 15.4382 7.08973 15.51 7.70123C15.555 8.08514 16.0093 8.47513 16.3393 8.75842C16.4011 8.81152 16.4586 8.86087 16.5082 8.90573L17.5027 9.80742C17.6445 9.93806 17.7948 10.0912 17.9527 10.2521C18.7647 11.0794 19.7775 12.1112 20.8661 11.3387C21.102 11.1713 21.3198 10.9675 21.5341 10.767C21.5979 10.7073 21.6615 10.6479 21.7251 10.5898L23.1023 9.32673C23.2154 9.22265 23.3448 9.11267 23.4785 8.99906C23.7886 8.73564 24.1216 8.4527 24.327 8.17842C24.7922 7.55717 24.3764 6.65855 23.6223 6.52698C23.3605 6.43341 22.7278 6.45596 22.2652 6.47245C22.1166 6.47775 21.9855 6.48242 21.8899 6.48242L17.5098 6.48273C17.4395 6.48276 17.3683 6.48176 17.2967 6.48074ZM29.7181 10.9323C29.5835 10.8088 29.4452 10.6818 29.2991 10.5876L29.2991 10.5876C29.2155 10.474 29.012 10.3152 28.8436 10.1838C28.7781 10.1327 28.7179 10.0857 28.6721 10.0471C28.5689 9.96011 28.4696 9.87417 28.3725 9.79015C27.7318 9.2357 27.188 8.76509 26.2572 8.62549C26.0727 8.59781 25.9313 8.58368 25.8171 8.58374C25.5044 8.5839 25.3951 8.69044 25.1628 8.91687L25.1627 8.9169L25.1627 8.91697C25.0971 8.98088 25.0217 9.05435 24.9292 9.13768C24.2967 9.7073 23.6694 10.282 23.0496 10.8656C22.9301 10.9781 22.8096 11.0973 22.6872 11.2185C22.0676 11.8316 21.3961 12.4961 20.5243 12.6166L20.4948 18.8424C20.4948 19.1443 20.4917 19.4475 20.4887 19.7512V19.7513V19.7513C20.4812 20.4942 20.4738 21.2401 20.5109 21.9776C20.4816 22.4371 20.4864 22.9027 20.4911 23.3662V23.3662C20.4929 23.5399 20.4947 23.7133 20.4947 23.8859L20.5393 29.8046C20.5395 29.8567 20.5405 29.9092 20.5414 29.9618C20.549 30.3925 20.5568 30.8349 20.2058 31.1513C19.3439 31.9283 17.6851 30.9236 18.4696 30.2959C18.7533 30.069 19.1057 30.3243 19.3522 30.5029L19.3523 30.5029C19.3726 30.5176 19.3921 30.5318 19.4109 30.5452C19.4935 30.4936 19.551 30.4421 19.6167 30.3708C19.6752 30.0225 19.6567 29.664 19.6381 29.3046C19.624 29.0324 19.6099 28.7595 19.6292 28.4902C19.5818 28.4099 19.5963 26.853 19.6039 26.0435V26.0434V26.0434V26.0433L19.6039 26.0431L19.604 26.0432V26.0433V26.0433V26.0434C19.5964 26.8528 19.5819 28.4098 19.6293 28.4901C19.6635 28.3272 19.6501 27.9402 19.6394 27.6295C19.6351 27.5054 19.6312 27.3935 19.631 27.313L19.5749 12.6258C18.5932 12.4904 17.1028 11.0178 16.0818 10.0091C15.8519 9.78204 15.6459 9.57847 15.4748 9.41895C15.4096 9.3582 15.3407 9.28663 15.2682 9.21147C15.0052 8.93849 14.6964 8.61796 14.3567 8.59508C13.1034 8.51059 12.028 9.46556 11.1065 10.2838C10.9837 10.3929 10.8635 10.4996 10.7461 10.6011C10.8559 10.6152 11.0547 10.4155 11.2338 10.2355C11.3774 10.0913 11.5083 9.95968 11.5708 9.96101L11.577 9.9989L11.5769 9.99905L11.5707 9.96111C11.5082 9.95978 11.3773 10.0914 11.2337 10.2356C11.0546 10.4156 10.8559 10.6153 10.746 10.6012L5.92751 14.6777C4.36367 15.9855 4.85587 16.5171 5.85028 17.5911C6.02888 17.784 6.22369 17.9944 6.4257 18.23C6.64297 18.4833 6.85469 18.7407 7.06634 18.998L7.06636 18.9981C7.40867 19.4142 7.75082 19.8302 8.11601 20.2285C9.0492 21.2463 9.8258 20.2854 10.5682 19.3668C10.9613 18.8804 11.3448 18.4059 11.7368 18.2432L11.7386 18.2735C11.771 18.8876 11.7194 19.5583 11.6716 20.1815L11.6716 20.1815L11.6596 20.3383L10.9744 29.5995C10.9668 29.6968 10.9579 29.7986 10.9487 29.9035C10.9023 30.4325 10.8492 31.0377 10.9238 31.5199C11.2413 33.5725 13.0358 33.5634 14.5824 33.5555H14.5827C14.6735 33.555 14.7634 33.5546 14.8521 33.5546L25.6156 33.5547C28.0434 33.5589 29.2964 33.0276 29.1284 30.382L28.4983 21.6993C28.4928 21.6221 28.476 21.4558 28.4539 21.2363C28.3632 20.3347 28.182 18.5356 28.3193 18.3271C28.4583 18.1159 29.1231 18.9219 29.2975 19.1334L29.327 19.1691C29.4499 19.3155 29.5639 19.4553 29.671 19.5866L29.671 19.5866C30.6479 20.7841 31.051 21.2783 32.3604 19.7474L33.3758 18.5446C33.4513 18.4552 33.5534 18.3407 33.6705 18.2093L33.6706 18.2092L33.6707 18.2091L33.6707 18.2091C34.225 17.5872 35.1164 16.587 35.1363 16.0817C35.1617 15.4333 34.398 14.8507 33.8226 14.4117C33.6874 14.3085 33.5625 14.2133 33.4608 14.127L29.8851 11.0827C29.8299 11.035 29.7744 10.984 29.7182 10.9324L29.7182 10.9324L29.7181 10.9323L29.7181 10.9323ZM19.6039 26.0431L19.604 26.043C19.6061 25.815 19.6077 25.6463 19.6072 25.5868L19.5625 20.0528C19.5632 19.5884 19.5427 18.4548 19.0087 18.2643L19.0086 18.2644C19.5426 18.455 19.5631 19.5885 19.5624 20.0529L19.6071 25.5869C19.6076 25.6464 19.606 25.8151 19.6039 26.0431ZM11.5892 9.97346C11.5941 9.98363 11.5996 9.9942 11.6053 10.0051C11.6291 10.0508 11.6556 10.1018 11.654 10.1502L11.6541 10.1503L11.6541 10.1505C11.7604 10.255 11.9799 10.6899 12.2106 11.1469L12.2106 11.1469C12.4667 11.6541 12.7365 12.1885 12.8804 12.3286C13.1428 12.5839 13.5509 13.0381 13.7846 13.3117C13.9126 13.4616 14.0175 13.5919 14.1131 13.7105C14.4084 14.0771 14.6146 14.3331 15.1364 14.7158C15.4693 14.9599 15.6873 15.1619 15.9318 15.3883L15.9318 15.3883L15.9319 15.3884C16.0506 15.4984 16.1757 15.6142 16.3231 15.7434C16.4339 15.8404 16.5527 15.9311 16.6715 16.0218L16.6715 16.0218L16.6715 16.0218L16.6716 16.0219C16.8335 16.1454 16.9955 16.2691 17.1377 16.4092C17.2398 16.5097 17.3327 16.6207 17.4255 16.7317L17.4255 16.7317L17.4255 16.7317C17.5278 16.8539 17.63 16.9761 17.7443 17.0839C17.8379 17.1722 17.9463 17.2461 18.055 17.3201C18.1548 17.3881 18.2549 17.4563 18.3439 17.5359C18.414 17.5987 18.4616 17.6901 18.509 17.7812C18.5452 17.8506 18.5813 17.9199 18.6272 17.9762C18.6771 18.0374 18.7365 18.0896 18.7961 18.1419L18.7961 18.1419L18.7961 18.1419C18.8602 18.1982 18.9246 18.2547 18.9774 18.3227L19.0035 18.3139L19.0035 18.3138L18.9775 18.3226C18.9246 18.2546 18.8603 18.1981 18.7962 18.1418L18.7962 18.1418L18.7962 18.1418C18.7366 18.0895 18.6771 18.0373 18.6273 17.9761C18.5813 17.9198 18.5453 17.8505 18.5091 17.7811L18.5091 17.7811C18.4617 17.69 18.4141 17.5986 18.344 17.5358C18.255 17.4562 18.1549 17.388 18.0551 17.32C17.9464 17.246 17.838 17.1721 17.7444 17.0838C17.6301 16.976 17.5279 16.8538 17.4256 16.7316L17.4256 16.7316L17.4256 16.7315C17.3328 16.6206 17.2399 16.5096 17.1378 16.4091C16.9956 16.269 16.8335 16.1453 16.6716 16.0217C16.5528 15.931 16.434 15.8404 16.3232 15.7433C16.1757 15.6141 16.0507 15.4983 15.9319 15.3883L15.9319 15.3882L15.9318 15.3882C15.6874 15.1618 15.4694 14.9598 15.1365 14.7157C14.6147 14.333 14.4084 14.077 14.1132 13.7104C14.0176 13.5918 13.9127 13.4615 13.7847 13.3116C13.551 13.038 13.1428 12.5838 12.8805 12.3285C12.7366 12.1884 12.4668 11.654 12.2107 11.1468C11.98 10.6897 11.7603 10.2547 11.6541 10.1503C11.6558 10.1018 11.6292 10.0508 11.6054 10.005L11.6054 10.005L11.6054 10.005C11.5997 9.99409 11.5942 9.98351 11.5893 9.97333L11.5892 9.97346Z" fill="url(#paint0_linear_2432_14275)"/>
<path d="M18.6762 27.8306C19.357 27.8532 19.3068 28.8284 18.6865 28.8536C18.3596 28.8379 18.2295 28.6986 18.1309 28.3888C18.2191 28.0778 18.3546 27.9295 18.6762 27.8306Z" fill="#FFF6C5"/>
<path d="M22.0552 19.6164C22.0015 18.5857 21.8529 16.7174 22.5644 15.9683C23.3139 15.1792 24.4275 15.3183 25.1677 16.0371C25.8182 16.8938 25.7286 18.5916 25.5887 19.5861C25.3219 21.4836 22.6154 21.6049 22.1167 19.8674C22.0953 19.7929 22.0889 19.6833 22.0552 19.6164Z" fill="#FFF6C5"/>
<defs>
<linearGradient id="paint0_linear_2432_14275" x1="20.0134" y1="6.4559" x2="33.0629" y2="16.4797" gradientUnits="userSpaceOnUse">
<stop stop-color="#FFA800"/>
<stop offset="1" stop-color="#E27F00"/>
</linearGradient>
</defs>
</svg>
