<svg width="40" height="40" viewBox="0 0 40 40" fill="none" xmlns="http://www.w3.org/2000/svg">
<path d="M6.35416 10.2643C6.43135 9.72801 6.91585 9.17995 7.33298 8.86751C8.20054 8.21776 9.17991 8.30095 10.2041 8.30132H30.2253C30.6441 8.30151 31.0887 8.27032 31.5023 8.33088C32.5727 8.48757 33.6533 9.42507 33.7204 10.552C33.5386 10.4563 33.3532 9.89476 33.206 9.69745C32.3822 8.59332 31.2635 8.6942 30.0597 8.69438L13.5475 8.69526C11.9852 8.6952 10.4164 8.66263 8.85623 8.74901C7.8511 8.8047 7.18179 9.21276 6.61154 10.0554C6.53304 10.1714 6.46316 10.3183 6.37916 10.4225L6.35254 10.3956C6.36748 10.3474 6.36379 10.3119 6.35416 10.2643Z" fill="#FFED85"/>
<path d="M29.9499 23.8079C30.1981 23.7448 30.5898 23.7809 30.8536 23.7799L32.7807 23.7825C33.1231 23.7838 33.4731 23.8018 33.8146 23.7792C33.8027 25.0883 34.0009 26.2888 32.9746 27.3044C31.9689 28.2997 30.6909 28.1141 29.3889 28.1137L26.7976 28.1111C26.6966 28.1101 26.5956 28.1078 26.4946 28.105C26.9994 27.9453 26.6589 28.1708 27.1968 27.8436C27.9136 27.4074 28.5409 27.1539 29.2764 26.6163C29.7226 26.2901 32.3341 24.2823 32.0412 23.8182C31.3491 23.8194 30.6391 23.8494 29.9499 23.8079Z" fill="#FFED85"/>
<path d="M6.23254 23.6865C6.26425 23.9338 6.53132 23.8229 6.72032 23.8225L27.8699 23.8253C28.5567 23.8256 29.2657 23.8618 29.9502 23.8078C30.6394 23.8493 31.3494 23.8194 32.0415 23.8181C32.3344 24.2823 29.7229 26.2901 29.2768 26.6163C28.5412 27.1539 27.9139 27.4074 27.1971 27.8435C26.6593 28.1708 26.9997 27.9453 26.4949 28.105C26.2328 28.1381 25.9414 28.1138 25.6754 28.1137L23.9945 28.1093C23.6644 28.1278 23.3329 28.111 23.0023 28.1276C23.0136 28.2717 23.0291 28.4137 23.0501 28.5567C22.7534 28.6183 22.4265 28.5927 22.125 28.5924L21.0456 28.5957C19.6909 28.5963 18.331 28.6228 16.9774 28.5748C17.0279 28.4525 17.0417 28.2743 17.0688 28.1425C16.9676 28.1426 16.8703 28.1373 16.7696 28.1275C14.3391 27.9694 11.5649 28.1446 9.0935 28.1161C8.30994 28.1071 7.58925 27.8525 7.03706 27.2851C6.05036 26.2713 6.21662 24.98 6.23254 23.6865Z" fill="#FFED85"/>
<path d="M19.9606 25.4147C20.6421 25.403 20.7809 26.2346 20.0889 26.47C19.3407 26.5659 19.2087 25.5745 19.9606 25.4147Z" fill="url(#paint0_linear_2432_14286)"/>
<path fill-rule="evenodd" clip-rule="evenodd" d="M17.6522 28.1114C17.3578 28.1099 17.0622 28.1084 16.7692 28.1274C16.8699 28.1372 16.9672 28.1425 17.0684 28.1424C17.0599 28.1835 17.0528 28.2292 17.0454 28.2763C17.0291 28.38 17.0118 28.4906 16.977 28.5747C17.9808 28.6103 18.9881 28.6049 19.9941 28.5995C20.3447 28.5976 20.6951 28.5957 21.0452 28.5956L22.1246 28.5923C22.1917 28.5924 22.2601 28.5937 22.3291 28.595C22.5702 28.5997 22.8191 28.6045 23.0497 28.5566C23.0287 28.4136 23.0132 28.2716 23.0019 28.1275C23.1628 28.1194 23.324 28.1192 23.4851 28.1191C23.655 28.1189 23.8247 28.1187 23.9941 28.1092C23.0548 28.0992 22.1145 28.1034 21.1744 28.1077C20.648 28.11 20.1215 28.1124 19.5954 28.1123L17.8956 28.1122C17.8146 28.1122 17.7334 28.1118 17.6522 28.1114ZM16.9771 28.5747C17.9808 28.6103 18.9881 28.6049 19.9941 28.5995L19.9941 28.5995C20.3447 28.5976 20.6951 28.5958 21.0452 28.5956L22.1246 28.5923C22.1917 28.5924 22.2601 28.5937 22.3292 28.595C22.5702 28.5997 22.8191 28.6045 23.0497 28.5566C23.1854 29.278 23.4397 30.7606 23.4424 31.4795L23.4423 31.4795C23.6241 31.5 23.8263 31.491 24.0333 31.4818C24.4643 31.4626 24.9155 31.4425 25.2435 31.6859C25.5904 31.9434 25.6824 32.4515 25.4097 32.7968C25.1086 33.1782 24.2774 33.1361 23.6892 33.1063C23.5512 33.0994 23.4265 33.0931 23.3252 33.0931L17.0962 33.0927C16.988 33.0927 16.85 33.0997 16.6941 33.1077C15.8656 33.1501 14.5311 33.2185 14.4786 32.3885C14.4193 31.4506 15.4128 31.4841 16.101 31.5072C16.4052 31.5175 16.6497 31.5257 16.7174 31.4472C16.7439 31.4687 16.8319 31.48 16.9449 31.4854C16.8319 31.48 16.7439 31.4687 16.7175 31.4472C16.653 31.1198 16.7674 30.2657 16.8649 29.5376L16.8649 29.5375C16.9172 29.1466 16.9647 28.792 16.9771 28.5747Z" fill="url(#paint1_linear_2432_14286)"/>
<path d="M6.35434 10.2641C6.36396 10.3117 6.36765 10.3472 6.35271 10.3954L6.37934 10.4223C6.46334 10.318 6.53321 10.1712 6.61171 10.0552C7.18196 9.21253 7.85128 8.80447 8.8564 8.74878C10.4165 8.66241 11.9853 8.69497 13.5477 8.69503L30.0599 8.69416C31.2637 8.69397 32.3823 8.5931 33.2062 9.69722C33.3533 9.89453 33.5388 10.456 33.7206 10.5518C33.8493 11.1773 33.8118 11.8255 33.8117 12.461L33.811 20.5539C33.811 21.6287 33.8005 22.7045 33.8148 23.7792C33.4733 23.8018 33.1233 23.7837 32.7809 23.7825L30.8538 23.7798C30.59 23.7809 30.1983 23.7447 29.9501 23.8078C29.2656 23.8618 28.5566 23.8257 27.8698 23.8253L6.72021 23.8225C6.53121 23.8229 6.26415 23.9338 6.23244 23.6865C6.1828 22.9085 6.21016 22.1166 6.21013 21.3368L6.20941 12.11C6.2068 11.4778 6.18003 10.8815 6.35434 10.2641Z" fill="url(#paint2_linear_2432_14286)"/>
<defs>
<linearGradient id="paint0_linear_2432_14286" x1="20.0007" y1="25.4145" x2="20.4992" y2="25.7659" gradientUnits="userSpaceOnUse">
<stop stop-color="#FFA800"/>
<stop offset="1" stop-color="#E27F00"/>
</linearGradient>
<linearGradient id="paint1_linear_2432_14286" x1="20.0163" y1="28.1027" x2="22.317" y2="31.6003" gradientUnits="userSpaceOnUse">
<stop stop-color="#FFA800"/>
<stop offset="1" stop-color="#E27F00"/>
</linearGradient>
<linearGradient id="paint2_linear_2432_14286" x1="19.9944" y1="8.68806" x2="27.3587" y2="17.9306" gradientUnits="userSpaceOnUse">
<stop stop-color="#FFA800"/>
<stop offset="1" stop-color="#E27F00"/>
</linearGradient>
</defs>
</svg>
