<svg width="24" height="24" viewBox="0 0 24 24" fill="none" xmlns="http://www.w3.org/2000/svg">
<path d="M15.7648 3.6599L14.0614 5.36331L18.6367 9.9386L20.3401 8.23519C21.22 7.35532 21.22 5.92994 20.3401 5.05008L18.9534 3.6599C18.0736 2.78003 16.6482 2.78003 15.7683 3.6599H15.7648ZM13.266 6.15871L5.06216 14.3661C4.69613 14.7321 4.42865 15.1861 4.28084 15.6823L3.03495 19.9163C2.94696 20.2154 3.02791 20.5357 3.24612 20.7539C3.46432 20.9721 3.78459 21.053 4.08023 20.9686L8.31413 19.7227C8.81037 19.5749 9.26438 19.3074 9.63041 18.9414L17.8413 10.734L13.266 6.15871Z" fill="url(#paint0_linear_2246_3230)"/>
<defs>
<linearGradient id="paint0_linear_2246_3230" x1="11.99" y1="2.99892" x2="20.3731" y2="8.774" gradientUnits="userSpaceOnUse">
<stop stop-color="#FFA800"/>
<stop offset="1" stop-color="#E27F00"/>
</linearGradient>
</defs>
</svg>
