<svg width="40" height="40" viewBox="0 0 40 40" fill="none" xmlns="http://www.w3.org/2000/svg">
<path d="M19.8432 11.3172C19.4542 11.3339 19.416 10.6046 19.4534 10.3234C19.3316 10.054 19.5377 10.0293 19.6927 9.8509L19.73 9.8524C19.7551 9.83033 20.0282 9.84902 20.0372 9.8524C19.5973 10.0455 19.2909 10.4515 19.5109 10.9338C19.6099 11.1509 19.7166 11.163 19.8432 11.3172Z" fill="#FFCA1B"/>
<path d="M15.645 13.1595C15.1345 12.9338 15.3834 12.4615 15.3797 12.211C15.3789 12.1557 15.341 12.0895 15.3566 12.0358C15.4271 11.7914 16.5759 11.3842 16.9312 12.2295C16.9944 12.3797 17.0182 12.5346 16.9541 12.6865C16.9751 10.9086 14.4779 11.9688 15.645 13.1595Z" fill="#FFCA1B"/>
<path d="M31.3279 27.7635C32.7963 27.6984 32.2024 28.8222 31.6568 29.622C29.9424 32.135 27.7573 32.065 25.1293 32.0649L13.6294 32.0657C12.0392 32.066 11.0561 31.9885 9.6896 31.0406C9.15259 30.6294 7.2227 28.7254 7.91046 27.9579C8.1515 27.6887 8.60912 27.7758 8.9313 27.7763L29.0921 27.7775C29.8365 27.7775 30.5841 27.7928 31.3279 27.7635Z" fill="url(#paint0_linear_2432_14282)"/>
<path d="M10.9878 19.262C12.5384 19.2386 14.0914 19.2573 15.6424 19.2573L28.9763 19.2575C29.9178 19.2575 30.8786 19.214 31.8164 19.3018C32.1571 19.3336 32.3294 19.4918 32.6341 19.5806C32.8591 19.6462 33.096 19.6466 33.3151 19.7369C34.4321 20.1974 34.0727 21.5957 33.028 21.9733C33.8498 22.9077 33.3842 24.6858 32.5348 25.492C31.5219 26.4534 30.316 26.3324 29.0356 26.3022C27.6763 26.3375 26.3098 26.3093 24.9499 26.3094L10.0202 26.3103C8.58401 26.3107 7.4585 26.2918 6.77702 24.7246C6.35789 23.7608 6.5348 23.0009 6.90424 22.0688C6.52397 21.7254 6.00365 21.3562 6.00004 20.792C5.99413 19.8691 6.67499 19.7834 7.34485 19.5924C7.58747 19.5232 7.78587 19.3503 8.03395 19.2971C8.60999 19.1735 10.3418 19.2532 10.9878 19.262ZM19.4884 21.4622C18.491 21.5871 17.5963 21.9219 16.7038 22.3794C16.2173 22.6287 15.7992 23.0082 15.2376 23.0824C13.6471 23.2925 13.0816 21.7771 11.4294 21.804C10.571 21.818 9.61533 22.2871 9.09288 22.9691C8.41613 23.8527 9.5396 24.7857 10.1781 23.8675C10.5017 23.4022 10.4172 23.2615 11.1442 23.1107C12.159 22.9004 12.2968 23.3266 12.9814 23.8155C13.998 24.5414 15.6802 24.6083 16.7173 23.8554C17.0694 23.5998 17.3141 23.2346 17.6134 22.9246C18.4358 22.0729 19.5712 21.6708 20.7422 21.964C21.4611 22.2092 22.1372 22.576 22.6091 23.1859C22.793 23.4237 22.9558 23.684 23.1899 23.8772C24.0039 24.5489 25.5281 24.5302 26.4387 24.0877C27.3918 23.6244 27.9211 22.7335 29.1258 23.1502C29.8606 23.4045 30.0241 24.2064 30.6075 24.2275C31.4721 24.259 31.3566 23.3736 31.0889 22.8274C30.8985 22.4388 30.8183 22.4148 30.4408 22.5482C29.6502 21.9786 29.1127 21.6576 28.0427 21.8325C26.883 22.022 26.2307 23.0426 25.0437 23.1049C24.1819 23.15 23.7962 22.7185 23.09 22.3494C22.1392 21.8525 20.5865 21.2857 19.4884 21.4622Z" fill="url(#paint1_linear_2432_14282)"/>
<path d="M11.5919 9.64039C11.4175 9.73414 11.1943 9.96628 11.0153 10.1523C10.9671 10.2025 10.922 10.2493 10.882 10.2892C9.55876 11.608 8.63754 13.081 8.08637 14.8714C7.93312 15.3691 7.55688 16.9523 7.80386 17.3921C8.04254 17.8172 8.67245 17.7794 9.16787 17.7497C9.28351 17.7428 9.39182 17.7363 9.48612 17.7362L30.9972 17.7359C32.1387 17.7355 32.4102 17.6446 32.2311 16.287C31.6389 11.7963 27.6778 7.9364 23.2778 7.13831C22.6982 7.02267 22.0954 7.00003 21.4942 7C21.3 6.99999 21.106 7.00234 20.913 7.00468C20.7248 7.00696 20.5375 7.00923 20.352 7.00929L18.6185 7.00908C18.5122 7.0091 18.4068 7.0104 18.3025 7.013C18.1745 7.01466 18.0714 7.0168 18.0045 7.01901C17.664 7.03029 17.32 7.06615 16.9756 7.12352C15.3943 7.35506 14.0019 7.94226 12.5304 8.92426L12.4851 8.95439C12.2382 9.11871 11.7276 9.45847 11.5919 9.64039Z" fill="url(#paint2_linear_2432_14282)"/>
<path d="M16.9756 7.12352C17.4024 7.06103 17.8429 7.02445 18.3025 7.013C17.8425 7.02446 17.4019 7.06108 16.9748 7.12366L16.9756 7.12352Z" fill="url(#paint3_linear_2432_14282)"/>
<path d="M24.0933 11.7047C25.078 11.6196 25.1127 13.0915 24.1225 13.1953C23.1568 13.2058 23.1749 11.9321 24.0933 11.7047Z" fill="#FFF6C5"/>
<path d="M19.8409 9.36537C20.8256 9.28024 20.8603 10.7522 19.8701 10.8559C18.9044 10.8664 18.9225 9.59274 19.8409 9.36537Z" fill="#FFF6C5"/>
<path d="M15.1602 11.4928C16.1449 11.4077 16.1796 12.8796 15.1894 12.9834C14.2237 12.9939 14.2418 11.7202 15.1602 11.4928Z" fill="#FFF6C5"/>
<defs>
<linearGradient id="paint0_linear_2432_14282" x1="19.9845" y1="6.9985" x2="32.0608" y2="16.2925" gradientUnits="userSpaceOnUse">
<stop stop-color="#FFA800"/>
<stop offset="1" stop-color="#E27F00"/>
</linearGradient>
<linearGradient id="paint1_linear_2432_14282" x1="19.9845" y1="6.9985" x2="32.0608" y2="16.2925" gradientUnits="userSpaceOnUse">
<stop stop-color="#FFA800"/>
<stop offset="1" stop-color="#E27F00"/>
</linearGradient>
<linearGradient id="paint2_linear_2432_14282" x1="19.9845" y1="6.9985" x2="32.0608" y2="16.2925" gradientUnits="userSpaceOnUse">
<stop stop-color="#FFA800"/>
<stop offset="1" stop-color="#E27F00"/>
</linearGradient>
<linearGradient id="paint3_linear_2432_14282" x1="19.9845" y1="6.9985" x2="32.0608" y2="16.2925" gradientUnits="userSpaceOnUse">
<stop stop-color="#FFA800"/>
<stop offset="1" stop-color="#E27F00"/>
</linearGradient>
</defs>
</svg>
