<svg width="40" height="40" viewBox="0 0 40 40" fill="none" xmlns="http://www.w3.org/2000/svg">
<path d="M23.1489 19.4902C25.8077 19.4543 28.6303 19.6013 31.2624 19.4663C31.279 20.3679 31.2704 21.2705 31.2705 22.1722V28.8813C31.2708 30.2127 31.3042 31.4684 30.3131 32.5012C29.5312 33.3159 28.5594 33.5918 27.4612 33.6095C25.9569 33.6337 24.451 33.5886 22.9468 33.6157C22.8893 33.0512 22.9189 32.4651 22.9189 31.8977L22.919 29.0322C22.9195 25.8546 22.9317 22.6772 22.8882 19.4997C22.9754 19.5002 23.0619 19.4953 23.1489 19.4902Z" fill="url(#paint0_linear_2432_14294)"/>
<path d="M17.2134 19.4957C17.5897 19.533 17.9785 19.4837 18.3566 19.4826L21.6044 19.4851C22.0644 19.4851 22.7176 19.4408 23.1491 19.4901C23.0621 19.4951 22.9756 19.5001 22.8884 19.4996C22.9319 22.6771 22.9197 25.8544 22.9192 29.0321L22.9191 31.8976C22.9191 32.4649 22.8895 33.0511 22.947 33.6155C22.7135 33.6266 22.4794 33.6137 22.2456 33.6123L13.8435 33.6123C13.3887 33.6124 12.8816 33.6507 12.4346 33.597C11.4825 33.5887 10.6532 33.3749 9.94593 32.7054C8.7978 31.6189 8.77737 30.4851 8.77705 29.0186L8.77799 22.3321C8.77818 21.3894 8.79755 20.4417 8.76855 19.4996C9.29962 19.5183 9.84593 19.4845 10.3789 19.4844L14.7689 19.4843C15.5817 19.4845 16.4017 19.4603 17.2134 19.4957Z" fill="url(#paint1_linear_2432_14294)"/>
<path d="M17.213 19.4957C17.5893 19.533 17.978 19.4837 18.3561 19.4826L21.604 19.4851C22.0639 19.4851 22.7171 19.4408 23.1486 19.4901C23.0616 19.4951 22.9751 19.5001 22.8879 19.4996C22.9314 22.6771 22.9192 25.8544 22.9187 29.0321L22.9186 31.8976C22.9186 32.465 22.889 33.0511 22.9465 33.6155C22.713 33.6266 22.4789 33.6137 22.2451 33.6123L13.843 33.6123C13.3882 33.6124 12.8811 33.6507 12.4341 33.597C13.9665 33.5318 15.6083 33.6394 17.1713 33.6011C17.2 33.1299 17.1869 32.6541 17.1869 32.1821L17.198 20.4294C17.202 20.1154 17.1875 19.8096 17.213 19.4957Z" fill="#FFED85"/>
<path d="M16.6074 11.6256C15.4347 10.626 13.6058 9.95339 13.454 8.15083C13.3391 6.78496 14.3625 5.55306 15.7402 5.4572C17.756 5.31696 19.1056 7.31189 20.0313 8.83008C20.8557 7.12058 23.0178 4.67279 25.1564 5.69141C26.3918 6.27983 26.932 7.73014 26.3298 8.96683C25.7141 10.2313 24.392 10.7942 23.3503 11.6261C24.2656 11.4996 25.88 11.6093 26.8717 11.609L29.9012 11.6065C30.4478 11.6061 31.0461 11.56 31.5857 11.6436C34.0172 12.0204 34.7523 15.3382 33.4168 17.0776C32.6038 18.1363 31.7052 18.2123 30.501 18.2123L25.2793 18.2111C24.5438 18.2111 23.8009 18.1885 23.0663 18.2226C21.1885 18.1458 19.083 18.1843 17.2015 18.2215C16.4166 18.1945 15.6279 18.2109 14.8425 18.211L9.59984 18.2123C8.52684 18.2133 7.61728 18.1841 6.82565 17.3427C5.33003 15.7531 5.82565 12.2276 8.28996 11.6898C8.88484 11.56 9.55753 11.6063 10.1657 11.6064L15.0465 11.607C15.573 11.6054 16.0816 11.5841 16.6074 11.6256ZM23.9256 7.44689C22.8684 7.63071 21.4949 9.56646 21.0672 10.6148C21.226 10.5519 21.377 10.481 21.5287 10.4027C22.4288 9.95014 24.3174 9.02277 24.5814 7.98714C24.502 7.63433 24.2941 7.44089 23.9256 7.44689ZM16.0463 7.46814C15.7571 7.50546 15.4256 7.73414 15.4647 8.06477C15.5633 8.89639 17.8385 10.0865 18.5656 10.3895L18.957 10.5563C18.5575 9.77289 17.0147 7.45089 16.0463 7.46814Z" fill="url(#paint2_linear_2432_14294)"/>
<path d="M17.204 11.8531C18.9818 11.6973 21.1105 11.8503 22.9314 11.8166C22.8806 12.7903 22.9193 13.834 22.919 14.8146L22.919 16.9411C22.9191 17.1626 22.8557 18.0576 22.9694 18.2024L23.0665 18.2229C21.1887 18.146 19.0832 18.1846 17.2017 18.2217C17.1758 17.7987 17.1863 17.3722 17.1864 16.9485L17.1913 14.986C17.1977 13.942 17.164 12.8968 17.204 11.8531Z" fill="#FFED85"/>
<defs>
<linearGradient id="paint0_linear_2432_14294" x1="27.0758" y1="19.4655" x2="32.0113" y2="21.4802" gradientUnits="userSpaceOnUse">
<stop stop-color="#FFA800"/>
<stop offset="1" stop-color="#E27F00"/>
</linearGradient>
<linearGradient id="paint1_linear_2432_14294" x1="15.9509" y1="19.4659" x2="22.5806" y2="24.105" gradientUnits="userSpaceOnUse">
<stop stop-color="#FFA800"/>
<stop offset="1" stop-color="#E27F00"/>
</linearGradient>
<linearGradient id="paint2_linear_2432_14294" x1="20.0134" y1="5.44943" x2="25.8662" y2="14.3188" gradientUnits="userSpaceOnUse">
<stop stop-color="#FFA800"/>
<stop offset="1" stop-color="#E27F00"/>
</linearGradient>
</defs>
</svg>
