<svg width="40" height="40" viewBox="0 0 40 40" fill="none" xmlns="http://www.w3.org/2000/svg">
<path d="M19.8041 26.3167C21.1457 26.245 21.2041 27.2565 21.2044 28.2295L21.2035 29.4206C21.2038 30.6531 21.2366 31.8957 21.1882 33.1269C20.8672 33.1376 20.5452 33.1333 20.224 33.1336L18.7527 33.141C18.7315 31.9063 18.7474 30.6686 18.7474 29.4337L18.7475 28.2226C18.7477 27.3561 18.7646 26.4948 19.8041 26.3167Z" fill="url(#paint0_linear_2432_14284)"/>
<path d="M19.6381 7.01638C20.3596 6.9801 20.8132 6.96553 21.4355 7.40631C22.3434 8.04929 23.1621 8.83449 24.0174 9.54559L32.1893 16.3514C32.6334 16.7208 33.2881 17.2083 33.6532 17.6358C34.6983 18.8595 33.1958 20.8277 31.607 20.246C31.1044 20.062 29.9023 18.9653 29.434 18.576L26.4796 16.1651C24.9988 14.9592 21.9351 12.1077 20.3147 11.9498C18.5628 11.7143 16.4304 13.7985 15.1348 14.8543L10.6955 18.483C9.65105 19.3451 8.10876 21.124 6.67392 19.9634C5.9878 19.4085 5.7386 18.3193 6.34023 17.6059C6.71695 17.1592 7.58264 16.5289 8.06614 16.1318L17.677 8.09394C18.3769 7.5163 18.6984 7.09555 19.6381 7.01638Z" fill="url(#paint1_linear_2432_14284)"/>
<path d="M19.9386 13.7633C20.4714 13.7307 20.8517 14.0628 21.2308 14.38L27.377 19.4574C29.2372 20.9845 30.2586 21.2845 30.2576 23.9615L30.2575 27.1034C30.2572 29.1553 30.1206 31.1013 28.0626 32.2223C26.699 32.9651 25.0094 33.0317 23.4861 33.1177C23.4649 32.6196 23.475 32.1189 23.4751 31.6204L23.4769 29.2796C23.4798 28.5167 23.538 27.5283 23.3577 26.8017C22.9833 25.2936 21.577 24.2772 20.0476 24.2123C18.4265 24.1972 16.9204 25.2606 16.538 26.8708C16.4206 27.3653 16.454 27.7734 16.461 28.2723C16.4835 29.8791 16.4227 31.4868 16.471 33.0933C14.8161 33.007 12.6104 32.8696 11.2843 31.7912C9.41229 30.2689 9.71892 27.7692 9.71782 25.6167C9.71718 24.4276 9.50368 22.4869 10.3149 21.4942C11.0172 20.6348 12.6319 19.4837 13.5104 18.7464L18.5274 14.5927C18.9484 14.242 19.3649 13.8213 19.9386 13.7633Z" fill="url(#paint2_linear_2432_14284)"/>
<defs>
<linearGradient id="paint0_linear_2432_14284" x1="19.9845" y1="6.99843" x2="32.434" y2="16.1855" gradientUnits="userSpaceOnUse">
<stop stop-color="#FFA800"/>
<stop offset="1" stop-color="#E27F00"/>
</linearGradient>
<linearGradient id="paint1_linear_2432_14284" x1="19.9845" y1="6.99843" x2="32.434" y2="16.1855" gradientUnits="userSpaceOnUse">
<stop stop-color="#FFA800"/>
<stop offset="1" stop-color="#E27F00"/>
</linearGradient>
<linearGradient id="paint2_linear_2432_14284" x1="19.9845" y1="6.99843" x2="32.434" y2="16.1855" gradientUnits="userSpaceOnUse">
<stop stop-color="#FFA800"/>
<stop offset="1" stop-color="#E27F00"/>
</linearGradient>
</defs>
</svg>
