<svg width="40" height="40" viewBox="0 0 40 40" fill="none" xmlns="http://www.w3.org/2000/svg">
<g clip-path="url(#clip0_2432_14292)">
<path fill-rule="evenodd" clip-rule="evenodd" d="M33.968 11.6031C33.5462 8.04543 30.1261 4.96407 26.509 5.2057C25.2616 5.25643 23.3696 5.80464 22.3802 6.63936C22.6466 6.97833 22.9733 7.29044 23.2928 7.59563C23.4009 7.69897 23.5083 7.80152 23.6122 7.90405L26.0908 10.3085C26.3682 10.5758 26.6365 10.8531 26.9048 11.1302C27.0319 11.2615 27.159 11.3928 27.287 11.5231L31.2823 15.4941L31.5585 15.7685L31.5585 15.7685L31.5586 15.7685C31.9435 16.1507 32.3285 16.5329 32.7075 16.9207C33.8044 15.5281 34.1703 13.3097 33.968 11.6031ZM8.41252 29.8696C8.21148 29.688 7.97427 29.4637 7.65939 29.1489C7.02112 28.085 6.59554 27.234 8.08491 25.5318C10.2126 22.7659 16.4107 15.4201 17.8792 13.7417C17.9175 13.6979 17.9561 13.6523 17.9951 13.6062C18.1234 13.4545 18.2568 13.2968 18.4048 13.1749C19.0478 16.0649 19.976 16.9406 21.9197 18.7744C22.0837 18.9292 22.255 19.0908 22.434 19.261C23.31 20.0942 24.1699 20.7504 25.4423 20.8543C25.3331 20.9565 25.217 21.0516 25.1009 21.1467C25.0088 21.222 24.9167 21.2974 24.828 21.3764L12.9785 31.7021C12.5878 32.0505 11.2764 32.553 10.4253 31.7021C9.86616 31.1429 9.51693 30.8237 9.23126 30.5754C8.47342 31.2708 7.69278 32.0734 6.95054 32.8365L6.95024 32.8368L6.95004 32.8371C6.6629 33.1323 6.38151 33.4216 6.10942 33.6965C5.99811 33.809 5.87657 33.9373 5.74972 34.0713L5.74945 34.0716L5.7494 34.0717L5.74938 34.0717L5.74936 34.0717C5.41487 34.425 5.04344 34.8173 4.72498 35.0601C4.38728 35.3175 3.83991 35.1892 3.82973 34.7206C3.82234 34.3801 4.10368 34.1294 4.35161 33.9086C4.40458 33.8614 4.45603 33.8156 4.50281 33.7705C5.44022 32.8675 6.35479 31.9441 7.26963 31.0204L7.26966 31.0204L7.26973 31.0203C7.65006 30.6363 8.03044 30.2522 8.41252 29.8696ZM21.542 7.33937C22.1361 7.85455 22.6838 8.42103 23.2311 8.98708C23.5365 9.30289 23.8417 9.61856 24.1548 9.92512L30.9129 16.645C30.9766 16.7092 31.1576 16.8751 31.3562 17.0573C31.6628 17.3386 32.0115 17.6584 32.036 17.7019C32.1996 17.9929 30.086 19.2797 29.4675 19.5418C28.5939 19.8779 27.7112 20.0871 26.77 20.0744C24.7172 20.047 24.0132 19.3446 22.7615 18.0957C22.6863 18.0207 22.6091 17.9437 22.5296 17.8648C22.317 17.6539 22.0936 17.448 21.8692 17.2411C21.2963 16.7131 20.7162 16.1785 20.2897 15.5362C18.648 13.0644 19.488 9.32743 21.542 7.33937ZM14.1475 23.8135C14.0077 23.0129 15.3781 21.6856 16.0447 21.5665C16.8776 21.5212 17.6225 22.3094 17.1532 23.1259C16.8689 23.6204 16.0149 24.5056 15.4114 24.6667C14.8412 24.7279 14.2529 24.417 14.1475 23.8135ZM18.5607 20.1599C17.8037 20.2989 17.9528 21.3373 18.7088 21.2665C19.3399 21.0404 19.3253 20.1217 18.5607 20.1599Z" fill="url(#paint0_linear_2432_14292)"/>
</g>
<defs>
<linearGradient id="paint0_linear_2432_14292" x1="18.9086" y1="5.19059" x2="32.9107" y2="14.8995" gradientUnits="userSpaceOnUse">
<stop stop-color="#FFA800"/>
<stop offset="1" stop-color="#E27F00"/>
</linearGradient>
<clipPath id="clip0_2432_14292">
<rect width="40" height="40" fill="white"/>
</clipPath>
</defs>
</svg>
