<svg width="40" height="40" viewBox="0 0 40 40" fill="none" xmlns="http://www.w3.org/2000/svg">
<path fill-rule="evenodd" clip-rule="evenodd" d="M11.7234 9.6875C10.2193 9.6875 9 10.9068 9 12.4109V32.2766C9 33.7807 10.2193 35 11.7234 35H28.7766C30.2807 35 31.5 33.7807 31.5 32.2766V12.4109C31.5 10.9068 30.2807 9.6875 28.7766 9.6875H11.7234ZM14.125 17.2917C13.6418 17.2917 13.25 17.6835 13.25 18.1667C13.25 18.65 13.6418 19.0417 14.125 19.0417H26.375C26.8582 19.0417 27.25 18.65 27.25 18.1667C27.25 17.6835 26.8582 17.2917 26.375 17.2917H14.125ZM13.25 22.8335C13.25 22.3502 13.6418 21.9585 14.125 21.9585H26.375C26.8582 21.9585 27.25 22.3502 27.25 22.8335C27.25 23.3167 26.8582 23.7085 26.375 23.7085H14.125C13.6418 23.7085 13.25 23.3167 13.25 22.8335ZM14.125 26.6252C13.6418 26.6252 13.25 27.017 13.25 27.5002C13.25 27.9835 13.6418 28.3752 14.125 28.3752H26.375C26.8582 28.3752 27.25 27.9835 27.25 27.5002C27.25 27.017 26.8582 26.6252 26.375 26.6252H14.125Z" fill="url(#paint0_linear_2432_14310)"/>
<path fill-rule="evenodd" clip-rule="evenodd" d="M23.0623 7.8125C23.0623 6.2592 21.6982 5 20.0154 5C18.3327 5 16.9685 6.2592 16.9685 7.8125H15.3281C13.6454 7.8125 12.2812 9.17663 12.2812 10.8594C12.2812 12.5421 13.6454 13.9062 15.3281 13.9062H24.7031C26.3859 13.9062 27.75 12.5421 27.75 10.8594C27.75 9.17663 26.3859 7.8125 24.7031 7.8125H23.0623Z" fill="#FFCA1B"/>
<defs>
<linearGradient id="paint0_linear_2432_14310" x1="20.2375" y1="9.68598" x2="31.475" y2="16.5678" gradientUnits="userSpaceOnUse">
<stop stop-color="#FFA800"/>
<stop offset="1" stop-color="#E27F00"/>
</linearGradient>
</defs>
</svg>
