<svg width="40" height="40" viewBox="0 0 40 40" fill="none" xmlns="http://www.w3.org/2000/svg">
<path d="M33.9717 11.4351C33.8834 10.3375 33.1378 9.17042 32.08 8.79281C32.1527 9.48094 32.1523 10.1576 32.1519 10.8482L32.1512 22.7688C32.151 22.8995 32.1559 23.0385 32.1609 23.1808C32.1736 23.5432 32.1871 23.9268 32.1186 24.2494C31.8108 25.6994 30.5686 26.027 29.339 26.2709L28.2289 26.4972C28.1918 26.5049 28.1544 26.5126 28.1168 26.5204C26.2883 26.8991 23.8973 27.3943 22.2833 28.2369C21.909 28.4323 21.5684 28.6645 21.2258 28.8981C21.0568 29.0134 20.8872 29.129 20.7129 29.2407C19.9811 29.7096 19.5909 29.4255 19.0506 29.0321C18.9759 28.9777 18.8983 28.9212 18.8166 28.8644C17.8122 28.1655 16.0255 27.4861 14.7789 27.2116C13.8936 26.9218 12.8255 26.702 11.863 26.5039C11.7061 26.4716 11.552 26.4399 11.402 26.4086C11.2802 26.3831 11.1519 26.358 11.0189 26.3319C9.67019 26.0677 7.85591 25.7122 7.76924 24.0452C7.75584 23.7875 7.7665 23.4757 7.77694 23.17C7.78373 22.9714 7.79043 22.7754 7.79038 22.5985L7.79002 11.0854C7.79004 10.9591 7.7884 10.8304 7.78674 10.7001C7.77884 10.0798 7.77051 9.42501 7.93888 8.843C7.32489 9.01319 6.7456 9.60095 6.43795 10.1429C5.97204 10.9638 5.98916 11.8491 6.00659 12.7509C6.00992 12.9229 6.01325 13.0954 6.01326 13.2682L6.0133 23.2498C5.9989 24.7926 6.32259 26.0635 7.80401 26.8917C8.55084 27.3093 10.2811 27.6858 11.7173 27.9983C12.2975 28.1246 12.8297 28.2404 13.2298 28.3442C13.2725 28.3559 13.3155 28.3676 13.3589 28.3795C14.5025 28.6913 15.8562 29.0605 16.8585 29.65C17.1288 29.809 17.3757 29.9953 17.6216 30.1808C18.0137 30.4766 18.4034 30.7707 18.8825 30.9501C20.4273 31.5286 21.2456 30.9471 22.2433 30.238C22.4515 30.0901 22.6675 29.9365 22.8997 29.7868C24.3732 28.8365 26.9632 28.2608 28.8424 27.8431C28.9623 27.8164 29.0793 27.7904 29.1929 27.765C29.3473 27.7305 29.5176 27.6946 29.6971 27.6568C30.4437 27.4996 31.3482 27.3091 31.9238 27.0419C34.0376 26.0609 34.0153 24.2595 33.9921 22.3815C33.9897 22.1886 33.9873 21.995 33.9872 21.8014L33.9872 13.5342C33.9872 13.3424 33.9903 13.1415 33.9934 12.937C34.0012 12.4312 34.0093 11.9032 33.9717 11.4351Z" fill="url(#paint0_linear_2432_14280)"/>
<path d="M20.6241 12.942C20.9911 12.6051 21.2456 12.1678 21.5357 11.7669C23.0696 9.64765 25.8103 8.76076 28.2641 8.23205C28.7065 8.13678 29.3565 7.98513 29.8031 8.00118C30.4599 8.02474 31.0954 8.8094 31.1724 9.42575C31.2362 9.93666 31.1838 10.4899 31.1851 11.0069L31.1862 22.2786C31.1869 23.2469 31.358 24.5921 30.1746 24.9379C29.5892 25.1089 28.9589 25.1844 28.3607 25.3101C25.9602 25.8146 23.6004 26.3232 21.4001 27.4406C21.1164 27.5846 20.8468 27.8175 20.5508 27.9279C20.4888 27.475 20.5258 26.998 20.5261 26.5405L20.5265 15.3949C20.5269 14.8479 20.5128 14.4113 20.4895 13.8726C20.4724 13.5983 20.4022 13.2633 20.549 13.0162L20.6241 12.942ZM27.1167 16.557C26.3718 16.6904 22.9891 18.0798 23.2118 19.0905C23.2926 19.457 23.6811 19.5667 24.0084 19.5273C24.2826 19.3628 24.4724 19.102 24.7245 18.9094C25.477 18.3345 26.2621 18.0107 27.1635 17.748C28.2913 17.4193 28.0398 16.4386 27.1167 16.557ZM27.1462 12.8084C26.4432 12.9437 22.9441 14.1255 23.1824 15.1512C23.2572 15.4731 23.5495 15.6159 23.86 15.5969C24.2564 15.5139 24.6644 15.0366 25.0273 14.8164C25.5944 14.4724 27.5414 13.9162 27.6871 13.7032C28.0166 13.2214 27.677 12.7597 27.1462 12.8084ZM27.3449 20.116C26.7929 20.1823 25.3507 20.8412 25.0031 21.2768C24.6261 21.7491 25.0122 22.2362 25.535 22.2364C25.8656 22.112 26.1224 21.8388 26.4337 21.6711C27.032 21.3488 27.8071 21.3274 27.9815 20.5752C27.8733 20.2587 27.6791 20.105 27.3449 20.116Z" fill="url(#paint1_linear_2432_14280)"/>
<path d="M10.1133 8.02171C10.7617 7.94128 11.4835 8.16452 12.1085 8.31574C14.6743 8.9367 18.6465 10.3795 19.3252 13.3375C19.4744 13.9874 19.436 14.9142 19.4357 15.5783L19.4349 27.936C19.1451 27.7663 18.867 27.5773 18.5706 27.419C17.3761 26.6635 15.1072 26.1302 13.7468 25.8047C13.069 25.6424 9.70148 24.9864 9.38874 24.806C8.52183 24.3058 8.76124 23.0364 8.76184 22.2007L8.76172 13.3272C8.76172 12.0812 8.72024 10.8187 8.81956 9.57607C8.87928 8.82848 9.37626 8.20703 10.1133 8.02171ZM12.5652 16.535C12.048 16.6515 11.8418 17.2658 12.3594 17.5635C12.6129 17.7093 12.9603 17.7393 13.2418 17.8247C13.9596 18.0426 14.7195 18.4538 15.2991 18.9294C15.5968 19.1737 15.8229 19.5512 16.2552 19.5022C16.5966 19.3959 16.6847 19.2047 16.7621 18.8851C16.4518 17.9603 13.502 16.4325 12.5652 16.535ZM12.5685 12.8258C12.0537 13.0235 11.9529 13.6682 12.5279 13.8908C13.6053 14.3081 14.2651 14.2438 15.3871 15.0958C15.6914 15.3269 15.9282 15.6772 16.3563 15.5909C16.7337 15.4492 16.8082 15.1821 16.7783 14.8058C16.2885 14.0175 13.3235 12.7225 12.5685 12.8258ZM12.3699 20.1333C12.1065 20.253 11.8919 20.5353 12.0412 20.8282C12.2367 21.2118 13.2305 21.4833 13.6165 21.704C13.9813 21.9125 14.2411 22.3455 14.7132 22.2406C16.1848 21.4813 13.3451 20.0273 12.3699 20.1333Z" fill="url(#paint2_linear_2432_14280)"/>
<defs>
<linearGradient id="paint0_linear_2432_14280" x1="19.9845" y1="7.99861" x2="31.3477" y2="17.4528" gradientUnits="userSpaceOnUse">
<stop stop-color="#FFA800"/>
<stop offset="1" stop-color="#E27F00"/>
</linearGradient>
<linearGradient id="paint1_linear_2432_14280" x1="19.9845" y1="7.99861" x2="31.3477" y2="17.4528" gradientUnits="userSpaceOnUse">
<stop stop-color="#FFA800"/>
<stop offset="1" stop-color="#E27F00"/>
</linearGradient>
<linearGradient id="paint2_linear_2432_14280" x1="19.9845" y1="7.99861" x2="31.3477" y2="17.4528" gradientUnits="userSpaceOnUse">
<stop stop-color="#FFA800"/>
<stop offset="1" stop-color="#E27F00"/>
</linearGradient>
</defs>
</svg>
