<svg width="40" height="40" viewBox="0 0 40 40" fill="none" xmlns="http://www.w3.org/2000/svg">
<path d="M19.724 7.03316C21.2116 6.82707 22.9218 7.6116 24.0144 8.55315C28.16 12.1259 25.9462 18.8626 20.242 19.1899C18.7392 19.2868 17.0374 18.6661 15.9022 17.7139C11.7565 14.2363 14.1269 7.43425 19.724 7.03316Z" fill="url(#paint0_linear_2432_14290)"/>
<path d="M22.6712 19.3887C25.0531 19.2901 27.4298 20.6672 29.0869 22.2453C30.7547 23.8337 32.9722 27.5028 32.9998 29.9204C33.0155 31.2899 32.0836 32.5334 30.723 32.8776C30.0206 33.0553 28.9232 32.9872 28.1715 32.9871L24.6842 32.9905C23.4452 32.972 22.2035 32.9871 20.9642 32.9871L11.2141 32.988C10.6429 32.9881 10.0341 33.0279 9.4701 32.9377C8.1656 32.7291 7.09087 31.5573 7.00652 30.2672C6.89755 28.5997 8.1781 25.8127 9.0853 24.4111C10.7525 21.8353 13.6469 19.5754 16.831 19.3945C17.3669 19.3722 17.3613 19.4297 17.7276 19.7731C19.1525 21.1087 20.4834 21.3768 22.0452 19.9608C22.2556 19.77 22.4197 19.5333 22.6712 19.3887Z" fill="url(#paint1_linear_2432_14290)"/>
<defs>
<linearGradient id="paint0_linear_2432_14290" x1="19.9856" y1="6.99844" x2="32.0939" y2="15.3405" gradientUnits="userSpaceOnUse">
<stop stop-color="#FFA800"/>
<stop offset="1" stop-color="#E27F00"/>
</linearGradient>
<linearGradient id="paint1_linear_2432_14290" x1="19.9856" y1="6.99844" x2="32.0939" y2="15.3405" gradientUnits="userSpaceOnUse">
<stop stop-color="#FFA800"/>
<stop offset="1" stop-color="#E27F00"/>
</linearGradient>
</defs>
</svg>
