<svg width="40" height="40" viewBox="0 0 40 40" fill="none" xmlns="http://www.w3.org/2000/svg">
<path fill-rule="evenodd" clip-rule="evenodd" d="M6.91556 12.426C6.81904 12.4813 6.73895 12.5272 6.68066 12.561C5.19041 13.2636 5.30624 14.257 6.53278 15.2254C6.78653 15.4461 7.01516 15.6753 7.23517 15.8958C8.05152 16.7141 8.74914 17.4133 10.1702 17.1219C11.4737 16.8545 11.5001 17.0498 11.6268 17.9883C11.6497 18.1576 11.6758 18.3512 11.7133 18.5705L13.2265 28.2846C13.2388 28.3709 13.2661 28.5191 13.2998 28.7025C13.4276 29.3979 13.6485 30.5993 13.5 30.8475C13.4091 30.9995 13.1654 31.0246 12.9503 31.0467C12.8592 31.0561 12.7732 31.065 12.7062 31.0828C12.0584 31.2543 11.6565 32.1282 11.8414 32.7444C12.1695 33.8379 13.1875 33.8193 14.1042 33.8025C14.2178 33.8005 14.3299 33.7984 14.4389 33.7985C14.5903 33.7987 14.7571 33.8063 14.9323 33.8144C15.663 33.848 16.5383 33.8882 17.035 33.4174C17.3277 33.1402 17.4291 32.7794 17.5327 32.4107C17.7014 31.8108 17.8759 31.1898 18.8892 30.8723C18.8479 30.8228 18.8076 30.7749 18.7684 30.7283C18.3397 30.2185 18.0336 29.8546 17.791 29.1596C16.36 25.0605 20.5017 21.1735 24.283 23.0387C24.8891 23.3376 25.8244 23.9775 26.051 24.6453C25.7802 25.3734 25.3712 24.9194 25.0582 24.5718C25.0456 24.5578 25.0331 24.5439 25.0208 24.5303C23.75 23.1263 21.625 23.0048 20.0658 24.0165C17.8552 25.4508 17.5833 28.4694 19.3643 30.3731C19.4197 30.4323 19.5088 30.502 19.6076 30.5793C19.8783 30.791 20.222 31.0598 20.1466 31.3271C20.0754 31.5795 19.784 31.5813 19.4519 31.5834C19.1757 31.5851 18.8713 31.587 18.6422 31.7335C18.1412 32.0536 18.1117 32.7525 18.4261 33.2152C18.8391 33.823 19.4638 33.8129 20.1045 33.8025C20.1875 33.8012 20.2706 33.7998 20.3537 33.7998L25.0224 33.7994C25.1383 33.7994 25.2608 33.8007 25.3872 33.802C25.9174 33.8077 26.5166 33.8141 26.9882 33.729C28.7893 33.4041 30.2844 31.8667 30.5874 30.0683C30.7723 28.9708 30.5363 27.8286 30.309 26.7281C30.2506 26.4455 30.1928 26.1656 30.1428 25.8899L29.8479 24.2393C29.3566 21.5072 28.6648 20.9232 27.0266 19.5402C26.7009 19.2653 26.3378 18.9588 25.9315 18.5975L21.3788 14.5522C21.2551 14.4442 21.0798 14.2976 20.8779 14.1288C20.1747 13.5407 19.1483 12.6824 18.849 12.2424C18.8215 10.3103 18.1795 9.65251 16.8868 8.48695C16.8052 7.41189 16.6314 6.39626 16.1159 5.43562C14.8364 3.05112 13.6721 5.53947 13.0247 6.92317C12.9615 7.05817 12.9033 7.18266 12.8503 7.29108C12.8139 7.36573 12.7779 7.44467 12.7412 7.52512C12.6332 7.76204 12.5193 8.01205 12.3697 8.20432C12.2722 8.3296 12.0545 8.38875 11.7815 8.46289C11.1571 8.63253 10.2436 8.8807 9.81947 10.1789C9.80833 10.213 9.79768 10.2482 9.78687 10.2839C9.74423 10.4249 9.69929 10.5735 9.61378 10.6888C9.3666 11.0219 7.65672 12.0014 6.91556 12.426ZM34.3033 21.4092C34.3227 20.5658 34.352 19.2946 33.1812 19.4195C32.2145 19.5535 32.1207 20.1885 32.1243 21.0247L32.1273 25.5719C32.1273 25.7548 32.1318 25.9433 32.1364 26.1348C32.1601 27.1214 32.1856 28.1895 31.6118 29.0081C31.2804 29.4807 31.2632 29.6298 31.2283 29.9333C31.2123 30.072 31.1926 30.243 31.1375 30.4918C30.9708 31.2445 30.4909 32.1787 29.9634 32.7554C30.0112 32.7393 30.059 32.7234 30.1069 32.7075C30.3612 32.623 30.6161 32.5383 30.8572 32.4208C33.6138 31.0793 34.2999 28.96 34.2984 26.1536L34.2988 21.6827C34.2989 21.5992 34.301 21.5071 34.3033 21.4092Z" fill="url(#paint0_linear_2432_14279)"/>
<path d="M11.6422 10.2575C12.9747 10.1409 13.2474 11.9129 11.9629 12.2585C10.5959 12.3988 10.2844 10.574 11.6422 10.2575Z" fill="#FFF6C5"/>
<path d="M6.68066 12.561C6.79028 12.6325 6.91403 12.6553 7.03203 12.7068C8.37616 13.2933 8.13091 14.5675 6.85497 15.107C6.75028 15.1512 6.63403 15.1764 6.53278 15.2254C5.30624 14.257 5.19041 13.2636 6.68066 12.561Z" fill="#FFF6C5"/>
<defs>
<linearGradient id="paint0_linear_2432_14279" x1="19.9324" y1="4.44209" x2="33.5041" y2="13.5798" gradientUnits="userSpaceOnUse">
<stop stop-color="#FFA800"/>
<stop offset="1" stop-color="#E27F00"/>
</linearGradient>
</defs>
</svg>
