<svg width="40" height="40" viewBox="0 0 40 40" fill="none" xmlns="http://www.w3.org/2000/svg">
<path d="M20.0535 19.4001V7.85768C20.0535 7.39267 20.4152 7 20.8802 7C27.2714 7 32.4536 12.1822 32.4536 18.5735C32.4536 19.0385 32.061 19.4001 31.596 19.4001H20.0535ZM6 21.0535C6 14.7863 10.6552 9.59886 16.6951 8.77219C17.1705 8.70502 17.5735 9.08736 17.5735 9.56786V21.8802L25.6594 29.9661C26.0056 30.3123 25.9797 30.8806 25.5819 31.1596C23.5565 32.6063 21.0765 33.4536 18.4001 33.4536C11.5542 33.4536 6 27.9046 6 21.0535ZM33.1976 21.8802C33.6781 21.8802 34.0553 22.2832 33.9933 22.7585C33.5955 25.6467 32.2056 28.2146 30.1751 30.1108C29.8651 30.4001 29.3794 30.3794 29.0798 30.0746L20.8802 21.8802H33.1976Z" fill="url(#paint0_linear_2432_14274)"/>
<defs>
<linearGradient id="paint0_linear_2432_14274" x1="19.9845" y1="6.99841" x2="32.5379" y2="16.1527" gradientUnits="userSpaceOnUse">
<stop stop-color="#FFA800"/>
<stop offset="1" stop-color="#E27F00"/>
</linearGradient>
</defs>
</svg>
