<svg width="33" height="32" viewBox="0 0 33 32" fill="none" xmlns="http://www.w3.org/2000/svg">
<path d="M18.1417 6.97403C18.1417 6.06634 17.4083 5.33301 16.5007 5.33301C15.593 5.33301 14.8596 6.06634 14.8596 6.97403V14.3586H7.47501C6.56732 14.3586 5.83398 15.092 5.83398 15.9997C5.83398 16.9074 6.56732 17.6407 7.47501 17.6407H14.8596V25.0253C14.8596 25.933 15.593 26.6663 16.5007 26.6663C17.4083 26.6663 18.1417 25.933 18.1417 25.0253V17.6407H25.5263C26.434 17.6407 27.1673 16.9074 27.1673 15.9997C27.1673 15.092 26.434 14.3586 25.5263 14.3586H18.1417V6.97403Z" fill="#64748B"/>
</svg>
