<svg width="24" height="24" viewBox="0 0 24 24" fill="none" xmlns="http://www.w3.org/2000/svg">
<path fill-rule="evenodd" clip-rule="evenodd" d="M12 22C17.5228 22 22 17.5228 22 12C22 6.47715 17.5228 2 12 2C6.47715 2 2 6.47715 2 12C2 17.5228 6.47715 22 12 22ZM11.9984 6C12.2779 6 12.5324 6.15907 12.6528 6.40905L14.1141 9.41554L17.3796 9.89731C17.6523 9.93821 17.8773 10.1291 17.9636 10.3904C18.05 10.6518 17.9795 10.9404 17.7841 11.1335L15.4162 13.4765L15.9775 16.7875C16.0229 17.0602 15.9093 17.3351 15.6843 17.4988C15.4594 17.6624 15.1617 17.6806 14.9162 17.551L12.0006 15.9944L9.08504 17.551C8.83961 17.6806 8.54192 17.6601 8.31694 17.4988C8.09197 17.3374 7.97834 17.0602 8.02379 16.7875L8.58282 13.4765L6.2149 11.1335C6.01946 10.9404 5.95129 10.6518 6.03537 10.3904C6.11945 10.1291 6.3467 9.93821 6.6194 9.89731L9.88269 9.41554L11.3439 6.40905C11.4666 6.15907 11.7189 6 11.9984 6Z" fill="#FFA800"/>
</svg>
