<svg width="24" height="24" viewBox="0 0 24 24" fill="none" xmlns="http://www.w3.org/2000/svg">
<path d="M3.59267 9.17247C4.11509 9.17247 4.39624 8.88104 4.39624 8.34875V5.97875C4.39624 4.93389 4.95852 4.40161 5.96309 4.40161H8.39395C8.91638 4.40161 9.20738 4.11018 9.20738 3.58775C9.20738 3.07561 8.91595 2.78418 8.39395 2.78418H5.93309C3.84381 2.78418 2.77881 3.81875 2.77881 5.88789V8.34918C2.77881 8.88147 3.07024 9.17247 3.59267 9.17247ZM20.4072 9.17247C20.9395 9.17247 21.2211 8.88104 21.2211 8.34875V5.88789C21.2211 3.81875 20.1762 2.78418 18.0668 2.78418H15.6158C15.0835 2.78418 14.7925 3.07561 14.7925 3.58775C14.7925 4.11018 15.084 4.40161 15.6158 4.40161H18.0467C19.0311 4.40161 19.6037 4.93389 19.6037 5.97875V8.34875C19.6037 8.88146 19.8951 9.17247 20.4072 9.17247ZM11.568 11.131V7.62575C11.568 7.38489 11.3772 7.18389 11.1261 7.18389H7.63067C7.37952 7.18389 7.18838 7.38447 7.18838 7.62575V11.1315C7.18838 11.3723 7.37952 11.5635 7.63067 11.5635H11.1261C11.3772 11.5635 11.568 11.3719 11.568 11.131ZM13.3058 8.05818H15.9372V10.6896H13.3058V8.05818ZM15.1744 9.92675V8.83132H14.0794V9.92632L15.1744 9.92675ZM9.93081 9.92675V8.83132H8.82595V9.92632L9.93081 9.92675ZM8.06224 13.3116H10.6941V15.943H8.06267L8.06224 13.3116ZM16.6808 13.6528V12.5582H15.5858V13.6532L16.6808 13.6528ZM13.6572 13.6528V12.5582H12.5622V13.6532L13.6572 13.6528ZM9.93081 15.1699V14.0745H8.82595V15.169L9.93081 15.1699ZM15.174 15.1699V14.0745H14.0691V15.169L15.174 15.1699ZM15.6158 21.2166H18.0672C20.1762 21.2166 21.2211 20.1718 21.2211 18.1026V15.6516C21.2211 15.1189 20.9297 14.8279 20.4072 14.8279C19.8848 14.8279 19.6037 15.1193 19.6037 15.6516V18.0216C19.6037 19.0665 19.0311 19.5988 18.0467 19.5988H15.6158C15.0835 19.5988 14.7925 19.8902 14.7925 20.4126C14.7925 20.9248 15.084 21.2166 15.6158 21.2166ZM5.93309 21.2162H8.39395C8.91638 21.2162 9.20738 20.9248 9.20738 20.4126C9.20738 19.8902 8.91595 19.5992 8.39395 19.5992H5.96309C4.95852 19.5992 4.39624 19.0665 4.39624 18.022V15.6516C4.39624 15.1189 4.10481 14.8279 3.59267 14.8279C3.06038 14.8279 2.77881 15.1193 2.77881 15.6516V18.1022C2.77881 20.1816 3.84381 21.2162 5.93309 21.2162ZM13.6572 16.6862V15.5912H12.5622V16.6862H13.6572ZM16.6808 16.6862V15.5912H15.5858V16.6862H16.6808ZM16.8115 11.1315V7.62575C16.8115 7.38489 16.6204 7.18389 16.3692 7.18389H12.8742C12.6231 7.18389 12.4324 7.38447 12.4324 7.62575V11.1315C12.4324 11.3723 12.6231 11.5635 12.8738 11.5635H16.3697C16.6208 11.5635 16.8115 11.3723 16.8115 11.1315ZM8.06224 8.05732H10.6941V10.6888H8.06267L8.06224 8.05732ZM11.568 16.3742V12.8685C11.568 12.6276 11.3772 12.4369 11.1261 12.4369H7.63067C7.37952 12.4369 7.18838 12.6276 7.18838 12.8685V16.3742C7.18838 16.6155 7.37952 16.816 7.63067 16.816H11.1261C11.3772 16.816 11.568 16.6155 11.568 16.3742Z" fill="#434E61"/>
</svg>
