<svg width="40" height="40" viewBox="0 0 40 40" fill="none" xmlns="http://www.w3.org/2000/svg">
<path d="M15.7205 7.00239L26.14 7.0007C28.6336 6.99959 29.2681 7.17235 30.3865 9.34866L33.0028 14.4049C33.6119 15.6023 34.3707 16.5599 33.7956 17.9668C33.0979 19.6734 30.5554 20.2388 29.6657 18.4425C29.3261 17.7568 29.4352 17.0685 29.2085 16.369C28.9706 15.6346 28.6318 14.9152 28.3552 14.1925L27.4768 11.9335C27.3142 11.5059 27.098 10.4834 26.6312 10.3105C26.2233 10.1594 25.8061 10.4918 25.8363 10.9224C25.8619 11.288 26.1287 11.6692 26.2653 12.0074L27.5994 15.3332C27.8032 15.8436 28.174 16.6442 28.269 17.1519C28.418 17.949 27.6212 18.9517 26.9372 19.2872C25.8787 19.8064 24.5682 19.411 24.0168 18.3614C23.725 17.806 23.7023 17.1732 23.5792 16.5699C23.3585 15.4884 23.086 14.4174 22.8477 13.3397L22.5096 11.7944C22.4387 11.4695 22.3674 10.9718 22.2173 10.6824C21.9245 10.1182 21.125 10.3176 21.0886 10.9295C21.0741 11.1717 21.9992 14.6953 22.1029 15.1202C22.2938 15.9022 22.6902 16.8589 22.4703 17.6671C21.6878 20.226 17.651 19.7989 17.4717 17.2415C17.4354 16.7242 18.4041 12.9836 18.5751 12.3261C18.667 11.9731 18.8964 11.2583 18.9064 10.9437C18.9276 10.2763 18.1272 10.066 17.8069 10.6415C17.6781 10.8728 17.5156 11.7771 17.448 12.0765L16.4795 16.3328C16.284 17.2335 16.3163 18.2485 15.5879 18.9273C14.6558 19.7959 13.1618 19.6706 12.3153 18.7477C11.258 17.595 11.9306 16.6485 12.4033 15.4395L13.6952 12.206C13.8587 11.8029 14.7176 10.1989 13.6014 10.2401C13.0588 10.26 12.8823 11.1267 12.7315 11.5226L11.9725 13.5138C11.5938 14.4795 11.0775 15.5195 10.7591 16.491C10.4801 17.3423 10.7874 18.1165 10.0265 18.8978C8.26042 20.7113 5.2299 18.4509 6.18038 16.0557C6.32144 15.7002 6.50311 15.3559 6.67669 15.0155L9.03089 10.5084C10.3542 7.9779 10.4968 7.01068 13.7649 7L15.7205 7.00239Z" fill="url(#paint0_linear_2432_14287)"/>
<path fill-rule="evenodd" clip-rule="evenodd" d="M22.9831 18.851C24.243 21.0554 27.1502 21.0853 28.7124 19.1535C29.4218 19.9694 30.2271 20.5566 31.3485 20.5454C31.3841 21.0117 31.3788 21.485 31.3736 21.9559C31.3717 22.1243 31.3698 22.2926 31.3698 22.46L31.3702 28.245C31.3702 28.364 31.3717 28.4847 31.3733 28.6062C31.3792 29.0748 31.3853 29.5565 31.3073 30.0104C31.0739 31.3673 29.9224 32.4268 28.5416 32.5337C28.1927 32.5337 27.8437 32.5337 27.4949 32.5337C27.5074 32.2232 27.4984 31.8731 27.4895 31.53C27.4841 31.3204 27.4788 31.1133 27.4785 30.9194L27.4789 27.03C27.4796 25.7432 27.4478 24.692 26.4791 23.7127C25.304 22.5248 23.24 22.5415 22.0671 23.7262C21.0538 24.7498 21.0641 25.932 21.0754 27.2333C21.0765 27.3616 21.0776 27.4911 21.0778 27.6217L21.1172 31.6195V32.5307C21.6353 32.5307 22.1535 32.5299 22.6717 32.5291C23.8811 32.5271 25.0906 32.5251 26.2999 32.5338C24.1336 32.5341 21.9729 32.5347 19.8281 32.5354C17.0004 32.5362 14.2005 32.537 11.452 32.537C10.1334 32.4741 8.95722 31.4067 8.70234 30.1183C8.62311 29.7178 8.62943 29.2764 8.63546 28.8548C8.63701 28.7465 8.63854 28.6396 8.6386 28.535L8.63919 22.8009C8.63919 22.6164 8.63816 22.4317 8.63713 22.247C8.63398 21.6801 8.63083 21.1122 8.65728 20.547C9.67586 20.5017 10.6374 19.9901 11.2053 19.1383C12.2481 20.6149 14.5314 21.0231 16.0225 19.9494C16.2753 19.7674 16.4594 19.5421 16.6451 19.3149C16.7563 19.1789 16.868 19.0421 16.9954 18.9135C18.2637 20.5469 20.3969 21.0882 22.0874 19.7558C22.303 19.5859 22.4795 19.3916 22.6572 19.1958C22.7626 19.0798 22.8684 18.9632 22.9831 18.851ZM15.4203 22.8503C16.9565 22.7663 17.9128 24.0129 17.9254 25.4605C17.9268 25.6179 17.9344 25.7875 17.9423 25.9637C17.9789 26.7825 18.022 27.7439 17.476 28.2918C16.9932 28.7762 16.5041 28.7644 15.9119 28.7502C15.8146 28.7479 15.7146 28.7455 15.6114 28.7452C13.4117 28.7469 13.05 28.4672 13.0527 26.1812C13.0547 24.3933 13.3576 23.0608 15.4203 22.8503Z" fill="url(#paint1_linear_2432_14287)"/>
<defs>
<linearGradient id="paint0_linear_2432_14287" x1="19.9845" y1="6.99847" x2="32.2273" y2="16.2467" gradientUnits="userSpaceOnUse">
<stop stop-color="#FFA800"/>
<stop offset="1" stop-color="#E27F00"/>
</linearGradient>
<linearGradient id="paint1_linear_2432_14287" x1="19.9845" y1="6.99847" x2="32.2273" y2="16.2467" gradientUnits="userSpaceOnUse">
<stop stop-color="#FFA800"/>
<stop offset="1" stop-color="#E27F00"/>
</linearGradient>
</defs>
</svg>
