<svg width="40" height="40" viewBox="0 0 40 40" fill="none" xmlns="http://www.w3.org/2000/svg">
<path d="M26.9762 3.46523C27.0778 3.45469 27.1824 3.45522 27.2846 3.45438L28.6842 3.45365C30.8258 3.44929 31.5014 3.84482 31.5022 6.04621L31.505 7.35282C31.5057 7.84664 31.5684 8.39289 31.1849 8.77114C30.7401 9.20982 30.0667 9.22601 29.6284 8.76595C29.2547 8.37376 29.3109 7.89051 29.3234 7.39126C28.4382 7.84464 27.5002 8.56064 26.6632 9.11126C24.7737 10.3543 22.8961 11.4742 20.9566 12.6194C17.3301 14.7606 13.5969 16.7599 9.79918 18.5832C9.33049 18.8136 8.20018 19.4144 7.75212 19.5066C6.56137 19.7514 5.72188 18.2253 6.80962 17.3418C7.20481 17.0208 7.80649 16.7744 8.26562 16.5421L13.5256 13.9163C16.9942 12.1456 20.4226 10.2354 23.7056 8.14201C25.0781 7.26695 26.4232 6.3437 27.8301 5.52415C27.3437 5.5519 26.7982 5.62114 26.3782 5.32039C25.5675 4.73987 25.906 3.60473 26.9762 3.46523Z" fill="url(#paint0_linear_2432_14281)"/>
<path d="M24.0273 30.4358C23.9709 29.7867 24.0042 29.1144 24.0043 28.4623L23.9924 14.0758C23.9916 13.3961 24.3359 12.6785 24.8146 12.2073C25.4451 11.5868 27.9582 10.4494 28.8612 10.463C29.9823 10.4798 30.9478 11.4024 31.1845 12.4688C31.2922 12.954 31.2701 13.4684 31.27 13.9629L31.2691 15.3944C31.269 16.8878 31.2903 18.3839 31.2642 19.877C31.2914 21.9486 31.2703 24.0226 31.2701 26.0945L31.2697 28.5839C31.2695 29.1864 31.2767 29.7886 31.2506 30.3907C32.0386 30.4455 34.0235 30.1989 34.4903 30.7482C34.8341 31.1528 34.7485 31.7483 34.3402 32.0731C33.9112 32.4144 33.2583 32.2756 32.7516 32.2753L12.2224 32.2774C11.7406 32.2774 11.2504 32.2949 10.7695 32.2678C10.4025 32.3178 10.0073 32.2774 9.63688 32.2775L5.44319 32.2773C5.03731 32.2773 4.60981 32.3019 4.20786 32.2459C3.48876 32.1458 3.18822 31.2408 3.69192 30.7093C4.15087 30.2251 6.37451 30.4219 7.12926 30.3967C7.09594 29.9093 7.11257 29.414 7.11244 28.9257V24.4373C7.11213 23.1451 7.05194 21.9508 8.28388 21.1419C8.74938 20.8362 10.6769 20.2635 11.2329 20.1873C12.1684 20.0591 13.0911 20.6108 13.5941 21.3828C14.1623 22.2549 14.0066 23.5452 14.0059 24.5313L14.0068 29.4234C14.0078 29.7271 14.0478 30.0951 13.9846 30.3902C14.5089 30.4368 15.0412 30.3973 15.5675 30.4206C15.5466 30.1819 15.5314 29.9448 15.5303 29.7051L15.5296 20.1829C15.5289 18.8971 15.4943 17.4561 16.8287 16.7659C17.5663 16.3844 19.5349 15.7651 20.2651 15.7714C21.3574 15.7808 22.2213 16.6856 22.4201 17.7159C22.5227 18.2469 22.5014 18.7947 22.5013 19.3329L22.4978 26.9999L22.5013 29.218C22.5013 29.4983 22.5439 30.0746 22.4717 30.3254L22.4835 30.3786C22.5797 30.4389 23.7849 30.4145 24.0273 30.4358Z" fill="url(#paint1_linear_2432_14281)"/>
<defs>
<linearGradient id="paint0_linear_2432_14281" x1="18.8935" y1="3.45265" x2="26.8838" y2="12.0814" gradientUnits="userSpaceOnUse">
<stop stop-color="#FFA800"/>
<stop offset="1" stop-color="#E27F00"/>
</linearGradient>
<linearGradient id="paint1_linear_2432_14281" x1="19.0557" y1="10.4616" x2="29.94" y2="21.1952" gradientUnits="userSpaceOnUse">
<stop stop-color="#FFA800"/>
<stop offset="1" stop-color="#E27F00"/>
</linearGradient>
</defs>
</svg>
