<svg width="32" height="32" viewBox="0 0 32 32" fill="none" xmlns="http://www.w3.org/2000/svg">
<g style="mix-blend-mode:luminosity">
<path d="M15.4788 5.43951L6.14451 9.4399C5.56112 9.68993 5.23609 10.315 5.36526 10.9317C5.49444 11.5484 6.03616 11.9985 6.66956 11.9985V12.3319C6.66956 12.8861 7.11544 13.3319 7.66966 13.3319H24.338C24.8922 13.3319 25.338 12.8861 25.338 12.3319V11.9985C25.9714 11.9985 26.5173 11.5526 26.6423 10.9317C26.7674 10.3108 26.4423 9.68576 25.8631 9.4399L16.5289 5.43951C16.1955 5.29783 15.8121 5.29783 15.4788 5.43951ZM10.6699 14.6654H8.00302V22.8454C7.97802 22.8579 7.95302 22.8745 7.92801 22.8912L5.92782 24.2247C5.44027 24.5497 5.21942 25.1581 5.39027 25.7207C5.56112 26.2832 6.082 26.6666 6.66956 26.6666H25.338C25.9256 26.6666 26.4423 26.2832 26.6132 25.7207C26.784 25.1581 26.5673 24.5497 26.0756 24.2247L24.0754 22.8912C24.0504 22.8745 24.0254 22.862 24.0004 22.8454L24.0046 14.6654H21.3377V22.6662H19.6708V14.6654H17.0039V22.6662H15.0037V14.6654H12.3368V22.6662H10.6699V14.6654ZM16.0038 7.9981C16.3575 7.9981 16.6966 8.13858 16.9467 8.38866C17.1968 8.63873 17.3373 8.9779 17.3373 9.33156C17.3373 9.68522 17.1968 10.0244 16.9467 10.2745C16.6966 10.5245 16.3575 10.665 16.0038 10.665C15.6501 10.665 15.311 10.5245 15.0609 10.2745C14.8108 10.0244 14.6703 9.68522 14.6703 9.33156C14.6703 8.9779 14.8108 8.63873 15.0609 8.38866C15.311 8.13858 15.6501 7.9981 16.0038 7.9981Z" fill="url(#paint0_linear_6069_72833)"/>
</g>
<defs>
<linearGradient id="paint0_linear_6069_72833" x1="16.0304" y1="1.25482" x2="16.0304" y2="30.4313" gradientUnits="userSpaceOnUse">
<stop stop-color="#E6B419"/>
<stop offset="1" stop-color="#E27F00"/>
</linearGradient>
</defs>
</svg>
