<svg width="32" height="32" viewBox="0 0 32 32" fill="none" xmlns="http://www.w3.org/2000/svg">
<g style="mix-blend-mode:luminosity">
<path d="M16.0426 15.5202V6.28624C16.0426 5.91423 16.3319 5.6001 16.7039 5.6001C21.8169 5.6001 25.9627 9.74588 25.9627 14.8589C25.9627 15.2309 25.6486 15.5202 25.2766 15.5202H16.0426ZM4.7998 16.8429C4.7998 11.8291 8.52398 7.67919 13.3559 7.01785C13.7362 6.96411 14.0586 7.26998 14.0586 7.65439V17.5042L20.5273 23.973C20.8043 24.2499 20.7836 24.7046 20.4653 24.9278C18.845 26.0851 16.861 26.763 14.7199 26.763C9.24319 26.763 4.7998 22.3238 4.7998 16.8429ZM26.5579 17.5042C26.9423 17.5042 27.2441 17.8266 27.1945 18.2069C26.8762 20.5175 25.7643 22.5718 24.1399 24.0887C23.8919 24.3202 23.5033 24.3036 23.2636 24.0598L16.7039 17.5042H26.5579Z" fill="url(#paint0_linear_6069_72836)"/>
</g>
<defs>
<linearGradient id="paint0_linear_6069_72836" x1="16.0297" y1="1.55425" x2="16.0297" y2="30.4976" gradientUnits="userSpaceOnUse">
<stop stop-color="#E6B419"/>
<stop offset="1" stop-color="#E27F00"/>
</linearGradient>
</defs>
</svg>
