<svg width="40" height="40" viewBox="0 0 40 40" fill="none" xmlns="http://www.w3.org/2000/svg">
<path fill-rule="evenodd" clip-rule="evenodd" d="M19.3999 11.5657L22.0521 8.89548C22.2159 8.73176 22.3774 8.56352 22.5392 8.39493L22.5392 8.39492C22.8986 8.02043 23.2596 7.64418 23.652 7.31185C26.1233 5.21829 29.9369 5.34962 32.2558 7.63273C34.4374 9.78061 34.8945 13.4599 33.1048 15.9736C32.5646 16.7324 31.8696 17.3821 31.181 18.0257L31.181 18.0257C30.8886 18.299 30.5974 18.5713 30.3197 18.8503L29.153 20.0246C29.0886 20.0895 29.0247 20.1555 28.9607 20.2216L28.9606 20.2217C28.818 20.3689 28.6749 20.5167 28.5247 20.6539C27.8715 20.1242 27.121 19.2874 26.4578 18.5479C26.2286 18.2924 26.0098 18.0485 25.8091 17.8329C24.896 16.8521 23.8767 15.878 22.8718 14.9176C22.4358 14.5009 22.0025 14.0868 21.5817 13.6759L20.2085 12.3082C20.1624 12.263 20.1163 12.2172 20.0701 12.1711L20.0701 12.1711C19.8567 11.9588 19.6396 11.7427 19.3999 11.5657ZM26.9382 9.29886C25.7344 9.59479 26.1587 11.2714 27.3323 11.0489C28.4893 10.7395 28.1978 9.23186 26.9382 9.29886ZM24.505 12.0194C23.3274 12.16 23.3537 13.7635 24.6217 13.7487C25.8442 13.5418 25.6843 12.0131 24.505 12.0194ZM29.6405 12.0367C30.7785 11.9517 31.0376 13.4467 29.8622 13.7517C28.6408 13.9109 28.4237 12.2249 29.6405 12.0367ZM27.1082 14.6729C28.2711 14.5776 28.5095 16.2718 27.3088 16.4268C25.9167 16.5101 25.9136 14.9008 27.1082 14.6729Z" fill="url(#paint0_linear_2432_42950)"/>
<path fill-rule="evenodd" clip-rule="evenodd" d="M12.1876 19.9824C11.9496 19.7865 11.6526 19.5419 11.5948 19.3394C11.1336 19.8115 10.6084 20.3127 10.071 20.8254L10.071 20.8254C9.08082 21.7702 8.0494 22.7543 7.30151 23.6687C5.17029 26.2747 5.46314 30.1235 7.8487 32.4639C10.0279 34.6019 13.6854 34.758 16.1111 32.9444C16.9211 32.3388 17.8355 31.3816 18.6708 30.5072L18.6709 30.5072C19.0242 30.1373 19.3634 29.7823 19.6745 29.475C19.7603 29.3903 19.8479 29.3071 19.9355 29.2239L19.9356 29.2238L19.9356 29.2238C20.1753 28.9962 20.4155 28.7682 20.6191 28.5074C20.2046 28.1982 19.5552 27.4623 19.0019 26.8353C18.7428 26.5416 18.5048 26.2719 18.3219 26.0811C16.419 24.0962 14.4045 22.0692 12.4072 20.1704C12.3508 20.1168 12.273 20.0528 12.1876 19.9824ZM12.8288 23.4597C11.6533 23.8073 11.9962 25.4044 13.2453 25.2257C14.4393 24.8106 14.036 23.3743 12.8288 23.4597ZM10.2466 26.1768C11.5099 26.0535 11.6535 27.613 10.571 27.8488C9.39441 28.0362 9.1111 26.5059 10.2466 26.1768ZM12.8534 28.9089C14.0789 28.8202 14.4494 30.2163 13.2697 30.6096C12.0816 30.8937 11.75 29.1761 12.8534 28.9089ZM15.3698 26.1572C16.583 26.1039 16.8848 27.6698 15.7077 27.9264C14.4699 28.1263 14.2229 26.3896 15.3698 26.1572Z" fill="url(#paint1_linear_2432_42950)"/>
<path fill-rule="evenodd" clip-rule="evenodd" d="M12.3226 18.5892C12.0545 18.834 11.7396 19.1214 11.5947 19.3396C11.6525 19.5421 11.9495 19.7867 12.1875 19.9827C12.2729 20.053 12.3507 20.1171 12.4071 20.1707C14.4044 22.0694 16.4189 24.0965 18.3218 26.0814C18.5047 26.2722 18.7427 26.5419 19.0018 26.8355C19.5551 27.4625 20.2045 28.1985 20.619 28.5076C20.8704 28.2054 21.1638 27.9267 21.4533 27.6516C21.5577 27.5524 21.6615 27.4538 21.7627 27.3547L28.5246 20.6542C25.319 17.2342 22.7658 14.681 19.3998 11.5659C19.0476 11.8779 18.7041 12.2363 18.3651 12.59C18.195 12.7674 18.0261 12.9436 17.8578 13.1122L12.5957 18.3354C12.5192 18.4098 12.4243 18.4965 12.3226 18.5892ZM22.2869 16.9155C20.1511 15.3363 17.0541 16.385 16.3271 18.9519C15.885 20.3163 16.4114 21.9598 17.4646 22.8917C19.989 25.1253 24.0391 23.0885 23.8212 19.7498C23.7631 18.8607 23.3428 17.842 22.6608 17.2409C22.5589 17.1181 22.415 17.0102 22.2869 16.9155ZM19.7634 17.9909C19.7392 17.6947 19.7155 17.4051 20.0721 17.317C20.3556 17.4167 20.3476 17.632 20.3388 17.8678C20.3363 17.9364 20.3337 18.0067 20.3382 18.0764L20.3393 18.0937C20.4215 18.1217 20.5107 18.1379 20.5989 18.1539C20.8541 18.2001 21.1007 18.2447 21.1413 18.5723C20.9998 18.8528 20.8311 18.7926 20.6279 18.7199C20.5643 18.6972 20.4974 18.6733 20.4268 18.6582C19.6301 18.4882 19.1652 19.0719 19.853 19.4521C19.9876 19.5265 20.1333 19.5876 20.279 19.6486C20.6994 19.8247 21.1184 20.0003 21.2604 20.4928C21.4584 21.18 20.9842 21.6904 20.3338 21.8247C20.3335 21.8568 20.3344 21.8943 20.3354 21.9351C20.3402 22.1324 20.3469 22.406 20.2287 22.5189C20.1052 22.6368 19.893 22.6407 19.7836 22.5011C19.6872 22.3781 19.7078 22.1276 19.7224 21.9501C19.7247 21.9228 19.7268 21.8971 19.7283 21.874C19.4481 21.853 19.0326 21.8164 18.8374 21.5835C18.7426 21.4705 18.7235 21.2423 18.8466 21.1402C18.9759 21.033 19.1775 21.131 19.3326 21.2064C19.3721 21.2256 19.4087 21.2433 19.4402 21.2558C19.8292 21.41 20.5872 21.3885 20.6352 20.8406C20.6676 20.4702 20.3092 20.3272 19.8962 20.1625C19.4838 19.998 19.0168 19.8117 18.8298 19.3555C18.6849 18.6354 19.1624 18.3432 19.7735 18.1324C19.7711 18.0856 19.7672 18.0381 19.7634 17.9909Z" fill="#05807C"/>
<defs>
<linearGradient id="paint0_linear_2432_42950" x1="25.133" y1="20.8983" x2="28.2959" y2="6.57966" gradientUnits="userSpaceOnUse">
<stop stop-color="#05807C"/>
<stop offset="1" stop-color="#04C8BC"/>
</linearGradient>
<linearGradient id="paint1_linear_2432_42950" x1="11.5776" y1="34.4405" x2="14.7635" y2="20.1016" gradientUnits="userSpaceOnUse">
<stop stop-color="#05807C"/>
<stop offset="1" stop-color="#04C8BC"/>
</linearGradient>
</defs>
</svg>
