<svg width="24" height="24" viewBox="0 0 24 24" fill="none" xmlns="http://www.w3.org/2000/svg">
<rect x="1" y="1" width="22" height="22" rx="3" stroke="#C6ECEA" stroke-width="2"/>
<path d="M11.6077 4.07968L4.60849 7.07933C4.17105 7.2668 3.92732 7.7355 4.02419 8.19794C4.12105 8.66039 4.52725 8.99785 5.0022 8.99785V9.24782C5.0022 9.6634 5.33653 9.99773 5.75211 9.99773H18.2506C18.6662 9.99773 19.0006 9.6634 19.0006 9.24782V8.99785C19.4755 8.99785 19.8848 8.66351 19.9786 8.19794C20.0723 7.73237 19.8286 7.26368 19.3943 7.07933L12.3951 4.07968C12.1451 3.97344 11.8576 3.97344 11.6077 4.07968ZM8.00184 10.9976H6.00208V17.1313C5.98333 17.1406 5.96458 17.1531 5.94584 17.1656L4.44601 18.1655C4.08043 18.4092 3.91483 18.8654 4.04294 19.2873C4.17105 19.7091 4.56162 19.9966 5.0022 19.9966H19.0006C19.4411 19.9966 19.8286 19.7091 19.9567 19.2873C20.0848 18.8654 19.9223 18.4092 19.5536 18.1655L18.0538 17.1656C18.035 17.1531 18.0163 17.1438 17.9975 17.1313L18.0007 10.9976H16.0009V16.9969H14.7511V10.9976H12.7513V16.9969H11.2515V10.9976H9.2517V16.9969H8.00184V10.9976ZM12.0014 5.9982C12.2666 5.9982 12.5209 6.10355 12.7084 6.29106C12.8959 6.47858 13.0013 6.7329 13.0013 6.99809C13.0013 7.26327 12.8959 7.51759 12.7084 7.70511C12.5209 7.89262 12.2666 7.99797 12.0014 7.99797C11.7362 7.99797 11.4819 7.89262 11.2944 7.70511C11.1068 7.51759 11.0015 7.26327 11.0015 6.99809C11.0015 6.7329 11.1068 6.47858 11.2944 6.29106C11.4819 6.10355 11.7362 5.9982 12.0014 5.9982Z" fill="#009F99"/>
</svg>
