<svg width="24" height="24" viewBox="0 0 24 24" fill="none" xmlns="http://www.w3.org/2000/svg">
<path d="M11.6093 4.0797L4.60862 7.07999C4.17108 7.26751 3.92731 7.7363 4.02419 8.19885C4.12108 8.66139 4.52737 8.99893 5.00241 8.99893V9.24895C5.00241 9.66462 5.33682 9.99902 5.75249 9.99902H18.2537C18.6694 9.99902 19.0038 9.66462 19.0038 9.24895V8.99893C19.4788 8.99893 19.8882 8.66452 19.982 8.19885C20.0758 7.73318 19.832 7.26438 19.3976 7.07999L12.3969 4.0797C12.1469 3.97343 11.8593 3.97343 11.6093 4.0797ZM8.00271 10.9991H6.00251V17.1341C5.98376 17.1435 5.96501 17.156 5.94626 17.1685L4.44611 18.1686C4.08045 18.4123 3.91481 18.8686 4.04294 19.2906C4.17108 19.7125 4.56175 20 5.00241 20H19.0038C19.4444 20 19.832 19.7125 19.9601 19.2906C20.0883 18.8686 19.9257 18.4123 19.557 18.1686L18.0568 17.1685C18.0381 17.156 18.0193 17.1466 18.0006 17.1341L18.0037 10.9991H16.0035V16.9997H14.7534V10.9991H12.7532V16.9997H11.253V10.9991H9.25283V16.9997H8.00271V10.9991ZM12.0031 5.99863C12.2683 5.99863 12.5227 6.104 12.7103 6.29155C12.8978 6.47911 13.0032 6.73349 13.0032 6.99873C13.0032 7.26397 12.8978 7.51835 12.7103 7.70591C12.5227 7.89346 12.2683 7.99883 12.0031 7.99883C11.7379 7.99883 11.4835 7.89346 11.2959 7.70591C11.1084 7.51835 11.003 7.26397 11.003 6.99873C11.003 6.73349 11.1084 6.47911 11.2959 6.29155C11.4835 6.104 11.7379 5.99863 12.0031 5.99863Z" fill="#434E61"/>
</svg>
