<svg width="40" height="40" viewBox="0 0 40 40" fill="none" xmlns="http://www.w3.org/2000/svg">
<path d="M8.21631 11.4811C8.31737 10.157 9.29237 9.90611 10.414 9.90005C11.8799 9.89211 12.5151 10.203 12.6458 11.7243L12.6353 11.7628C12.5155 11.883 11.986 11.7857 11.8167 11.7854L9.47093 11.7848C9.06456 11.7845 8.617 11.751 8.218 11.8196C8.21431 11.7065 8.22318 11.5945 8.21631 11.4811Z" fill="#FFCA1B"/>
<path d="M34.5375 27.5708C34.4231 28.9908 33.0396 30.2157 31.6689 30.3931C31.3636 30.4326 31.035 30.4104 30.7267 30.4104L10.3686 30.4095C9.80862 30.4095 9.24019 30.4316 8.68125 30.4061C7.13981 30.3358 5.82935 29.1773 5.56222 27.6635C5.45245 27.0414 5.50617 26.3647 5.50724 25.7338L5.5067 16.0313C5.50441 14.8633 5.51243 13.6701 6.462 12.8096L6.48362 12.8353C5.81501 13.6872 5.59104 14.0173 5.55915 15.1991C5.52328 16.5283 5.56383 17.8611 5.557 19.1906L5.55784 22.1911C5.5617 23.2293 5.5976 23.941 5.7133 24.9505L5.7317 24.9374L5.71448 24.9547C5.72621 24.9266 5.71649 24.9356 5.7403 24.9248L5.76694 24.8838L5.79489 24.8793C5.81948 24.9015 6.39219 26.1371 6.4345 26.2292C6.80812 27.0413 7.14181 27.7895 8.00294 28.1788C8.59575 28.4468 8.77131 28.266 9.294 28.3293C9.62044 28.3688 9.97512 28.7281 10.2949 28.8567C10.734 29.0333 11.2187 29.037 11.6702 29.0788C13.4774 29.2459 15.1549 29.1499 16.9224 29.2113C17.6919 29.2379 18.6459 29.4256 19.3851 29.3688C19.4744 29.362 19.5714 29.3486 19.6602 29.3601L19.6795 29.4009C20.835 29.3547 21.9806 29.2232 23.1395 29.2637C24.0306 29.2949 24.8912 29.3024 25.7772 29.3261C26.4944 29.3453 27.1132 29.4476 27.8708 29.4451L30.2321 29.4256C30.3769 29.4226 30.6287 29.3776 30.759 29.4211C31.2352 29.5802 32.0208 29.2349 32.6039 29.686C32.7477 29.7973 32.6981 29.5714 32.8342 29.5493C32.9136 29.6146 32.9376 29.8348 32.9859 29.8631C33.0178 29.8375 33.0279 29.7884 33.0615 29.7763C33.6781 29.5538 34.2931 28.5122 34.4571 27.8609C34.4817 27.7636 34.4576 27.6359 34.5252 27.5532L34.5375 27.5708Z" fill="url(#paint0_linear_2534_9416)"/>
<path d="M12.6628 11.9114C13.5159 11.503 13.9591 11.0303 14.5628 10.3292C15.7689 8.92835 16.2749 8.8126 17.9838 8.80723L21.6956 8.8066C22.3078 8.80523 22.9395 8.74935 23.527 8.95854C24.9119 9.4516 25.3233 10.8761 26.6418 11.4504C27.938 12.0149 30.376 11.448 31.8342 11.7412C33.4349 12.0632 34.4884 13.4762 34.5957 15.0487C34.6469 15.8004 34.6086 16.5764 34.6083 17.3303L34.6088 25.3331C34.609 25.76 34.6951 27.2697 34.5373 27.5707L34.525 27.5531C34.4574 27.6358 34.4815 27.7635 34.4569 27.8608C34.2929 28.5121 33.6779 29.5537 33.0613 29.7762C33.0277 29.7883 33.0176 29.8374 32.9858 29.863C32.9374 29.8347 32.9134 29.6145 32.8341 29.5492C32.6979 29.5713 32.7476 29.7972 32.6038 29.6859C32.0206 29.2348 31.2351 29.5801 30.7588 29.421C30.6285 29.3775 30.3767 29.4225 30.2319 29.4255L27.8706 29.445C27.113 29.4475 26.4942 29.3452 25.777 29.326C24.8911 29.3023 24.0304 29.2948 23.1393 29.2636C21.9804 29.2231 20.8348 29.3546 19.6793 29.4008L19.6601 29.36C19.5712 29.3485 19.4743 29.3619 19.3849 29.3687C18.6458 29.4255 17.6918 29.2379 16.9222 29.2112C15.1548 29.1499 13.4773 29.2459 11.67 29.0787C11.2186 29.0369 10.7338 29.0332 10.2947 28.8566C9.97494 28.728 9.62025 28.3687 9.29381 28.3292C8.77113 28.2659 8.59556 28.4467 8.00275 28.1787C7.14163 27.7894 6.80794 27.0412 6.43431 26.2291C6.392 26.137 5.81929 24.9014 5.79471 24.8792L5.76675 24.8837L5.74011 24.9247C5.71631 24.9355 5.72603 24.9265 5.71429 24.9546L5.73152 24.9373L5.71311 24.9504C5.59741 23.9409 5.56151 23.2292 5.55766 22.191L5.55681 19.1905C5.56364 17.861 5.52309 16.5282 5.55896 15.199C5.59085 14.0172 5.81483 13.6871 6.48344 12.8352L6.46181 12.8095C6.81313 12.2984 7.6345 11.9602 8.20238 11.8104C8.20144 11.7014 8.19238 11.5875 8.2165 11.4808C8.22338 11.5942 8.2145 11.7062 8.21819 11.8193C8.61719 11.7507 9.06475 11.7842 9.47113 11.7845L11.8169 11.785C11.9862 11.7854 12.5157 11.8827 12.6355 11.7625L12.646 11.724C12.654 11.7865 12.6595 11.8484 12.6628 11.9114ZM19.8398 13.8178C18.1112 13.9016 16.4944 14.5824 15.3199 15.8748C11.3761 20.2145 14.2896 27.6117 20.2134 27.3697C24.0179 27.2612 26.6574 24.0621 26.5489 20.3492C26.4404 16.6322 23.5905 13.7704 19.8398 13.8178ZM19.8283 10.5569C19.1608 10.5539 18.4423 10.3759 18.2071 11.1557C18.5088 11.9499 19.2933 11.6554 20.0293 11.676C20.4238 11.6814 21.6578 11.8129 21.6378 11.1382C21.6137 10.3284 20.3161 10.556 19.8283 10.5569Z" fill="url(#paint1_linear_2534_9416)"/>
<path d="M9.94508 14.382C10.4718 14.3547 11.5503 14.3542 12.0566 14.4007C12.3841 14.4308 12.5041 14.711 12.5545 15.0104L12.5403 15.05C12.4416 15.3257 12.2785 15.5018 11.9746 15.5453C11.4825 15.5474 10.326 15.6175 9.8897 15.5583C9.1612 15.4594 9.23533 14.4484 9.94508 14.382Z" fill="#FFF6C5"/>
<path d="M29.2374 13.9541C32.163 13.9622 32.0371 18.1836 29.2424 18.2252C26.4045 18.2158 26.2993 14.0809 29.2374 13.9541Z" fill="#FFF6C5"/>
<path d="M29.2799 14.9883C30.5956 15.0308 30.7656 17.0056 29.2416 17.1671C27.7837 16.9603 27.7848 15.1008 29.2799 14.9883Z" fill="#FFA800"/>
<path d="M19.9868 14.9119C22.9589 14.8594 25.3088 17.4905 25.4398 20.3699C25.5842 23.5435 23.2204 26.0718 20.0743 26.2085C17.078 26.1652 14.7464 23.8642 14.6146 20.8588C14.4771 17.722 16.823 15.0475 19.9868 14.9119ZM21.4341 17.7377C20.3901 18.0792 21.178 18.6668 21.5626 19.0363C21.9834 19.4405 22.2506 19.9112 22.303 20.4937C22.3448 20.9595 22.2785 21.5514 22.9201 21.4926C24.2955 20.9978 22.6121 17.8192 21.4341 17.7377Z" fill="#FFA800"/>
<defs>
<linearGradient id="paint0_linear_2534_9416" x1="19.9992" y1="12.8085" x2="28.7043" y2="22.7007" gradientUnits="userSpaceOnUse">
<stop stop-color="#FFA800"/>
<stop offset="1" stop-color="#E27F00"/>
</linearGradient>
<linearGradient id="paint1_linear_2534_9416" x1="20.0721" y1="8.79757" x2="30.5575" y2="18.7734" gradientUnits="userSpaceOnUse">
<stop stop-color="#FFA800"/>
<stop offset="1" stop-color="#E27F00"/>
</linearGradient>
</defs>
</svg>
