<svg width="24" height="24" viewBox="0 0 24 24" fill="none" xmlns="http://www.w3.org/2000/svg">
<rect x="1" y="1" width="22" height="22" rx="3" stroke="#C6E5B3" stroke-width="2"/>
<path d="M5.77778 6C4.79722 6 4 6.79722 4 7.77778V8.66667H20V7.77778C20 6.79722 19.2028 6 18.2222 6H5.77778ZM20 11.3333H4V16.6667C4 17.6472 4.79722 18.4444 5.77778 18.4444H18.2222C19.2028 18.4444 20 17.6472 20 16.6667V11.3333ZM7.11111 14.8889H8.88889C9.13333 14.8889 9.33333 15.0889 9.33333 15.3333C9.33333 15.5778 9.13333 15.7778 8.88889 15.7778H7.11111C6.86667 15.7778 6.66667 15.5778 6.66667 15.3333C6.66667 15.0889 6.86667 14.8889 7.11111 14.8889ZM10.2222 15.3333C10.2222 15.0889 10.4222 14.8889 10.6667 14.8889H14.2222C14.4667 14.8889 14.6667 15.0889 14.6667 15.3333C14.6667 15.5778 14.4667 15.7778 14.2222 15.7778H10.6667C10.4222 15.7778 10.2222 15.5778 10.2222 15.3333Z" fill="#71BE43"/>
</svg>
