<svg width="24" height="24" viewBox="0 0 24 24" fill="none" xmlns="http://www.w3.org/2000/svg">
<path d="M11.2929 11.2949C10.9024 11.6854 10.9024 12.3197 11.2929 12.7102L17.2917 18.709C17.6823 19.0996 18.3165 19.0996 18.7071 18.709C19.0976 18.3185 19.0976 17.6842 18.7071 17.2937L13.4144 12.001L18.704 6.70826C19.0945 6.31771 19.0945 5.68346 18.704 5.29291C18.3134 4.90236 17.6792 4.90236 17.2886 5.29291L11.2898 11.2917L11.2929 11.2949Z" fill="#434E61"/>
<path d="M5.29291 11.2949C4.90236 11.6854 4.90236 12.3197 5.29291 12.7102L11.2917 18.709C11.6823 19.0996 12.3165 19.0996 12.7071 18.709C13.0976 18.3185 13.0976 17.6842 12.7071 17.2937L7.41437 12.001L12.704 6.70826C13.0945 6.31771 13.0945 5.68346 12.704 5.29291C12.3134 4.90236 11.6792 4.90236 11.2886 5.29291L5.28979 11.2917L5.29291 11.2949Z" fill="#434E61"/>
</svg>
