<svg width="24" height="24" viewBox="0 0 24 24" fill="none" xmlns="http://www.w3.org/2000/svg">
<path d="M12.7071 11.2949C13.0976 11.6854 13.0976 12.3197 12.7071 12.7102L6.70826 18.709C6.31771 19.0996 5.68346 19.0996 5.29291 18.709C4.90236 18.3185 4.90236 17.6842 5.29291 17.2937L10.5856 12.001L5.29604 6.70826C4.90549 6.31771 4.90549 5.68346 5.29604 5.29291C5.68658 4.90236 6.32084 4.90236 6.71138 5.29291L12.7102 11.2917L12.7071 11.2949Z" fill="#434E61"/>
<path d="M18.7071 11.2949C19.0976 11.6854 19.0976 12.3197 18.7071 12.7102L12.7083 18.709C12.3177 19.0996 11.6835 19.0996 11.2929 18.709C10.9024 18.3185 10.9024 17.6842 11.2929 17.2937L16.5856 12.001L11.296 6.70826C10.9055 6.31771 10.9055 5.68346 11.296 5.29291C11.6866 4.90236 12.3208 4.90236 12.7114 5.29291L18.7102 11.2917L18.7071 11.2949Z" fill="#434E61"/>
</svg>
