<svg width="24" height="24" viewBox="0 0 24 24" fill="none" xmlns="http://www.w3.org/2000/svg">
<path d="M5.95 19.4C3.21719 19.4 1 17.1828 1 14.45C1 12.2913 2.38187 10.4556 4.30687 9.77844C4.30344 9.68563 4.3 9.59281 4.3 9.5C4.3 6.46125 6.76125 4 9.8 4C11.8384 4 13.6156 5.10688 14.5678 6.75688C15.0903 6.40625 15.7228 6.2 16.4 6.2C18.2219 6.2 19.7 7.67813 19.7 9.5C19.7 9.91938 19.6209 10.3181 19.48 10.6894C21.4875 11.095 23 12.8722 23 15C23 17.4303 21.0303 19.4 18.6 19.4H5.95ZM8.66563 11.9406C8.3425 12.2638 8.3425 12.7863 8.66563 13.1059C8.98875 13.4256 9.51125 13.4291 9.83094 13.1059L11.1716 11.7653L11.175 16.375C11.175 16.8322 11.5428 17.2 12 17.2C12.4572 17.2 12.825 16.8322 12.825 16.375V11.7653L14.1656 13.1059C14.4888 13.4291 15.0113 13.4291 15.3309 13.1059C15.6506 12.7828 15.6541 12.2603 15.3309 11.9406L12.5809 9.19063C12.2578 8.8675 11.7353 8.8675 11.4156 9.19063L8.66563 11.9406Z" fill="#434E61"/>
</svg>
