<svg width="24" height="24" viewBox="0 0 24 24" fill="none" xmlns="http://www.w3.org/2000/svg">
<path d="M11.3571 2H16.3433C16.8536 2 17.3437 2.20491 17.7054 2.56652L20.4335 5.29464C20.7951 5.65625 21 6.14643 21 6.6567V15.5C21 16.5647 20.1362 17.4286 19.0714 17.4286H11.3571C10.2924 17.4286 9.42857 16.5647 9.42857 15.5V3.92857C9.42857 2.86384 10.2924 2 11.3571 2ZM4.92857 7.14286H8.14286V9.71429H5.57143V20H13.2857V18.7143H15.8571V20.6429C15.8571 21.7076 14.9933 22.5714 13.9286 22.5714H4.92857C3.86384 22.5714 3 21.7076 3 20.6429V9.07143C3 8.0067 3.86384 7.14286 4.92857 7.14286Z" fill="#434E61"/>
</svg>
