<svg width="24" height="24" viewBox="0 0 24 24" fill="none" xmlns="http://www.w3.org/2000/svg">
<path fill-rule="evenodd" clip-rule="evenodd" d="M4 14C4 13.7348 4.10536 13.4804 4.29289 13.2929C4.48043 13.1054 4.73478 13 5 13H15C15.7956 13 16.5587 12.6839 17.1213 12.1213C17.6839 11.5587 18 10.7956 18 10V6C18 5.73478 18.1054 5.48043 18.2929 5.29289C18.4804 5.10536 18.7348 5 19 5C19.2652 5 19.5196 5.10536 19.7071 5.29289C19.8946 5.48043 20 5.73478 20 6V10C20 11.3261 19.4732 12.5979 18.5355 13.5355C17.5979 14.4732 16.3261 15 15 15H5C4.73478 15 4.48043 14.8946 4.29289 14.7071C4.10536 14.5196 4 14.2652 4 14Z" fill="#434E61"/>
<path fill-rule="evenodd" clip-rule="evenodd" d="M4.29279 14.7069C4.10532 14.5194 4 14.2651 4 13.9999C4 13.7348 4.10532 13.4804 4.29279 13.2929L8.29279 9.29292C8.48139 9.11076 8.73399 9.00997 8.99619 9.01224C9.25838 9.01452 9.5092 9.11969 9.6946 9.3051C9.88001 9.49051 9.98518 9.74132 9.98746 10.0035C9.98974 10.2657 9.88894 10.5183 9.70679 10.7069L6.41379 13.9999L9.70679 17.2929C9.8023 17.3852 9.87848 17.4955 9.93089 17.6175C9.9833 17.7395 10.0109 17.8707 10.012 18.0035C10.0132 18.1363 9.98789 18.268 9.93761 18.3909C9.88733 18.5138 9.81307 18.6254 9.71918 18.7193C9.62529 18.8132 9.51364 18.8875 9.39074 18.9377C9.26784 18.988 9.13616 19.0133 9.00339 19.0122C8.87061 19.011 8.73939 18.9834 8.61738 18.931C8.49538 18.8786 8.38503 18.8024 8.29279 18.7069L4.29279 14.7069Z" fill="#434E61"/>
</svg>
