<svg width="24" height="24" viewBox="0 0 24 24" fill="none" xmlns="http://www.w3.org/2000/svg">
<path d="M2.36426 3.17949C1.99864 2.89121 1.46778 2.95801 1.17949 3.32364C0.891213 3.68926 0.95801 4.22012 1.32364 4.5084L22.1361 20.8209C22.5018 21.1092 23.0326 21.0424 23.3209 20.6768C23.6092 20.3111 23.5424 19.7803 23.1768 19.492L19.4783 16.5951C20.8705 15.1678 21.8127 13.5682 22.2873 12.4326C22.4033 12.1549 22.4033 11.8455 22.2873 11.5678C21.7635 10.3127 20.6631 8.48457 19.0178 6.95879C17.3654 5.41895 15.0908 4.1252 12.2502 4.1252C9.85254 4.1252 7.85567 5.04981 6.29824 6.2627L2.36426 3.17949ZM8.84356 8.25606C9.74004 7.43692 10.9389 6.9377 12.2502 6.9377C15.0451 6.9377 17.3127 9.20528 17.3127 12.0002C17.3127 12.8756 17.0912 13.6982 16.701 14.4154L15.3439 13.3537C15.6393 12.6752 15.7166 11.8982 15.5127 11.1283C15.1225 9.66934 13.8322 8.68848 12.3979 8.62871C12.1939 8.62168 12.0744 8.84317 12.1377 9.04004C12.2115 9.26504 12.2537 9.5041 12.2537 9.75371C12.2537 10.1123 12.1693 10.4498 12.0217 10.7486L8.84707 8.25957L8.84356 8.25606ZM14.1135 16.7076C13.5369 16.9361 12.9076 17.0627 12.2502 17.0627C9.45528 17.0627 7.1877 14.7951 7.1877 12.0002C7.1877 11.7576 7.20528 11.5221 7.23692 11.29L3.92168 8.67793C3.12012 9.72207 2.54707 10.7627 2.21309 11.5678C2.09707 11.8455 2.09707 12.1549 2.21309 12.4326C2.73692 13.6877 3.83731 15.5158 5.48262 17.0416C7.13496 18.5814 9.40957 19.8752 12.2502 19.8752C13.9307 19.8752 15.4107 19.4217 16.6869 18.7326L14.1135 16.7076Z" fill="#434E61"/>
</svg>
