<svg width="24" height="24" viewBox="0 0 24 24" fill="none" xmlns="http://www.w3.org/2000/svg">
<path d="M12.1241 4C9.2835 4 7.00889 5.29375 5.35303 6.83359C3.70771 8.35937 2.60732 10.1875 2.08701 11.4426C1.971 11.7203 1.971 12.0297 2.08701 12.3074C2.60732 13.5625 3.70771 15.3906 5.35303 16.9164C7.00889 18.4562 9.2835 19.75 12.1241 19.75C14.9647 19.75 17.2394 18.4562 18.8952 16.9164C20.5405 15.3871 21.6409 13.5625 22.1647 12.3074C22.2808 12.0297 22.2808 11.7203 22.1647 11.4426C21.6409 10.1875 20.5405 8.35937 18.8952 6.83359C17.2394 5.29375 14.9647 4 12.1241 4ZM7.06162 11.875C7.06162 10.5323 7.59499 9.24467 8.54439 8.29527C9.4938 7.34587 10.7815 6.8125 12.1241 6.8125C13.4668 6.8125 14.7544 7.34587 15.7038 8.29527C16.6533 9.24467 17.1866 10.5323 17.1866 11.875C17.1866 13.2177 16.6533 14.5053 15.7038 15.4547C14.7544 16.4041 13.4668 16.9375 12.1241 16.9375C10.7815 16.9375 9.4938 16.4041 8.54439 15.4547C7.59499 14.5053 7.06162 13.2177 7.06162 11.875ZM12.1241 9.625C12.1241 10.866 11.1151 11.875 9.87412 11.875C9.62451 11.875 9.38545 11.8328 9.16045 11.759C8.96709 11.6957 8.74209 11.8152 8.74912 12.0191C8.75967 12.2617 8.79482 12.5043 8.86162 12.7469C9.34326 14.5469 11.196 15.6156 12.996 15.134C14.796 14.6523 15.8647 12.7996 15.3831 10.9996C14.9929 9.54062 13.7026 8.55977 12.2683 8.5C12.0644 8.49297 11.9448 8.71445 12.0081 8.91133C12.0819 9.13633 12.1241 9.37539 12.1241 9.625Z" fill="#434E61"/>
</svg>
