<svg width="24" height="24" viewBox="0 0 24 24" fill="none" xmlns="http://www.w3.org/2000/svg">
<path d="M17.2501 1.49993C17.449 1.49993 17.6398 1.57895 17.7804 1.7196C17.9211 1.86025 18.0001 2.05102 18.0001 2.24993V3.74993C18.0001 3.94884 17.9211 4.13961 17.7804 4.28026C17.6398 4.42091 17.449 4.49993 17.2501 4.49993C17.0512 4.49993 16.8604 4.42091 16.7198 4.28026C16.5791 4.13961 16.5001 3.94884 16.5001 3.74993V2.24993C16.5001 2.05102 16.5791 1.86025 16.7198 1.7196C16.8604 1.57895 17.0512 1.49993 17.2501 1.49993ZM21.2191 1.71893C21.3599 1.5783 21.5509 1.49937 21.7499 1.49951C21.9489 1.49965 22.1397 1.57885 22.2804 1.71968C22.421 1.86051 22.4999 2.05144 22.4998 2.25046C22.4996 2.44948 22.4204 2.6403 22.2796 2.78093L20.7796 4.28093C20.6388 4.42156 20.4478 4.50049 20.2488 4.50035C20.0498 4.50021 19.859 4.42101 19.7184 4.28018C19.5777 4.13935 19.4988 3.94842 19.4989 3.7494C19.4991 3.55038 19.5783 3.35956 19.7191 3.21893L21.2191 1.71893ZM9.6586 2.78093C9.86755 2.57184 10.1157 2.40598 10.3887 2.29282C10.6618 2.17966 10.9545 2.12141 11.2501 2.12141C11.5457 2.12141 11.8384 2.17966 12.1115 2.29282C12.3846 2.40598 12.6327 2.57184 12.8416 2.78093L21.2191 11.1584C21.4282 11.3674 21.5941 11.6155 21.7072 11.8886C21.8204 12.1616 21.8786 12.4543 21.8786 12.7499C21.8786 13.0455 21.8204 13.3382 21.7072 13.6113C21.5941 13.8844 21.4282 14.1325 21.2191 14.3414L19.8106 15.7499L8.2501 4.18943L9.6586 2.78093ZM7.5001 5.56043V10.9394L2.0311 16.4084C1.82202 16.6174 1.65615 16.8655 1.54299 17.1386C1.42983 17.4116 1.37158 17.7043 1.37158 17.9999C1.37158 18.2955 1.42983 18.5882 1.54299 18.8613C1.65615 19.1344 1.82202 19.3825 2.0311 19.5914L4.4101 21.9689C4.61905 22.178 4.86715 22.3439 5.14023 22.457C5.41331 22.5702 5.70601 22.6284 6.0016 22.6284C6.2972 22.6284 6.5899 22.5702 6.86297 22.457C7.13605 22.3439 7.38415 22.178 7.5931 21.9689L13.0606 16.4999H18.4396L7.5001 5.56043ZM10.2826 14.7809L8.7826 16.2809C8.64177 16.4218 8.45077 16.5009 8.2516 16.5009C8.05244 16.5009 7.86143 16.4218 7.7206 16.2809C7.57977 16.1401 7.50065 15.9491 7.50065 15.7499C7.50065 15.5508 7.57977 15.3598 7.7206 15.2189L9.2206 13.7189C9.36143 13.5781 9.55244 13.499 9.7516 13.499C9.95077 13.499 10.1418 13.5781 10.2826 13.7189C10.4234 13.8598 10.5026 14.0508 10.5026 14.2499C10.5026 14.4491 10.4234 14.6401 10.2826 14.7809ZM21.7501 7.49993H20.2501C20.0512 7.49993 19.8604 7.42091 19.7198 7.28026C19.5791 7.13961 19.5001 6.94884 19.5001 6.74993C19.5001 6.55102 19.5791 6.36025 19.7198 6.2196C19.8604 6.07895 20.0512 5.99993 20.2501 5.99993H21.7501C21.949 5.99993 22.1398 6.07895 22.2804 6.2196C22.4211 6.36025 22.5001 6.55102 22.5001 6.74993C22.5001 6.94884 22.4211 7.13961 22.2804 7.28026C22.1398 7.42091 21.949 7.49993 21.7501 7.49993Z" fill="#434E61"/>
</svg>
