<svg width="40" height="40" viewBox="0 0 40 40" fill="none" xmlns="http://www.w3.org/2000/svg">
<path fill-rule="evenodd" clip-rule="evenodd" d="M17.1438 11.0199C16.1477 11.0227 15.1513 11.0255 14.1557 11.0141C14.1577 11.1106 14.165 11.269 14.1742 11.4673C14.2196 12.4473 14.3103 14.4034 14.0204 14.7014C13.636 15.0964 13.054 14.9221 12.9553 14.3982C12.852 13.8498 12.8751 12.8669 12.8948 12.0279C12.9034 11.6601 12.9114 11.3199 12.9078 11.0562C11.384 11.01 9.84164 10.9791 8.31701 11.0252C6.56989 11.0519 5.85081 11.9942 5.80517 13.6721C5.80372 13.7253 5.80145 13.7861 5.79896 13.8527C5.77746 14.4286 5.73966 15.4407 6.07628 15.762C6.263 15.9403 6.5453 15.9949 6.81959 16.0479C6.96368 16.0758 7.10555 16.1032 7.2302 16.1479C11.3735 17.6339 10.7029 23.3997 6.92701 24.2091C6.33925 24.3351 6.05511 24.385 5.9194 24.554C5.76904 24.7413 5.80091 25.0749 5.80392 25.8204L5.80408 25.862C5.80912 27.1581 5.81469 28.5924 7.4802 28.9563C7.78605 29.0231 8.32334 29.0104 8.76077 29.0001C8.90329 28.9967 9.03521 28.9936 9.14508 28.9936C9.51963 28.9935 9.89449 28.9917 10.2695 28.9899C11.1502 28.9856 12.0316 28.9813 12.9111 28.9991L12.9091 27.5834C12.909 27.5181 12.9059 27.4445 12.9027 27.3662C12.8878 27.0142 12.869 26.5664 13.1064 26.3384C13.3838 26.0719 13.8376 26.0062 14.0911 26.3404C14.2782 26.5869 14.2108 28.6091 14.1777 29.0054C14.6708 28.9895 15.1649 28.9911 15.6585 28.9927C15.8026 28.9932 15.9466 28.9936 16.0905 28.9937L30.6721 28.9942C30.815 28.9942 30.9641 28.9973 31.1164 29.0004C31.6349 29.0112 32.1903 29.0227 32.6601 28.9163C33.4635 28.6399 34.066 28.0128 34.2031 27.166C34.2641 26.7892 34.3133 25.0016 34.209 24.7061C34.0762 24.3303 33.6901 24.2804 33.3253 24.2333C33.186 24.2153 33.0499 24.1977 32.9321 24.1625C30.5945 23.4647 29.3157 20.7384 30.332 18.4727C30.8442 17.3306 31.8945 16.3642 33.1255 16.0705C33.182 16.0571 33.2381 16.0447 33.2933 16.0325C33.7408 15.9335 34.1287 15.8478 34.2043 15.3051C34.2798 14.7627 34.304 13.0247 34.132 12.5553C33.542 10.9449 32.0624 10.9776 30.6652 11.0086C30.4752 11.0128 30.2868 11.017 30.1024 11.017L18.4848 11.0174C18.0379 11.0173 17.5909 11.0186 17.1438 11.0199ZM12.924 16.6864C12.9736 16.3188 13.1911 16.1244 13.5523 16.0398C14.2738 16.0179 14.2375 16.712 14.2091 17.2533C14.2038 17.3546 14.1988 17.4505 14.1991 17.5354C14.1994 17.625 14.204 17.7164 14.2087 17.8072C14.2335 18.2948 14.2576 18.7656 13.5998 18.8467C12.6623 18.8052 12.8365 17.334 12.924 16.6864ZM12.9021 24.0067C12.8332 23.2813 12.7375 22.2734 13.4611 21.956C13.7134 21.9398 14.002 22.0306 14.1231 22.2714C14.2275 22.4787 14.261 24.1349 14.1766 24.353C14.0953 24.5633 13.8658 24.6807 13.6699 24.7621L13.6548 24.7639L13.6295 24.7662C13.2266 24.8064 12.947 24.4877 12.9109 24.0995C12.9081 24.0691 12.9051 24.0382 12.9021 24.0067ZM22.3461 17.8566C22.029 17.0154 21.7021 16.1479 20.8844 16.1938C20.2969 16.3247 19.8689 17.3699 19.5353 18.1847C19.435 18.4297 19.3432 18.6538 19.2582 18.826C19.1173 18.8292 18.9331 18.8208 18.7246 18.8113C17.7212 18.7655 16.1566 18.694 16.1713 19.7685C16.179 20.3336 17.3683 21.2167 17.985 21.6747C18.0754 21.7418 18.1534 21.7998 18.2137 21.8463C18.0592 22.3758 17.6094 23.9254 17.6113 24.4508C17.6137 25.1442 18.348 25.4428 18.9468 25.062C19.0207 25.0151 19.2236 24.8728 19.4751 24.6966C20.0515 24.2925 20.8827 23.7099 20.9965 23.688L21.1107 23.7532C21.2684 23.8584 21.4682 24.0009 21.6859 24.1563C22.2405 24.5521 22.9116 25.031 23.3028 25.1875C23.7872 25.3813 24.3436 25.076 24.3798 24.5289C24.4086 24.0944 24.2231 23.4461 24.0492 22.8381C23.95 22.4917 23.8547 22.1584 23.8048 21.8853C23.9487 21.744 24.1667 21.5698 24.4078 21.3771C25.0535 20.8611 25.8654 20.2123 25.8656 19.7068C25.866 18.6476 24.0417 18.7672 23.0663 18.8311C22.9808 18.8367 22.9019 18.8419 22.8312 18.8458L22.7855 18.8487C22.6157 18.5719 22.4818 18.2167 22.3461 17.8566Z" fill="url(#paint0_linear_2432_42954)"/>
<defs>
<linearGradient id="paint0_linear_2432_42954" x1="16.8123" y1="29.3052" x2="19.308" y2="11.4141" gradientUnits="userSpaceOnUse">
<stop stop-color="#05807C"/>
<stop offset="1" stop-color="#04C8BC"/>
</linearGradient>
</defs>
</svg>
