<svg width="40" height="40" viewBox="0 0 40 40" fill="none" xmlns="http://www.w3.org/2000/svg">
<path d="M8.57486 18.4275C9.82711 18.4102 10.9436 19.3176 10.9579 20.615C10.9833 22.9247 10.9573 25.2382 10.9578 27.5484L10.9581 29.5201C10.9582 29.9158 10.9919 30.3489 10.9226 30.738C10.7223 31.8611 9.70693 32.6466 8.5798 32.6563C7.39411 32.6646 6.33699 31.6964 6.24185 30.5113C6.18831 29.8442 6.22671 29.1222 6.22672 28.4508L6.22666 21.8511C6.22671 21.4109 6.18473 20.8671 6.25249 20.4398C6.43468 19.2914 7.44424 18.5092 8.57486 18.4275Z" fill="url(#paint0_linear_2432_42949)"/>
<path fill-rule="evenodd" clip-rule="evenodd" d="M17.7341 20.7495C15.8117 20.3025 13.9827 19.8772 12.0416 20.6557C12.008 21.2659 12.01 21.8766 12.012 22.4875C12.0124 22.6328 12.0129 22.7782 12.0129 22.9236V28.7527C12.0128 28.8847 12.0113 29.0175 12.0099 29.1506C12.0056 29.5412 12.0012 29.9347 12.0317 30.3206C12.6862 30.3872 13.3449 30.5374 13.9943 30.6854C14.1783 30.7274 14.3616 30.7691 14.5438 30.8088L18.3961 31.6562C18.5824 31.698 18.7693 31.742 18.9567 31.7861C20.0216 32.0367 21.1031 32.2913 22.1977 32.1753C23.2166 32.0673 25.4936 31.1135 26.4429 30.5398C26.3679 30.4886 26.3682 30.4882 26.3895 30.4583C26.4079 30.4327 26.4418 30.3854 26.4569 30.2657C26.5412 29.6002 27.576 28.5744 28.5168 27.6418C29.1057 27.0582 29.6577 26.511 29.9168 26.1114C30.0298 25.9372 30.1268 25.7506 30.2233 25.5652C30.33 25.36 30.436 25.1562 30.5621 24.9722C30.6051 24.9093 30.6718 24.8211 30.7462 24.7225C30.9249 24.4859 31.1481 24.1903 31.1958 24.0461C31.2624 23.8449 31.4 23.6874 31.536 23.5318C31.6602 23.3898 31.783 23.2494 31.849 23.0787L31.849 23.0787C31.783 23.2494 31.6602 23.3898 31.5361 23.5319C31.4001 23.6874 31.2624 23.8449 31.1958 24.0461C31.1482 24.1903 30.9249 24.4859 30.7462 24.7226C30.6718 24.8211 30.6052 24.9093 30.5621 24.9722C30.436 25.1562 30.33 25.36 30.2233 25.5653C30.1269 25.7506 30.0298 25.9372 29.9168 26.1115C29.6577 26.511 29.1057 27.0582 28.5169 27.6418C27.576 28.5744 26.5412 29.6002 26.457 30.2657C26.4418 30.3854 26.4079 30.4327 26.3896 30.4584C26.3682 30.4882 26.3679 30.4886 26.4429 30.5398C26.8278 30.3695 27.4099 29.933 27.8422 29.6089C27.9321 29.5414 28.0156 29.4789 28.0894 29.4246L34.2259 25.0514C35.6018 24.0867 35.3351 22.1014 33.7925 21.8693C33.0372 21.7556 32.4861 22.1945 31.9384 22.6307C31.8133 22.7303 31.6884 22.8298 31.5612 22.9226C31.236 23.1598 30.9065 23.3926 30.5771 23.6254C30.1396 23.9347 29.702 24.2439 29.2742 24.5635L29.2741 24.5635L29.2519 24.5773C29.0669 24.6938 28.8903 24.8279 28.7147 24.9612C28.6526 25.0083 28.5907 25.0554 28.5286 25.1015L27.0705 26.1856C24.7515 27.9186 24.2937 27.8356 21.6554 27.3511L17.6176 26.6367C17.5441 26.6239 17.4557 26.6141 17.36 26.6034C17.002 26.5636 16.541 26.5123 16.3694 26.252C16.2195 26.0245 16.28 25.7008 16.5204 25.5624C16.7408 25.4355 17.1083 25.5149 17.4036 25.5788C17.4836 25.5961 17.5583 25.6122 17.6234 25.6228L22.2397 26.4311C22.288 26.4403 22.3365 26.4498 22.3851 26.4592C22.7578 26.5319 23.1389 26.6061 23.5169 26.6154C26.6265 26.6921 27.7349 22.9788 25.6547 22.3976C25.1404 22.2539 24.4777 22.1484 23.8222 22.044C23.3498 21.9688 22.8812 21.8941 22.4744 21.8063L18.2242 20.8628C18.0601 20.8253 17.8968 20.7874 17.7341 20.7495ZM31.9336 22.738C31.93 22.7945 31.8948 22.8504 31.8623 22.9021C31.8302 22.9532 31.8007 23.0001 31.8067 23.0394L31.8067 23.0395C31.8007 23.0001 31.8302 22.9532 31.8623 22.9022C31.8948 22.8504 31.93 22.7945 31.9337 22.738C31.9336 22.738 31.9336 22.738 31.9336 22.738Z" fill="url(#paint1_linear_2432_42949)"/>
<path d="M16.6147 10.275C17.9636 5.53725 23.7099 3.60165 27.6728 6.51651C27.9105 6.69132 28.1774 6.89038 28.3666 7.117C29.632 8.22657 30.4118 10.1068 30.5195 11.7477C30.924 17.9101 23.4091 21.6695 18.7253 17.5468C16.7711 15.8268 15.7943 12.7933 16.6147 10.275ZM23.5633 7.25744C22.796 7.446 22.9776 8.13463 23.0093 8.7625C21.8755 9.15157 20.9894 9.69088 21.2583 11.0201C21.9529 12.7053 24.7283 12.3948 24.6081 13.761C24.5191 14.7724 23.1126 14.8119 22.3909 14.5275C22.1032 14.4141 21.5906 14.0656 21.2895 14.3141C21.0611 14.5024 21.0966 14.9237 21.2724 15.1323C21.6346 15.5621 22.4056 15.6296 22.9254 15.6684C22.9044 15.9882 22.8216 16.5638 23.028 16.8259C23.231 17.0836 23.6247 17.0764 23.8539 16.8588C24.1186 16.6073 24.0458 15.9239 24.0489 15.5774C25.2558 15.3296 26.1355 14.3875 25.7681 13.1192C25.4135 11.8952 24.127 11.7318 23.1569 11.1984C21.8806 10.4966 22.7433 9.41913 24.2215 9.733C24.7708 9.84969 25.2026 10.2543 25.5471 9.57444C25.4458 8.76094 24.6528 8.89282 24.0592 8.691L24.057 8.65913C24.0201 8.08801 24.2423 7.495 23.5633 7.25744Z" fill="url(#paint2_linear_2432_42949)"/>
<defs>
<linearGradient id="paint0_linear_2432_42949" x1="8.05437" y1="32.8909" x2="14.6805" y2="22.8536" gradientUnits="userSpaceOnUse">
<stop stop-color="#05807C"/>
<stop offset="1" stop-color="#04C8BC"/>
</linearGradient>
<linearGradient id="paint1_linear_2432_42949" x1="20.954" y1="32.4016" x2="22.3239" y2="20.4242" gradientUnits="userSpaceOnUse">
<stop stop-color="#05807C"/>
<stop offset="1" stop-color="#04C8BC"/>
</linearGradient>
<linearGradient id="paint2_linear_2432_42949" x1="25.7449" y1="19.1491" x2="19.5287" y2="7.94464" gradientUnits="userSpaceOnUse">
<stop stop-color="#009F99"/>
<stop offset="1" stop-color="#1DE4D5"/>
</linearGradient>
</defs>
</svg>
