<svg width="40" height="40" viewBox="0 0 40 40" fill="none" xmlns="http://www.w3.org/2000/svg">
<path d="M18.5384 24.8346C19.3987 24.8094 20.265 24.8314 21.1262 24.8268C22.3059 24.8204 22.3524 25.345 22.3532 26.3428L22.3537 27.6724C22.3542 29.1463 22.3728 30.6233 22.3437 32.0967C22.0369 32.1037 21.7307 32.1011 21.424 32.0975C20.1885 32.1254 18.9503 32.0928 17.7143 32.107L17.7135 27.5534C17.7141 26.6332 17.3674 24.9497 18.5384 24.8346Z" fill="url(#paint0_linear_2432_14291)"/>
<path d="M6.7749 24.5669C6.81422 24.9628 6.77222 25.3499 6.77447 25.7445L6.77847 27.0995C6.77553 27.5771 6.70828 28.7126 6.84434 29.1181C6.84972 29.1341 6.84953 29.1503 6.85015 29.1666L6.86409 29.1711C6.87559 28.8468 6.83797 28.5517 6.9324 28.2347L6.94897 28.2323C7.06103 28.3818 7.07347 29.2997 6.9984 29.5096L6.98134 29.4913C6.98597 29.4459 6.99009 29.404 6.9874 29.3582L6.96909 29.3411C6.89528 29.3747 6.86284 29.4479 6.78922 29.4863C6.75115 29.1816 6.76897 28.8742 6.76997 28.5682L6.77009 25.5018C6.76928 25.1927 6.75353 24.875 6.7749 24.5669Z" fill="#B1E3F8"/>
<path fill-rule="evenodd" clip-rule="evenodd" d="M12.851 13.8548C12.8489 14.5375 12.8468 15.2162 12.8907 15.8818C12.5803 15.8776 12.2464 15.8706 11.8988 15.8632C10.5726 15.8351 9.04904 15.8028 7.88963 15.9121C5.69201 16.1193 4.87191 18.6176 6.77656 20.1218C6.7465 21.57 6.74131 23.1182 6.77475 24.5666C6.75949 24.7866 6.76316 25.0115 6.7668 25.2347C6.76825 25.324 6.76971 25.4131 6.76994 25.5014L6.76981 28.5679C6.76958 28.6386 6.76845 28.7094 6.76732 28.7803C6.76356 29.0159 6.7598 29.2517 6.78906 29.4859C6.92025 30.6558 7.88381 31.7263 9.02031 32.0151C9.49939 32.1368 10.358 32.1209 11.022 32.1085C11.1973 32.1052 11.359 32.1022 11.4966 32.1021C11.8892 32.1016 12.2821 32.0997 12.6752 32.0979C13.7182 32.0929 14.762 32.0879 15.8036 32.1089C15.7892 31.4029 15.7926 30.6952 15.7961 29.9881C15.7975 29.6823 15.799 29.3766 15.7991 29.0711L15.7896 25.8979C15.7938 25.0767 16.0119 24.3811 16.6055 23.7952C17.4318 22.9795 18.2027 22.9827 19.2436 22.987C19.2999 22.9873 19.357 22.9875 19.415 22.9876L21.047 22.988C22.0281 22.9899 22.7444 23.1021 23.469 23.8375C24.3615 24.7433 24.3247 26.0432 24.2903 27.2541C24.2838 27.4836 24.2774 27.7099 24.2774 27.9298L24.2748 32.0977C25.1586 32.1157 26.0444 32.111 26.9296 32.1063C27.3536 32.104 27.7776 32.1018 28.2011 32.102L29.5494 32.1038C29.6201 32.1039 29.691 32.1045 29.762 32.1052C30.1545 32.1086 30.5497 32.1121 30.934 32.0258C32.9461 31.5739 33.2978 29.9743 33.2959 28.252L33.2944 20.9129C33.2941 20.828 33.2924 20.743 33.2907 20.6579C33.2875 20.4965 33.2843 20.3349 33.2904 20.1737C33.3562 20.1039 33.4293 20.041 33.5025 19.9781C33.5774 19.9138 33.6523 19.8493 33.7198 19.7771C34.9276 18.4838 34.3672 16.3569 32.5775 15.9588C32.1923 15.873 31.7717 15.8752 31.3717 15.8773C31.3148 15.8776 31.2583 15.8779 31.2023 15.8779L29.9856 15.8784C29.696 15.8786 29.4057 15.8761 29.115 15.8736C28.4454 15.8677 27.7742 15.8619 27.1079 15.8895C27.1247 14.7118 27.1591 13.4318 27.2199 12.2612C27.2302 12.0632 27.2412 11.8743 27.2518 11.6937C27.389 9.34171 27.4446 8.38753 24.7491 6.85788C21.7436 5.15234 17.3059 5.30717 14.5109 7.36194C12.5992 8.76731 12.6528 9.53272 12.7859 11.4326C12.7934 11.5395 12.8012 11.6499 12.8088 11.7643C12.8553 12.4587 12.8532 13.1588 12.851 13.8548ZM17.5631 14.8398C14.6884 12.5292 16.0518 8.09538 19.6833 7.72238C21.8803 7.53894 23.8046 9.16938 24.0021 11.3649C24.1935 13.4923 22.5096 15.4733 20.3854 15.6498C19.4244 15.7728 18.3161 15.445 17.5631 14.8398ZM27.0388 21.5326C26.8628 21.0252 27.1686 20.5371 27.6642 20.3752C28.2425 20.3309 29.5797 20.3259 30.1331 20.391C31.1353 20.5088 31.2253 21.911 30.1971 22.1049C29.8477 22.1369 29.4853 22.1303 29.1276 22.1237C28.9886 22.1211 28.8503 22.1186 28.7138 22.1183C28.6088 22.1181 28.5007 22.1229 28.392 22.1277C27.8343 22.1524 27.2627 22.1778 27.0388 21.5326ZM16.0991 18.944C16.1784 18.543 16.5286 18.2876 16.9153 18.2077C18.3701 18.0433 18.3284 19.7149 18.153 20.7144C18.0713 21.1803 17.7704 21.4201 17.3143 21.5207C15.8214 21.7283 15.9071 19.9152 16.0991 18.944ZM28.5919 25.0617C28.6694 25.0646 28.7431 25.0674 28.8109 25.0683C28.8903 25.0674 28.9782 25.0643 29.0714 25.061C29.5581 25.0437 30.1907 25.0212 30.5244 25.294C30.9021 25.6027 30.9679 26.1943 30.6412 26.5614C30.3278 26.9135 29.896 26.8992 29.4673 26.8851C29.3255 26.8804 29.1841 26.8757 29.0474 26.8843C28.9221 26.879 28.7713 26.8807 28.612 26.8824C28.2673 26.8862 27.8833 26.8904 27.6345 26.8258C26.9541 26.6489 26.8526 25.7761 27.3056 25.3188C27.5974 25.0243 28.1548 25.0452 28.5919 25.0617ZM21.9758 18.9643C22.0688 18.5187 22.4136 18.2695 22.8573 18.2094C24.195 18.0288 24.1841 19.7764 24.043 20.6518C23.9624 21.1518 23.6041 21.4136 23.1231 21.5175C21.6848 21.7597 21.7896 19.8564 21.9758 18.9643ZM9.45481 21.9054C8.81981 21.4264 9.25113 20.4154 10.1296 20.3407C10.6029 20.3321 11.9812 20.3258 12.3928 20.3983C13.2674 20.5524 13.4536 21.9697 12.125 22.0811C12.0345 22.0841 11.9212 22.09 11.7925 22.0967C11.0648 22.1348 9.84354 22.1987 9.45481 21.9054ZM12.2843 25.0849C11.8654 25.0209 10.4229 25.0278 9.96225 25.0619C9.43169 25.1815 9.08344 25.6731 9.22156 26.2162C9.43985 27.0747 11.0631 26.9209 11.9712 26.8349C12.0665 26.8258 12.1539 26.8175 12.231 26.8112C13.2504 26.6601 13.3533 25.2484 12.2843 25.0849Z" fill="url(#paint1_linear_2432_14291)"/>
<path d="M19.9407 9.55369C20.7364 9.50919 20.7707 10.3267 20.7213 10.9158C21.114 10.9486 21.5561 10.9571 21.8818 11.2088C22.2019 11.4562 22.2473 11.9023 21.975 12.2065C21.682 12.5338 21.1874 12.5013 20.7863 12.5266C20.759 13.0781 20.7633 13.6359 20.1505 13.8375C19.3325 13.9501 19.3147 13.1399 19.3095 12.5464C18.9067 12.4989 18.5045 12.5567 18.1627 12.2889C17.8484 12.0426 17.7621 11.6119 18.0355 11.2981C18.3345 10.9551 18.877 10.9366 19.2957 10.9152C19.2917 10.2639 19.2037 9.75769 19.9407 9.55369Z" fill="url(#paint2_linear_2432_14291)"/>
<defs>
<linearGradient id="paint0_linear_2432_14291" x1="20.0104" y1="24.8218" x2="22.7036" y2="26.017" gradientUnits="userSpaceOnUse">
<stop stop-color="#FFA800"/>
<stop offset="1" stop-color="#E27F00"/>
</linearGradient>
<linearGradient id="paint1_linear_2432_14291" x1="20.0208" y1="5.68738" x2="32.6508" y2="15.1207" gradientUnits="userSpaceOnUse">
<stop stop-color="#FFA800"/>
<stop offset="1" stop-color="#E27F00"/>
</linearGradient>
<linearGradient id="paint2_linear_2432_14291" x1="20.0208" y1="5.68738" x2="32.6508" y2="15.1207" gradientUnits="userSpaceOnUse">
<stop stop-color="#FFA800"/>
<stop offset="1" stop-color="#E27F00"/>
</linearGradient>
</defs>
</svg>
