<svg width="32" height="32" viewBox="0 0 32 32" fill="none" xmlns="http://www.w3.org/2000/svg">
<g style="mix-blend-mode:luminosity">
<path d="M15.8431 21.0535C16.9164 20.9961 16.9631 21.8053 16.9633 22.5837L16.9626 23.5366C16.9629 24.5226 16.9891 25.5167 16.9504 26.5016C16.6936 26.5102 16.436 26.5068 16.179 26.507L15.002 26.5129C14.985 25.5252 14.9977 24.535 14.9977 23.5471L14.9978 22.5782C14.998 21.8849 15.0115 21.1959 15.8431 21.0535Z" fill="#434E61"/>
<path d="M15.7103 5.6132C16.2875 5.58418 16.6503 5.57253 17.1482 5.92515C17.8745 6.43953 18.5295 7.06769 19.2137 7.63657L25.7512 13.0812C26.1065 13.3768 26.6303 13.7667 26.9224 14.1087C27.7585 15.0877 26.5565 16.6622 25.2854 16.1969C24.8833 16.0497 23.9217 15.1723 23.547 14.8609L21.1835 12.9322C19.9988 11.9674 17.5479 9.68627 16.2515 9.55997C14.85 9.37156 13.1441 11.0389 12.1076 11.8835L8.5562 14.7865C7.72064 15.4761 6.48681 16.8993 5.33894 15.9709C4.79004 15.5269 4.59068 14.6555 5.07198 14.0848C5.37337 13.7275 6.06592 13.2232 6.45272 12.9056L14.1414 6.47525C14.7013 6.01314 14.9585 5.67653 15.7103 5.6132Z" fill="#434E61"/>
<path d="M15.9507 11.0108C16.377 10.9846 16.6811 11.2503 16.9845 11.5041L21.9014 15.566C23.3896 16.7877 24.2066 17.0277 24.2059 19.1693L24.2058 21.6828C24.2056 23.3244 24.0963 24.8812 22.4499 25.7779C21.359 26.3722 20.0073 26.4254 18.7887 26.4942C18.7717 26.0958 18.7798 25.6952 18.7799 25.2964L18.7813 23.4238C18.7837 22.8134 18.8302 22.0228 18.686 21.4415C18.3865 20.235 17.2614 19.4219 16.0379 19.3699C14.741 19.3579 13.5361 20.2086 13.2302 21.4967C13.1363 21.8924 13.163 22.2188 13.1686 22.6179C13.1866 23.9034 13.1379 25.1895 13.1766 26.4747C11.8527 26.4057 10.0882 26.2957 9.02726 25.4331C7.52964 24.2152 7.77494 22.2155 7.77406 20.4935C7.77355 19.5421 7.60275 17.9896 8.25172 17.1954C8.81354 16.5079 10.1053 15.5871 10.8081 14.9972L14.8217 11.6743C15.1585 11.3937 15.4917 11.0571 15.9507 11.0108Z" fill="#434E61"/>
</g>
</svg>
