<svg width="40" height="40" viewBox="0 0 40 40" fill="none" xmlns="http://www.w3.org/2000/svg">
<path d="M11.7173 14.3475C10.7268 13.391 11.0341 11.6279 12.3992 11.3909C13.0071 11.2854 13.6659 11.3376 14.2832 11.3376L19.7043 11.3379C20.1084 11.338 20.5484 11.3043 20.9477 11.3568C22.3002 11.535 22.7194 13.1055 21.9514 14.1751C21.8115 14.3128 21.6722 14.4506 21.5259 14.5817C20.8082 14.806 19.8138 14.6951 19.0622 14.6953L13.3691 14.6954C12.5938 14.6965 12.3751 14.815 11.7173 14.3475Z" fill="#009F99"/>
<path d="M16.6016 4.37958C17.3278 4.30723 17.5235 4.77116 17.9817 5.19955C18.7356 5.90433 19.2531 5.25063 19.9896 5.22843C20.7772 5.20468 21.3592 5.94876 21.3688 6.69518C21.3802 7.58455 20.673 9.71705 20.0476 10.3469C19.7247 10.672 19.1652 10.5388 18.7482 10.5382L16.5919 10.5346L14.7719 10.5371C14.0581 10.5374 13.4573 10.7179 13.0324 10.0205C12.7302 9.52474 12.0904 7.90936 11.9702 7.35374C11.7449 6.31199 12.6019 4.95534 13.7209 5.23058C14.1752 5.34231 14.4854 5.74278 14.9934 5.55313C15.7183 5.28254 15.7255 4.56149 16.6016 4.37958Z" fill="#05807C"/>
<path fill-rule="evenodd" clip-rule="evenodd" d="M21.9514 14.1749C22.059 14.2414 22.0736 14.4126 22.0863 14.5603C22.0909 14.6144 22.0953 14.6654 22.1039 14.7069C22.1993 15.1687 22.3961 15.5497 22.695 15.9118L22.6725 15.9274C22.5327 16.0228 22.3722 16.1039 22.2135 16.1841C22.1199 16.2314 22.0269 16.2784 21.9392 16.3277C17.6207 18.7596 15.8281 24.4517 18.6559 28.7111C19.5148 30.0048 20.6944 31.0807 22.0565 31.8247C21.757 31.9459 20.5423 32.2297 20.2201 32.2601L20.1833 32.2381C19.7561 31.9794 19.3729 31.6241 19.0178 31.2752C16.9348 29.2292 15.9644 26.9916 15.9549 24.1192C15.9452 21.1705 17.0114 18.6511 19.1743 16.663C19.3968 16.4585 19.6933 16.2308 20.0037 15.9923C20.603 15.5321 21.2542 15.0319 21.5257 14.5815C20.9803 14.7518 20.2752 14.7288 19.6383 14.7079C19.437 14.7013 19.2426 14.695 19.0622 14.695L13.3691 14.6951C13.2258 14.6953 13.1015 14.6995 12.9899 14.7033C12.4979 14.72 12.2534 14.7283 11.7173 14.3472C11.5972 14.4096 11.3118 14.7447 11.0978 14.996C11.0141 15.0943 10.9413 15.1798 10.8936 15.2311C7.73572 18.6276 4.57452 23.6124 7.01409 28.2805C9.29103 32.6372 15.836 33.2047 20.2203 32.2601C20.5424 32.2297 21.7572 31.9459 22.0566 31.8247C20.6945 31.0807 19.515 30.0048 18.656 28.7111C15.8283 24.4517 17.6208 18.7596 21.9393 16.3277C22.027 16.2784 22.12 16.2314 22.2136 16.1841C22.3723 16.1039 22.5328 16.0228 22.6727 15.9274L22.6952 15.9118C22.3963 15.5497 22.1995 15.1687 22.104 14.7069C22.0954 14.6654 22.0911 14.6144 22.0864 14.5603C22.0738 14.4126 22.0591 14.2413 21.9514 14.1748L21.9514 14.1749Z" fill="url(#paint0_linear_2432_42948)"/>
<path fill-rule="evenodd" clip-rule="evenodd" d="M29.0763 15.8804C27.253 15.159 24.5333 15.1172 22.6954 15.9122L22.6729 15.9278C22.5331 16.0231 22.3726 16.1043 22.2139 16.1845C22.1203 16.2318 22.0273 16.2787 21.9396 16.3281C17.6211 18.76 15.8286 24.4521 18.6563 28.7114C19.5152 30.0052 20.6948 31.0811 22.0569 31.8251C22.2092 31.8784 22.3585 31.9421 22.5078 32.0057C22.5961 32.0434 22.6843 32.0811 22.7731 32.1165C24.8146 32.9314 27.3964 32.8037 29.4056 31.937C36.5863 28.8393 36.278 18.7301 29.0763 15.8804ZM31.2463 27.8293C34.5068 23.5159 30.9646 17.0912 25.6742 17.4301C24.043 17.5146 22.3883 18.2755 21.2912 19.4896C19.8466 21.0879 19.4085 22.6136 19.5173 24.6902C19.6945 28.072 23.0018 30.8377 26.3665 30.4829C28.2202 30.2234 30.0985 29.3478 31.2463 27.8293Z" fill="url(#paint1_linear_2432_42948)"/>
<path d="M25.9015 18.7284C26.8145 18.6575 26.908 19.3834 26.8566 20.1132C27.0223 20.2117 27.2085 20.2696 27.384 20.3482C28.5016 20.8486 29.0261 22.4318 27.8258 22.8316C27.0445 23.0918 26.8504 22.0836 26.2933 21.8333C25.7613 21.5942 24.9512 22.2609 25.403 22.7167C25.6472 22.9632 27.081 23.3906 27.5235 23.6853C28.2748 24.1854 28.6248 25.2287 28.3241 26.0747C28.0734 26.7797 27.5254 27.0897 26.8832 27.3944C26.8632 27.8881 26.8164 28.4649 26.2304 28.5631C25.3348 28.6357 25.0617 28.2449 25.0747 27.3895C22.6389 26.7251 23.2771 24.7636 24.4119 25.0026C24.9795 25.1222 25.6995 26.0089 26.2709 25.8203C26.4317 25.7673 26.7169 25.5597 26.6339 25.3561C26.4273 24.8492 24.187 24.6978 23.6536 23.2529C23.1704 21.9439 23.8381 20.6493 25.1341 20.1799C25.0608 19.4829 25.0953 18.8667 25.9015 18.7284Z" fill="url(#paint2_linear_2432_42948)"/>
<defs>
<linearGradient id="paint0_linear_2432_42948" x1="12.553" y1="32.9547" x2="16.8988" y2="15.313" gradientUnits="userSpaceOnUse">
<stop stop-color="#05807C"/>
<stop offset="1" stop-color="#04C8BC"/>
</linearGradient>
<linearGradient id="paint1_linear_2432_42948" x1="24.0059" y1="32.9483" x2="27.6977" y2="16.2052" gradientUnits="userSpaceOnUse">
<stop stop-color="#05807C"/>
<stop offset="1" stop-color="#04C8BC"/>
</linearGradient>
<linearGradient id="paint2_linear_2432_42948" x1="25.3811" y1="28.734" x2="28.9746" y2="20.2888" gradientUnits="userSpaceOnUse">
<stop stop-color="#05807C"/>
<stop offset="1" stop-color="#04C8BC"/>
</linearGradient>
</defs>
</svg>
