<svg width="24" height="24" viewBox="0 0 24 24" fill="none" xmlns="http://www.w3.org/2000/svg">
<rect x="1" y="1" width="22" height="22" rx="3" stroke="#BFB3FF" stroke-width="2"/>
<path d="M7.33333 21.9167C7.0125 21.9167 6.75 21.6542 6.75 21.3333V7.33333C6.75 7.0125 7.0125 6.75 7.33333 6.75H13.1667V9.66667C13.1667 10.312 13.688 10.8333 14.3333 10.8333H17.25V21.3333C17.25 21.6542 16.9875 21.9167 16.6667 21.9167H7.33333ZM7.33333 5C6.04635 5 5 6.04635 5 7.33333V21.3333C5 22.6203 6.04635 23.6667 7.33333 23.6667H16.6667C17.9536 23.6667 19 22.6203 19 21.3333V10.6328C19 10.013 18.7557 9.41875 18.3182 8.98125L15.0151 5.68177C14.5776 5.24427 13.987 5 13.3672 5H7.33333Z" fill="#7B61FF"/>
<path d="M10.225 12.9824C10.3941 13.1345 10.4078 13.3925 10.2557 13.5617L9.02538 14.9287C8.95019 15.0125 8.84424 15.062 8.73146 15.0637C8.61868 15.0654 8.51102 15.0227 8.43071 14.9441L7.74547 14.2606C7.58655 14.0999 7.58655 13.8402 7.74547 13.6796C7.90439 13.5189 8.16584 13.5189 8.32476 13.6796L8.70241 14.0572L9.64397 13.0114C9.79605 12.8423 10.0541 12.8286 10.2233 12.9807L10.225 12.9824ZM10.225 15.7165C10.3941 15.8686 10.4078 16.1266 10.2557 16.2958L9.02538 17.6628C8.95019 17.7466 8.84424 17.7961 8.73146 17.7978C8.61868 17.7995 8.51102 17.7568 8.43071 17.6782L7.74547 16.9947C7.58484 16.8341 7.58484 16.5743 7.74547 16.4154C7.9061 16.2565 8.16584 16.2548 8.32476 16.4154L8.70241 16.793L9.64397 15.7472C9.79605 15.5781 10.0541 15.5644 10.2233 15.7165H10.225ZM11.4536 13.9701C11.4536 13.6676 11.698 13.4233 12.0004 13.4233H15.8282C16.1306 13.4233 16.375 13.6676 16.375 13.9701C16.375 14.2725 16.1306 14.5169 15.8282 14.5169H12.0004C11.698 14.5169 11.4536 14.2725 11.4536 13.9701ZM11.4536 16.7042C11.4536 16.4017 11.698 16.1574 12.0004 16.1574H15.8282C16.1306 16.1574 16.375 16.4017 16.375 16.7042C16.375 17.0066 16.1306 17.251 15.8282 17.251H12.0004C11.698 17.251 11.4536 17.0066 11.4536 16.7042ZM10.36 19.4383C10.36 19.1358 10.6043 18.8915 10.9068 18.8915H15.8282C16.1306 18.8915 16.375 19.1358 16.375 19.4383C16.375 19.7408 16.1306 19.9851 15.8282 19.9851H10.9068C10.6043 19.9851 10.36 19.7408 10.36 19.4383ZM8.44609 18.6181C8.66363 18.6181 8.87226 18.7045 9.02608 18.8583C9.1799 19.0121 9.26632 19.2208 9.26632 19.4383C9.26632 19.6558 9.1799 19.8645 9.02608 20.0183C8.87226 20.1721 8.66363 20.2585 8.44609 20.2585C8.22855 20.2585 8.01992 20.1721 7.86609 20.0183C7.71227 19.8645 7.62585 19.6558 7.62585 19.4383C7.62585 19.2208 7.71227 19.0121 7.86609 18.8583C8.01992 18.7045 8.22855 18.6181 8.44609 18.6181Z" fill="#7B61FF"/>
</svg>
