<svg width="24" height="24" viewBox="0 0 24 24" fill="none" xmlns="http://www.w3.org/2000/svg">
<path d="M24 10.7382C24 5.3688 18.6168 1 12.0005 1C5.38409 1 0 5.3688 0 10.7382C0 15.552 4.26901 19.5839 10.0358 20.3465C10.4267 20.4307 10.9586 20.6047 11.0932 20.9379C11.214 21.2409 11.1719 21.7161 11.1316 22.0228C11.1316 22.0228 10.9916 22.8696 10.9604 23.05C10.9083 23.353 10.7197 24.2365 11.9995 23.6972C13.2803 23.158 18.9098 19.6278 21.4274 16.7293H21.4265C23.1669 14.8232 24 12.8869 24 10.7382ZM7.30299 13.9334H4.91902C4.57204 13.9334 4.29006 13.6514 4.29006 13.3035V8.53462C4.29006 8.18764 4.57204 7.90566 4.91902 7.90566C5.26599 7.90566 5.54797 8.18764 5.54797 8.53462V12.6736H7.30299C7.64997 12.6736 7.93195 12.9556 7.93195 13.3026C7.93195 13.6505 7.64997 13.9334 7.30299 13.9334ZM9.76845 13.3035C9.76845 13.6505 9.48648 13.9334 9.1395 13.9334C8.79252 13.9334 8.51055 13.6514 8.51055 13.3035V8.53462C8.51055 8.18764 8.79252 7.90566 9.1395 7.90566C9.48648 7.90566 9.76845 8.18764 9.76845 8.53462V13.3035ZM15.5087 13.3035C15.5087 13.5754 15.3366 13.8153 15.0784 13.9004C15.0134 13.9224 14.9456 13.9334 14.8788 13.9334C14.682 13.9334 14.4943 13.8391 14.3762 13.6816L11.9327 10.3537V13.3035C11.9327 13.6505 11.6507 13.9334 11.3028 13.9334C10.9559 13.9334 10.673 13.6514 10.673 13.3035V8.53462C10.673 8.26363 10.846 8.02377 11.1033 7.93771C11.1683 7.91574 11.2351 7.90566 11.3028 7.90566C11.4988 7.90566 11.6874 7.99996 11.8055 8.15743L14.2499 11.4853V8.53462C14.2499 8.18764 14.5327 7.90566 14.8797 7.90566C15.2267 7.90566 15.5087 8.18764 15.5087 8.53462V13.3035ZM19.3666 10.2896C19.7136 10.2896 19.9965 10.5716 19.9965 10.9195C19.9965 11.2665 19.7145 11.5485 19.3666 11.5485H17.6116V12.6745H19.3666C19.7136 12.6745 19.9965 12.9565 19.9965 13.3035C19.9965 13.6505 19.7136 13.9334 19.3666 13.9334H16.9826C16.6366 13.9334 16.3537 13.6514 16.3537 13.3035V10.9204V10.9186V8.53736C16.3537 8.53645 16.3537 8.53645 16.3537 8.53553C16.3537 8.18856 16.6357 7.90658 16.9826 7.90658H19.3666C19.7136 7.90658 19.9965 8.18856 19.9965 8.53553C19.9965 8.88251 19.7145 9.16449 19.3666 9.16449H17.6116V10.2906L19.3666 10.2896Z" fill="#00AD00"/>
</svg>
