<svg width="24" height="24" viewBox="0 0 24 24" fill="none" xmlns="http://www.w3.org/2000/svg">
<path d="M2.96774 4C2.43145 4 2 4.43145 2 4.96774V6.90323C2 7.43952 2.43145 7.87097 2.96774 7.87097H4.90323C5.43952 7.87097 5.87097 7.43952 5.87097 6.90323V4.96774C5.87097 4.43145 5.43952 4 4.90323 4H2.96774ZM9.09677 4.64516C8.38306 4.64516 7.80645 5.22177 7.80645 5.93548C7.80645 6.64919 8.38306 7.22581 9.09677 7.22581H20.7097C21.4234 7.22581 22 6.64919 22 5.93548C22 5.22177 21.4234 4.64516 20.7097 4.64516H9.09677ZM9.09677 11.0968C8.38306 11.0968 7.80645 11.6734 7.80645 12.3871C7.80645 13.1008 8.38306 13.6774 9.09677 13.6774H20.7097C21.4234 13.6774 22 13.1008 22 12.3871C22 11.6734 21.4234 11.0968 20.7097 11.0968H9.09677ZM9.09677 17.5484C8.38306 17.5484 7.80645 18.125 7.80645 18.8387C7.80645 19.5524 8.38306 20.129 9.09677 20.129H20.7097C21.4234 20.129 22 19.5524 22 18.8387C22 18.125 21.4234 17.5484 20.7097 17.5484H9.09677ZM2 11.4194V13.3548C2 13.8911 2.43145 14.3226 2.96774 14.3226H4.90323C5.43952 14.3226 5.87097 13.8911 5.87097 13.3548V11.4194C5.87097 10.8831 5.43952 10.4516 4.90323 10.4516H2.96774C2.43145 10.4516 2 10.8831 2 11.4194ZM2.96774 16.9032C2.43145 16.9032 2 17.3347 2 17.871V19.8065C2 20.3427 2.43145 20.7742 2.96774 20.7742H4.90323C5.43952 20.7742 5.87097 20.3427 5.87097 19.8065V17.871C5.87097 17.3347 5.43952 16.9032 4.90323 16.9032H2.96774Z" fill="#434E61"/>
</svg>
