<svg width="40" height="40" viewBox="0 0 40 40" fill="none" xmlns="http://www.w3.org/2000/svg">
<path d="M12.5977 21.9691C12.9128 21.9337 13.2567 21.9605 13.5755 21.9602L15.5833 21.9586C16.1795 21.9581 16.7859 21.8873 17.3781 21.9102C17.3653 22.3782 17.3637 22.8461 17.3598 23.3143C15.9225 23.379 14.0433 23.3984 12.6065 23.3241C12.604 22.8755 12.6223 22.4164 12.5977 21.9691Z" fill="#FFED85"/>
<path d="M28.2254 14.1112C28.7493 14.0488 29.1425 14.5163 29.5345 14.7892L30.9605 15.7853C32.4016 16.7929 32.3384 16.755 32.3399 18.4218L32.3437 19.8915C32.1172 19.8712 31.8852 19.8723 31.6577 19.8656L29.092 19.8689C28.5668 19.8697 28.0306 19.8461 27.5082 19.9033C27.5299 19.4279 27.5205 18.9503 27.5198 18.4746L27.5156 16.2648C27.5137 15.531 27.2454 14.3171 28.2254 14.1112Z" fill="url(#paint0_linear_2432_14278)"/>
<path fill-rule="evenodd" clip-rule="evenodd" d="M16.2572 23.914C15.0789 23.9079 13.8982 23.9018 12.7228 23.9341L12.8011 23.9874C12.6902 24.211 12.7372 24.3298 12.8021 24.4939C12.8356 24.5785 12.8738 24.6751 12.8976 24.8043C12.9758 25.2291 13.0175 25.6329 13.0594 26.039C13.1096 26.5252 13.1601 27.0146 13.274 27.5468C13.4646 28.437 13.5165 29.3342 13.5684 30.2324C13.6053 30.8706 13.6423 31.5093 13.729 32.1463C13.7593 32.3692 13.7355 33.2756 13.7251 33.674C13.7221 33.7887 13.7201 33.8613 13.721 33.8632C13.7672 33.974 13.9207 34.0238 14.0709 34.0726C14.1966 34.1134 14.3199 34.1535 14.3764 34.2278C15.5786 34.6349 17.0792 33.6574 17.3212 32.4326C17.3883 32.0933 17.3842 31.7377 17.3802 31.3891C17.3794 31.3142 17.3785 31.2396 17.3784 31.1656L17.3661 23.9186C16.9969 23.9179 16.6272 23.9159 16.2572 23.914ZM12.9962 33.1815C13.2802 33.6565 13.8166 34.1324 14.3763 34.2278C14.3198 34.1535 14.1965 34.1134 14.0709 34.0726C13.9206 34.0238 13.7671 33.974 13.7209 33.8632C13.7201 33.8613 13.722 33.7887 13.725 33.674C13.7355 33.2757 13.7593 32.3692 13.7289 32.1463C13.6422 31.5094 13.6053 30.8707 13.5683 30.2324C13.5164 29.3342 13.4645 28.437 13.274 27.5469C13.1601 27.0147 13.1095 26.5253 13.0593 26.039C13.0174 25.633 12.9758 25.2291 12.8976 24.8043C12.8738 24.6751 12.8355 24.5785 12.802 24.4939C12.7371 24.3298 12.6901 24.211 12.8011 23.9874L12.7227 23.9342C12.5423 23.9401 12.5755 24.4231 12.5963 24.7252C12.6015 24.8011 12.606 24.8656 12.606 24.9082L12.6159 30.3245C12.616 30.4939 12.6118 30.6649 12.6076 30.8365C12.5878 31.6447 12.5677 32.4646 12.9962 33.1815Z" fill="url(#paint1_linear_2432_14278)"/>
<path d="M34.0203 32.4635C33.7108 33.4499 32.6636 34.1758 31.6596 34.2573C30.8788 34.3207 28.7764 34.3576 28.0177 34.256C26.006 33.9865 25.6688 32.4404 25.6688 30.7902L25.6573 23.2342C25.6565 22.6965 25.632 22.1487 25.6686 21.6123C25.7631 20.2286 27.083 20.4913 28.087 20.4903L32.001 20.4842C32.4905 20.4829 33.2153 20.384 33.6567 20.6432C34.3706 21.0598 34.165 22.1494 34.1656 22.862L34.1766 29.7061C34.1781 30.4115 34.3133 31.8338 34.0203 32.4635Z" fill="url(#paint2_linear_2432_14278)"/>
<path d="M34.0203 32.4633L34.0056 32.4216C34.0459 32.2761 34.0649 32.042 33.9692 31.9206C34.0295 31.2093 34.0411 29.791 33.9313 29.082C33.8415 28.5024 33.8941 27.8782 33.9429 27.2979C33.9909 26.7265 33.8378 24.3679 33.9637 24.1652L33.9315 24.1754L33.9798 24.1828C34.0316 24.4764 33.9578 23.7358 34.0301 23.5605C34.1042 23.3804 34.1827 22.1 34.1649 21.8577C34.1247 21.3111 34.0827 21.0691 33.6732 20.6953L33.6514 20.6756L33.6567 20.6431C34.3706 21.0597 34.165 22.1493 34.1657 22.8619L34.1767 29.7059C34.1781 30.4113 34.3133 31.8336 34.0203 32.4633Z" fill="url(#paint3_linear_2432_14278)"/>
<path fill-rule="evenodd" clip-rule="evenodd" d="M11.776 6.69493C11.8006 6.68994 11.8673 6.67642 12.0107 6.6012L12.0107 6.6012C11.8673 6.67643 11.8006 6.68995 11.776 6.69494C11.7697 6.69622 11.7661 6.69694 11.7648 6.698C11.7661 6.69693 11.7697 6.69621 11.776 6.69493ZM12.0253 6.5697C12.3132 6.43255 12.6605 6.35669 12.9803 6.28683C13.0237 6.27735 13.0666 6.26799 13.1088 6.25859C17.0471 5.38066 21.2438 7.49723 23.6476 10.5706C24.3819 11.5095 25.1648 12.7786 24.7178 14.01C24.5243 14.543 24.1301 14.9225 23.7344 15.3034C23.6213 15.4123 23.508 15.5213 23.3993 15.6341L22.2326 16.8577C22.1929 16.8996 22.1488 16.95 22.1025 17.0031L22.1024 17.0032L22.1023 17.0033L22.1023 17.0033C21.9874 17.1349 21.8579 17.2831 21.7424 17.3599C21.5413 17.5848 21.33 17.801 21.1189 18.0171L21.1188 18.0172C21.0316 18.1065 20.9444 18.1957 20.8579 18.2855L19.2344 19.9768C19.1618 20.0529 19.0281 20.2054 18.8637 20.393C18.3729 20.9527 17.6086 21.8245 17.3782 21.9102C17.0399 21.8971 16.697 21.9146 16.354 21.9321H16.3539H16.3539H16.3539C16.0965 21.9453 15.839 21.9584 15.5834 21.9586L13.5756 21.9603C13.4797 21.9604 13.3815 21.958 13.2825 21.9556C13.0524 21.9501 12.8181 21.9444 12.5979 21.9691C12.4237 21.823 12.2628 21.656 12.1036 21.4909L12.1034 21.4907L12.1033 21.4906L12.1033 21.4905C12.0563 21.4418 12.0095 21.3932 11.9625 21.3454L6.62748 15.7429C6.53441 15.6454 6.43965 15.5503 6.34537 15.4556C5.86202 14.9704 5.39123 14.4978 5.22527 13.7938C4.59569 11.1233 9.06353 7.81456 11.0846 6.93539C11.1424 6.91027 11.2013 6.88389 11.2609 6.85716L11.261 6.85712L11.2611 6.85709L11.2611 6.85707C11.509 6.74598 11.7706 6.62874 12.0253 6.5697L12.0253 6.5697ZM20.5347 15.962L20.5347 15.962C20.5395 15.9496 20.5439 15.9381 20.5485 15.9278C20.5439 15.938 20.5395 15.9494 20.5348 15.9617L20.5347 15.962ZM8.98206 14.4901C8.6466 14.6602 8.62349 14.8038 8.8085 15.1137C9.11587 15.6284 10.8521 18.4863 11.3217 18.3587C11.4492 18.2931 11.56 18.226 11.6614 18.1222C11.4231 17.7428 11.1543 17.3771 10.886 17.0121C10.7104 16.7731 10.5349 16.5344 10.3684 16.2923C10.3132 16.2121 10.2316 16.0724 10.1338 15.9051L10.1338 15.905L10.1338 15.905C9.80193 15.337 9.28386 14.4502 8.98206 14.4901ZM12.0281 14.5606C11.8636 14.6181 11.7263 14.6924 11.6159 14.8321C11.6594 15.2291 12.4431 17.4816 12.9095 17.5151C13.0557 17.4637 13.1778 17.4159 13.2974 17.313C13.146 16.8982 12.3167 14.7562 12.0962 14.5719L12.0281 14.5606ZM15.1708 14.5068C15.1059 14.3524 14.8847 14.3745 14.7532 14.3882C14.3257 14.6519 14.4941 17.0473 14.5822 17.2705C14.6987 17.3889 14.8388 17.3736 14.9876 17.3573L15.0092 17.355L15.03 17.3467C15.0956 17.3209 15.1748 17.2896 15.2076 17.2249C15.2488 17.1434 15.2921 14.7952 15.1708 14.5068ZM17.7607 14.5736C18.5021 14.5231 17.9929 15.5622 17.7123 16.1346C17.6591 16.2431 17.6142 16.3348 17.5875 16.3992C17.5565 16.474 17.5271 16.5563 17.4966 16.6416L17.4966 16.6417C17.3766 16.9771 17.2404 17.3581 16.929 17.5055C16.6737 17.5008 16.4887 17.3898 16.5574 17.12C16.6553 16.7357 17.4369 14.7628 17.7607 14.5736ZM20.4563 14.9227C20.4261 14.9639 20.3974 15.0031 20.3699 15.0379C20.323 15.1049 20.2058 15.2648 20.0499 15.4775C19.4573 16.2859 18.3046 17.8584 18.3157 18.0104C18.3253 18.1406 18.5733 18.3401 18.7073 18.2998C18.92 18.2359 20.1163 16.6252 20.3307 16.2106C20.349 16.1822 20.3963 16.1211 20.4607 16.0381C20.8242 15.569 21.7311 14.3989 21.0143 14.4606C20.7807 14.4807 20.6018 14.7246 20.4563 14.9227Z" fill="url(#paint4_linear_2432_14278)"/>
<defs>
<linearGradient id="paint0_linear_2432_14278" x1="29.9037" y1="14.1026" x2="32.4074" y2="15.5421" gradientUnits="userSpaceOnUse">
<stop stop-color="#FFA800"/>
<stop offset="1" stop-color="#E27F00"/>
</linearGradient>
<linearGradient id="paint1_linear_2432_14278" x1="14.9782" y1="23.9086" x2="17.9739" y2="24.8605" gradientUnits="userSpaceOnUse">
<stop stop-color="#FFA800"/>
<stop offset="1" stop-color="#E27F00"/>
</linearGradient>
<linearGradient id="paint2_linear_2432_14278" x1="29.9138" y1="20.4658" x2="34.8882" y2="22.5705" gradientUnits="userSpaceOnUse">
<stop stop-color="#FFA800"/>
<stop offset="1" stop-color="#E27F00"/>
</linearGradient>
<linearGradient id="paint3_linear_2432_14278" x1="33.9213" y1="20.6419" x2="34.2922" y2="20.653" gradientUnits="userSpaceOnUse">
<stop stop-color="#FFA800"/>
<stop offset="1" stop-color="#E27F00"/>
</linearGradient>
<linearGradient id="paint4_linear_2432_14278" x1="14.996" y1="6.05764" x2="22.8257" y2="12.7312" gradientUnits="userSpaceOnUse">
<stop stop-color="#FFA800"/>
<stop offset="1" stop-color="#E27F00"/>
</linearGradient>
</defs>
</svg>
