<svg width="24" height="24" viewBox="0 0 24 24" fill="none" xmlns="http://www.w3.org/2000/svg">
<rect x="1" y="1" width="22" height="22" rx="3" stroke="#FFD299" stroke-width="2"/>
<path d="M5.77778 7C4.79722 7 4 7.79722 4 8.77778V15.8889C4 16.8694 4.79722 17.6667 5.77778 17.6667H18.2222C19.2028 17.6667 20 16.8694 20 15.8889V8.77778C20 7.79722 19.2028 7 18.2222 7H5.77778ZM6.22222 8.77778H7.11111C7.35556 8.77778 7.55556 8.97778 7.55556 9.22222V10.1111C7.55556 10.3556 7.35556 10.5556 7.11111 10.5556H6.22222C5.97778 10.5556 5.77778 10.3556 5.77778 10.1111V9.22222C5.77778 8.97778 5.97778 8.77778 6.22222 8.77778ZM5.77778 11.8889C5.77778 11.6444 5.97778 11.4444 6.22222 11.4444H7.11111C7.35556 11.4444 7.55556 11.6444 7.55556 11.8889V12.7778C7.55556 13.0222 7.35556 13.2222 7.11111 13.2222H6.22222C5.97778 13.2222 5.77778 13.0222 5.77778 12.7778V11.8889ZM6.22222 14.1111H7.11111C7.35556 14.1111 7.55556 14.3111 7.55556 14.5556V15.4444C7.55556 15.6889 7.35556 15.8889 7.11111 15.8889H6.22222C5.97778 15.8889 5.77778 15.6889 5.77778 15.4444V14.5556C5.77778 14.3111 5.97778 14.1111 6.22222 14.1111ZM8.44444 9.22222C8.44444 8.97778 8.64444 8.77778 8.88889 8.77778H9.77778C10.0222 8.77778 10.2222 8.97778 10.2222 9.22222V10.1111C10.2222 10.3556 10.0222 10.5556 9.77778 10.5556H8.88889C8.64444 10.5556 8.44444 10.3556 8.44444 10.1111V9.22222ZM8.88889 11.4444H9.77778C10.0222 11.4444 10.2222 11.6444 10.2222 11.8889V12.7778C10.2222 13.0222 10.0222 13.2222 9.77778 13.2222H8.88889C8.64444 13.2222 8.44444 13.0222 8.44444 12.7778V11.8889C8.44444 11.6444 8.64444 11.4444 8.88889 11.4444ZM8.44444 14.5556C8.44444 14.3111 8.64444 14.1111 8.88889 14.1111H15.1111C15.3556 14.1111 15.5556 14.3111 15.5556 14.5556V15.4444C15.5556 15.6889 15.3556 15.8889 15.1111 15.8889H8.88889C8.64444 15.8889 8.44444 15.6889 8.44444 15.4444V14.5556ZM11.5556 8.77778H12.4444C12.6889 8.77778 12.8889 8.97778 12.8889 9.22222V10.1111C12.8889 10.3556 12.6889 10.5556 12.4444 10.5556H11.5556C11.3111 10.5556 11.1111 10.3556 11.1111 10.1111V9.22222C11.1111 8.97778 11.3111 8.77778 11.5556 8.77778ZM11.1111 11.8889C11.1111 11.6444 11.3111 11.4444 11.5556 11.4444H12.4444C12.6889 11.4444 12.8889 11.6444 12.8889 11.8889V12.7778C12.8889 13.0222 12.6889 13.2222 12.4444 13.2222H11.5556C11.3111 13.2222 11.1111 13.0222 11.1111 12.7778V11.8889ZM14.2222 8.77778H15.1111C15.3556 8.77778 15.5556 8.97778 15.5556 9.22222V10.1111C15.5556 10.3556 15.3556 10.5556 15.1111 10.5556H14.2222C13.9778 10.5556 13.7778 10.3556 13.7778 10.1111V9.22222C13.7778 8.97778 13.9778 8.77778 14.2222 8.77778ZM13.7778 11.8889C13.7778 11.6444 13.9778 11.4444 14.2222 11.4444H15.1111C15.3556 11.4444 15.5556 11.6444 15.5556 11.8889V12.7778C15.5556 13.0222 15.3556 13.2222 15.1111 13.2222H14.2222C13.9778 13.2222 13.7778 13.0222 13.7778 12.7778V11.8889ZM16.8889 8.77778H17.7778C18.0222 8.77778 18.2222 8.97778 18.2222 9.22222V10.1111C18.2222 10.3556 18.0222 10.5556 17.7778 10.5556H16.8889C16.6444 10.5556 16.4444 10.3556 16.4444 10.1111V9.22222C16.4444 8.97778 16.6444 8.77778 16.8889 8.77778ZM16.4444 11.8889C16.4444 11.6444 16.6444 11.4444 16.8889 11.4444H17.7778C18.0222 11.4444 18.2222 11.6444 18.2222 11.8889V12.7778C18.2222 13.0222 18.0222 13.2222 17.7778 13.2222H16.8889C16.6444 13.2222 16.4444 13.0222 16.4444 12.7778V11.8889ZM16.8889 14.1111H17.7778C18.0222 14.1111 18.2222 14.3111 18.2222 14.5556V15.4444C18.2222 15.6889 18.0222 15.8889 17.7778 15.8889H16.8889C16.6444 15.8889 16.4444 15.6889 16.4444 15.4444V14.5556C16.4444 14.3111 16.6444 14.1111 16.8889 14.1111Z" fill="#E27F00"/>
</svg>
