<svg width="40" height="40" viewBox="0 0 40 40" fill="none" xmlns="http://www.w3.org/2000/svg">
<path d="M25.1274 6.55025C26.0762 6.14229 27.3028 6.51738 28.0158 7.22569C28.6411 7.88613 28.8736 8.8275 29.2306 9.64275L30.507 12.6223C30.6903 13.0583 30.9874 13.668 31.0963 14.1126C29.6128 14.0356 28.1196 14.1191 26.6343 14.0816C25.9928 14.0988 25.3495 14.0892 24.7078 14.0892L18.062 14.0894C17.3876 14.0894 16.7121 14.0988 16.038 14.0808C15.9123 14.0784 15.7844 14.0808 15.6448 14.0808C15.2438 14.0808 15.3393 14.0784 15.1661 14.0808C14.7949 14.0859 14.3073 14.0888 13.8795 14.0886L10.7517 14.0894C10.5142 14.0903 10.2774 14.1206 10.041 14.1182C10.2395 13.954 10.4978 13.8382 10.7236 13.7154C12.2134 12.9053 13.7486 12.1844 15.2729 11.4425L23.531 7.336C23.9526 7.12707 24.7073 6.66907 25.1274 6.55025Z" fill="url(#paint0_linear_2432_42952)"/>
<path fill-rule="evenodd" clip-rule="evenodd" d="M8.97472 15.0684C9.48214 15.0856 9.99175 15.0828 10.5005 15.0799C10.6938 15.0788 10.8869 15.0777 11.0797 15.0777L31.2478 15.077C33.0972 15.079 34.2077 15.9247 34.2148 17.8614V28.5783C34.2155 31.2635 33.6048 32.2089 30.8299 32.2089L8.64147 32.2085C7.75116 32.2092 7.08197 32.1879 6.37347 31.5361C5.42466 30.6633 5.48064 29.0895 5.52817 27.7532C5.53808 27.4747 5.54762 27.2065 5.54762 26.957L5.54661 19.077C5.54651 18.9394 5.54437 18.8009 5.54222 18.6621C5.52686 17.6693 5.51127 16.6623 6.24424 15.8864C6.99352 15.0932 7.6571 15.0856 8.57022 15.0752C8.69971 15.0737 8.83423 15.0722 8.97472 15.0684ZM20.1417 29.5787C21.0272 29.5632 21.9457 29.1063 22.6442 28.586C26.2621 25.8914 25.5467 19.6735 21.5343 17.8529C21.511 17.8423 21.4872 17.8312 21.463 17.82L21.463 17.82C21.3191 17.7532 21.1613 17.68 21.0105 17.6595C19.3773 17.5283 18.4463 17.5354 17.1192 18.6663C13.2842 21.9343 14.4434 29.1824 20.0912 29.5754L20.1417 29.5787ZM11.341 22.2726C13.1823 22.0997 13.7309 25.0272 11.5671 25.3281C9.60306 25.4461 9.24563 22.5341 11.341 22.2726ZM28.3534 22.2906C30.2371 22.1588 30.7381 24.9861 28.7106 25.312C26.5656 25.3568 26.3463 22.6445 28.3534 22.2906Z" fill="url(#paint1_linear_2432_42952)"/>
<path d="M19.9535 19.5787C20.7144 19.5204 20.7923 20.1164 20.7495 20.7155C20.8875 20.7964 21.0427 20.8439 21.189 20.9084C22.1203 21.3193 22.5574 22.6191 21.5571 22.9473C20.906 23.1609 20.7443 22.3332 20.28 22.1277C19.8368 21.9314 19.1617 22.4788 19.5381 22.853C19.7416 23.0553 20.9365 23.4062 21.3053 23.6481C21.9313 24.0588 22.2229 24.9153 21.9724 25.6099C21.7635 26.1886 21.3068 26.4432 20.7716 26.6933C20.7549 27.0986 20.716 27.5722 20.2276 27.6528C19.4813 27.7124 19.2537 27.3916 19.2645 26.6893C17.2347 26.1438 17.7666 24.5334 18.7122 24.7297C19.1852 24.8278 19.7853 25.5558 20.2614 25.401C20.3954 25.3574 20.633 25.187 20.5639 25.0199C20.3917 24.6038 18.5248 24.4794 18.0803 23.2932C17.6777 22.2185 18.2341 21.1556 19.3141 20.7703C19.253 20.198 19.2817 19.6921 19.9535 19.5787Z" fill="url(#paint2_linear_2432_42952)"/>
<defs>
<linearGradient id="paint0_linear_2432_42952" x1="18.1918" y1="14.2458" x2="18.8229" y2="6.46133" gradientUnits="userSpaceOnUse">
<stop stop-color="#05807C"/>
<stop offset="1" stop-color="#04C8BC"/>
</linearGradient>
<linearGradient id="paint1_linear_2432_42952" x1="16.6199" y1="32.4914" x2="18.8678" y2="15.4272" gradientUnits="userSpaceOnUse">
<stop stop-color="#05807C"/>
<stop offset="1" stop-color="#04C8BC"/>
</linearGradient>
<linearGradient id="paint2_linear_2432_42952" x1="19.5199" y1="27.7931" x2="22.4396" y2="20.8283" gradientUnits="userSpaceOnUse">
<stop stop-color="#05807C"/>
<stop offset="1" stop-color="#04C8BC"/>
</linearGradient>
</defs>
</svg>
