<svg width="40" height="40" viewBox="0 0 40 40" fill="none" xmlns="http://www.w3.org/2000/svg">
<path d="M27.1042 12.944C27.9565 12.8615 28.9941 13.1322 29.7304 13.559C32.2257 15.0056 32.8269 17.9745 31.3843 20.4045C30.686 21.5807 29.0422 23.1393 27.7197 23.4783C26.8888 23.6817 26.0336 23.0455 25.4185 22.5586C24.0125 21.4455 22.9359 20.2129 22.7267 18.3546C22.4095 15.5355 24.2954 13.2526 27.1042 12.944Z" fill="url(#paint0_linear_2432_42953)"/>
<path d="M29.7764 23.6083C32.0495 23.4216 33.8822 25.5459 34.2298 27.6532C34.3638 28.4654 34.3239 29.32 34.324 30.1407C34.3241 31.3126 34.5022 32.6615 33.211 33.2579C32.6199 33.531 31.7165 33.3465 31.439 32.706C31.2498 32.2693 31.3702 31.5263 31.3826 31.0511L31.4035 29.8284C31.4116 29.3954 31.4687 28.9346 30.9577 28.7962C30.1279 28.5715 30.2282 29.4997 30.233 29.971L30.2337 31.093C30.2352 32.0894 30.2916 33.181 29.023 33.3742C28.588 33.4405 26.3036 33.436 25.9332 33.3396C25.4741 33.2201 25.086 32.8152 24.8557 32.4165C24.4734 31.669 24.671 29.7618 24.6227 28.8488C24.3677 28.382 23.7854 28.4617 23.6137 28.9484C23.3246 29.7676 23.719 31.6584 23.4977 32.5598C23.1799 33.8539 20.6852 33.651 20.5374 31.6369C20.4719 30.7459 20.4674 28.9201 20.5394 28.0286C20.7173 25.8285 22.5374 23.7814 24.7897 23.6307C25.3907 23.5905 25.561 23.9722 26.0275 24.2377C27.308 24.9663 28.4462 24.7714 29.3624 23.6957C29.5006 23.6385 29.629 23.6215 29.7764 23.6083Z" fill="url(#paint1_linear_2432_42953)"/>
<path d="M13.22 19.097C14.1152 19.0752 15.1543 20.8526 17.6912 19.6232C18.0251 19.4615 18.3478 19.225 18.7001 19.112L18.7286 19.103C18.985 19.7557 18.1196 21.1537 17.7801 21.732C17.3898 22.345 16.7292 23.4997 15.9847 23.6878C14.9094 23.3923 13.0997 19.9439 13.22 19.097Z" fill="url(#paint2_linear_2432_42953)"/>
<path d="M15.9052 6.38281C19.3245 6.40897 22.1274 9.44698 21.5887 12.8655C21.1953 15.3624 18.8617 18.6565 16.0841 18.7034C13.0319 18.6914 10.5066 15.0029 10.3806 12.2299C10.2386 9.10735 12.8291 6.50014 15.9052 6.38281Z" fill="url(#paint3_linear_2432_42953)"/>
<path d="M20.1283 18.6627C20.6479 18.7362 21.1735 18.8627 21.6654 19.0448C21.7453 19.2269 21.7874 19.4392 21.8479 19.6298C22.1294 20.5177 22.5219 21.2529 23.1134 21.9735C23.2934 22.193 23.4949 22.3977 23.6442 22.6406C21.4804 23.2937 19.9509 24.9694 19.4907 27.184C19.2787 28.2046 19.3344 30.0133 19.3616 31.1287C19.3741 31.6395 19.5559 32.3206 19.1942 32.7482C18.5487 33.5115 17.6767 33.4043 16.7772 33.405L13.8666 33.4052C11.5188 33.404 11.6054 32.4802 11.6059 30.626L11.6072 28.3952C11.6071 27.9672 11.7226 26.6602 11.3619 26.3704C11.0614 26.129 10.6422 26.3152 10.5186 26.6585C10.424 26.9217 10.4685 27.4393 10.4683 27.7336L10.4691 30.1907C10.4698 31.0635 10.6398 32.0403 10.0619 32.769C9.24394 33.6087 7.92925 33.5837 7.04062 32.862C6.01706 32.0306 6.07444 30.961 6.07562 29.7784L6.07565 26.3927C6.07559 25.9146 6.06639 25.4273 6.11674 24.9515C6.41106 22.1695 8.25762 19.9168 10.8661 18.9716C11.1957 18.8522 11.5514 18.7287 11.901 18.693C12.1397 19.9737 12.4301 20.7105 13.1052 21.872C13.7848 23.0412 15.1707 25.5355 16.8511 24.522C17.9456 23.8618 19.2948 21.368 19.7335 20.1595C19.9119 19.6682 19.999 19.1807 20.124 18.6794L20.1283 18.6627Z" fill="url(#paint4_linear_2432_42953)"/>
<defs>
<linearGradient id="paint0_linear_2432_42953" x1="25.8467" y1="33.7565" x2="31.9698" y2="15.0035" gradientUnits="userSpaceOnUse">
<stop stop-color="#05807C"/>
<stop offset="1" stop-color="#04C8BC"/>
</linearGradient>
<linearGradient id="paint1_linear_2432_42953" x1="25.8467" y1="33.7565" x2="31.9698" y2="15.0035" gradientUnits="userSpaceOnUse">
<stop stop-color="#05807C"/>
<stop offset="1" stop-color="#04C8BC"/>
</linearGradient>
<linearGradient id="paint2_linear_2432_42953" x1="12.8761" y1="33.8552" x2="21.2071" y2="9.30936" gradientUnits="userSpaceOnUse">
<stop stop-color="#05807C"/>
<stop offset="1" stop-color="#04C8BC"/>
</linearGradient>
<linearGradient id="paint3_linear_2432_42953" x1="12.8761" y1="33.8552" x2="21.2071" y2="9.30936" gradientUnits="userSpaceOnUse">
<stop stop-color="#05807C"/>
<stop offset="1" stop-color="#04C8BC"/>
</linearGradient>
<linearGradient id="paint4_linear_2432_42953" x1="12.8761" y1="33.8552" x2="21.2071" y2="9.30936" gradientUnits="userSpaceOnUse">
<stop stop-color="#05807C"/>
<stop offset="1" stop-color="#04C8BC"/>
</linearGradient>
</defs>
</svg>
