<svg width="32" height="32" viewBox="0 0 32 32" fill="none" xmlns="http://www.w3.org/2000/svg">
<g style="mix-blend-mode:luminosity">
<path d="M15.7788 5.62663C16.9689 5.46175 18.3371 6.08938 19.2111 6.84262C22.5276 9.70082 20.7566 15.0902 16.1932 15.3521C14.991 15.4296 13.6295 14.933 12.7214 14.1712C9.40478 11.3891 11.3011 5.9475 15.7788 5.62663Z" fill="#434E61"/>
<path d="M18.1365 15.511C20.0421 15.4322 21.9435 16.5338 23.2691 17.7964C24.6034 19.0671 26.3774 22.0023 26.3995 23.9364C26.412 25.032 25.6665 26.0268 24.578 26.3022C24.0161 26.4443 23.1382 26.3898 22.5368 26.3898L19.747 26.3925C18.7557 26.3777 17.7624 26.3898 16.771 26.3898L8.97085 26.3905C8.51392 26.3906 8.02691 26.4224 7.57569 26.3502C6.53209 26.1833 5.6723 25.2459 5.60482 24.2138C5.51765 22.8798 6.54209 20.6503 7.26785 19.5289C8.60158 17.4684 10.9171 15.6604 13.4644 15.5157C13.8931 15.4978 13.8886 15.5439 14.1817 15.8186C15.3216 16.8871 16.3863 17.1015 17.6357 15.9688C17.8041 15.8161 17.9353 15.6267 18.1365 15.511Z" fill="#434E61"/>
</g>
</svg>
