<svg width="40" height="40" viewBox="0 0 40 40" fill="none" xmlns="http://www.w3.org/2000/svg">
<path d="M21.652 11.7225L27.4213 11.7238C28.4176 11.7235 29.4173 11.7045 30.4131 11.7273C32.0966 11.7659 33.6348 12.9267 33.9586 14.6116C34.0796 15.2413 34.0419 15.9185 34.042 16.5573L34.0422 23.9021C34.0423 25.7258 34.3666 27.934 32.9215 29.2922C31.967 30.1893 31.1221 30.311 29.9034 30.3112L11.3377 30.3112C9.77114 30.3122 8.2209 30.4635 7.03365 29.1907C5.92359 28.0005 6.01699 26.7602 6.01671 25.2466L6.01627 17.7938C6.01617 16.9653 5.99249 16.1297 6.02481 15.3023C6.08859 13.6694 7.13296 12.1712 8.77665 11.8214C9.42783 11.6828 10.3197 11.7238 10.996 11.7238L17.2366 11.7243C17.728 11.7244 18.2414 11.6939 18.7294 11.7163L18.752 11.7175L19.1494 11.7225C20.0863 11.8515 20.6323 11.7085 20.6388 11.7023C21.3674 11.7429 21.0262 11.7404 21.2556 11.7404C21.3872 11.7417 21.5233 11.7543 21.652 11.7225ZM16.0496 18.1903C14.7553 18.3767 14.3175 19.6028 13.7556 20.6144L11.2973 25.0508C11.0563 25.4878 10.4371 26.318 11.0083 26.733C11.381 27.0037 12.9551 26.8673 13.4335 26.8674L21.9608 26.8685C22.8755 26.8696 23.7986 26.8948 24.7121 26.854C25.4878 26.8986 26.2756 26.8682 27.0514 26.8393C27.6606 26.8167 28.2345 26.9379 28.4181 26.1925C28.2189 25.5063 27.4747 24.9491 27.0099 24.4312C25.9652 23.2672 24.9674 21.5157 23.13 22.0479C22.2966 22.2893 21.7691 23.1103 21.0511 23.5452C20.3586 22.7786 19.4037 21.1156 18.8484 20.2178C18.091 18.9936 17.6801 18.0633 16.0496 18.1903ZM22.8066 15.4967C19.229 15.7998 19.2203 20.8752 22.9792 20.8738C25.374 20.778 26.5437 17.8509 24.6881 16.1913C24.18 15.7368 23.4942 15.4558 22.8066 15.4967ZM11.9214 16.1213C10.8468 16.2731 10.973 17.6478 12.0221 17.6458C13.0565 17.478 12.9023 16.0838 11.9214 16.1213ZM19.1494 11.7225C19.1158 11.6939 19.575 11.7023 20.0005 11.7023C20.3589 11.7024 20.3969 11.7404 20.6388 11.7023C20.6323 11.7085 20.0863 11.8515 19.1494 11.7225Z" fill="url(#paint0_linear_2534_9330)"/>
<path d="M29.1921 15.2819C30.6978 15.0992 31.4141 17.3776 29.5374 17.8971L29.4777 17.9043C27.7848 18.0983 27.4098 15.4054 29.1921 15.2819Z" fill="#E27F00"/>
<path d="M22.6229 16.664C24.7231 16.4812 25.1963 19.2309 23.1451 19.743C21.1216 20.0033 20.4518 17.1359 22.6229 16.664Z" fill="#E27F00"/>
<path d="M23.6511 23.0921C24.1898 23.0246 24.4776 23.3459 24.8176 23.6884C25.1003 23.9734 26.434 25.3757 26.6059 25.7012C26.3554 25.7279 26.097 25.7192 25.8452 25.7196L24.7119 25.7142C23.959 25.7281 23.2008 25.7395 22.4477 25.7404C22.1835 25.4764 21.8993 24.9719 21.6997 24.6444C22.2565 24.1376 22.9628 23.1836 23.6511 23.0921Z" fill="#E27F00"/>
<path d="M16.2137 19.3016C17.1371 19.2378 17.2524 19.7695 17.6678 20.4472C18.3679 21.5894 19.0891 22.7295 19.8356 23.8416C20.252 24.4621 20.706 25.0546 21.0447 25.7234C19.7238 25.6986 18.3992 25.7188 17.0779 25.7204L12.5457 25.7405C12.4733 25.7403 12.3133 25.7541 12.2539 25.7175C12.2565 25.4391 12.7497 24.7201 12.8917 24.4661L14.4152 21.7556C14.8107 21.0428 15.4204 19.4324 16.2137 19.3016Z" fill="#E27F00"/>
<defs>
<linearGradient id="paint0_linear_2534_9330" x1="20.0251" y1="11.7001" x2="29.2967" y2="21.3301" gradientUnits="userSpaceOnUse">
<stop stop-color="#FFA800"/>
<stop offset="1" stop-color="#E27F00"/>
</linearGradient>
</defs>
</svg>
