<svg width="40" height="40" viewBox="0 0 40 40" fill="none" xmlns="http://www.w3.org/2000/svg">
<path d="M31.6907 20.0571C32.084 19.8044 32.7604 19.4649 32.8623 18.9786C32.9639 18.4936 32.8078 17.7738 33.2727 17.4431C33.6479 17.1761 34.1649 17.2827 34.3943 17.6879C34.6917 18.2132 34.4604 18.9615 34.2615 19.4983C34.8594 19.888 35.2887 20.5035 35.4332 21.2064C35.7737 22.8623 34.1652 23.0414 33.9985 22.0699C33.916 21.5885 33.973 21.2589 33.5259 20.9418C32.9407 21.0945 32.3636 21.2652 31.7538 21.2707C31.7119 21.1567 31.6508 20.1673 31.6907 20.0571Z" fill="url(#paint0_linear_2432_42951)"/>
<path d="M20.7538 4.28662C24.9066 4.33997 25.018 10.6005 20.7313 10.7934C17.834 10.7363 16.4636 7.36615 18.352 5.34175C18.9787 4.67005 19.844 4.31628 20.7538 4.28662Z" fill="url(#paint1_linear_2432_42951)"/>
<path fill-rule="evenodd" clip-rule="evenodd" d="M11.5486 15.5158C11.1694 15.0514 9.64266 12.8581 9.56241 12.54C9.45323 12.1071 9.80954 11.6005 10.2325 11.5059C11.1011 11.3117 13.337 12.1471 14.0744 12.5533C14.3228 12.6902 14.5225 12.804 14.6867 12.8976C15.1327 13.1519 15.3177 13.2573 15.5093 13.2713C15.6451 13.2813 15.7843 13.2453 16.0222 13.1838C16.2879 13.1151 16.6768 13.0145 17.3218 12.9106C23.057 11.9868 30.2604 13.5773 31.6909 20.057C31.6511 20.1671 31.7122 21.1566 31.7541 21.2706C31.7645 21.4773 31.7415 21.7044 31.7199 21.917L31.7101 22.0144C31.4624 24.5392 30.3162 26.7232 28.2097 28.1913L28.1695 28.2194C27.9176 28.3952 27.6353 28.5922 27.3485 28.6884C27.345 28.8765 27.3501 29.1022 27.3554 29.3414C27.3677 29.8915 27.3815 30.5129 27.2978 30.9121C26.9725 32.4628 25.0785 33.1458 23.8327 32.2047C23.1587 31.6955 23.0673 31.1486 22.9582 30.3593C22.6932 30.3836 22.4294 30.4358 22.1653 30.488L22.1653 30.4881C21.9352 30.5336 21.705 30.5792 21.4734 30.6064C20.0329 30.7757 18.7227 30.6594 17.3041 30.4188C17.2182 30.9914 17.1023 31.5105 16.6985 31.9503C15.8567 32.8673 14.4716 32.8412 13.5879 32.0019C12.8637 31.3141 12.8874 30.3468 12.9104 29.413C12.9158 29.1934 12.9211 28.9756 12.9167 28.7638C11.5566 27.8049 10.6575 27.163 9.66479 25.7124C9.53125 25.5173 9.41099 25.3142 9.29082 25.1113L9.29082 25.1113C9.17358 24.9133 9.05642 24.7154 8.9271 24.5253C8.75216 24.5163 8.56061 24.5216 8.36303 24.527C7.54513 24.5494 6.62388 24.5747 6.34973 23.6069C6.22787 23.1768 6.26898 21.4889 6.28726 20.7384L6.2916 20.556C6.32513 19.0511 7.44037 19.0879 8.60878 19.1264C8.6817 19.1288 8.75483 19.1312 8.82791 19.1333C9.41579 17.7925 10.4341 16.462 11.5486 15.5158ZM19.9398 14.2876C19.1727 14.3135 15.652 14.4949 15.3594 15.4001C15.4573 15.6616 15.5973 15.8024 15.8502 15.9174L15.8772 15.9294C16.1442 15.8783 16.4047 15.7984 16.6655 15.7184L16.6656 15.7184C16.895 15.648 17.1247 15.5775 17.3594 15.5265C18.6211 15.2523 19.97 15.2107 21.256 15.2544C22.1897 15.3274 23.1063 15.4354 24.0202 15.6498C24.2261 15.6981 24.4289 15.7597 24.6316 15.8212C24.8591 15.8903 25.0864 15.9594 25.3178 16.0095C26.4662 15.4326 25.3765 14.9901 24.6932 14.8083C22.975 14.3513 21.6697 14.2821 19.9398 14.2876ZM12.4068 18.1268C13.6024 18.0326 13.7296 19.7654 12.5828 19.9593C11.3685 20.0139 11.2694 18.4099 12.4068 18.1268ZM20.5131 17.0404L20.4815 17.0414C19.3904 17.0519 16.0366 17.3958 15.2421 18.2448C14.9149 18.5943 15.0901 19.403 15.6087 19.466C16.0273 19.5168 16.5651 19.5072 17.0542 19.4986C17.2316 19.4954 17.4025 19.4924 17.5589 19.4924C17.8954 19.4924 18.232 19.4935 18.5687 19.4947C19.3438 19.4973 20.1192 19.4999 20.8936 19.4886L24.3472 19.4913C24.4435 19.4913 24.5599 19.4984 24.6873 19.5061C25.3477 19.5465 26.3043 19.6049 26.3047 18.7835C26.3052 17.3418 21.508 17.0131 20.5131 17.0404Z" fill="url(#paint2_linear_2432_42951)"/>
<defs>
<linearGradient id="paint0_linear_2432_42951" x1="33.1498" y1="22.751" x2="34.6924" y2="17.7964" gradientUnits="userSpaceOnUse">
<stop stop-color="#05807C"/>
<stop offset="1" stop-color="#04C8BC"/>
</linearGradient>
<linearGradient id="paint1_linear_2432_42951" x1="19.9703" y1="10.9007" x2="21.373" y2="4.62393" gradientUnits="userSpaceOnUse">
<stop stop-color="#05807C"/>
<stop offset="1" stop-color="#04C8BC"/>
</linearGradient>
<linearGradient id="paint2_linear_2432_42951" x1="16.1336" y1="32.9835" x2="19.9306" y2="12.2499" gradientUnits="userSpaceOnUse">
<stop stop-color="#05807C"/>
<stop offset="1" stop-color="#04C8BC"/>
</linearGradient>
</defs>
</svg>
