<svg width="24" height="24" viewBox="0 0 24 24" fill="none" xmlns="http://www.w3.org/2000/svg">
<path d="M12 22C14.6522 22 17.1957 20.9464 19.0711 19.0711C20.9464 17.1957 22 14.6522 22 12C22 9.34784 20.9464 6.8043 19.0711 4.92893C17.1957 3.05357 14.6522 2 12 2C9.34784 2 6.8043 3.05357 4.92893 4.92893C3.05357 6.8043 2 9.34784 2 12C2 14.6522 3.05357 17.1957 4.92893 19.0711C6.8043 20.9464 9.34784 22 12 22ZM8.63281 8.45703C8.94141 7.58594 9.76953 7 10.6953 7H12.9727C14.3359 7 15.4375 8.10547 15.4375 9.46484C15.4375 10.3477 14.9648 11.1641 14.1992 11.6055L12.9375 12.3281C12.9297 12.8359 12.5117 13.25 12 13.25C11.4805 13.25 11.0625 12.832 11.0625 12.3125V11.7852C11.0625 11.4492 11.2422 11.1406 11.5352 10.9727L13.2656 9.98047C13.4492 9.875 13.5625 9.67969 13.5625 9.46875C13.5625 9.14062 13.2969 8.87891 12.9727 8.87891H10.6953C10.5625 8.87891 10.4453 8.96094 10.4023 9.08594L10.3867 9.13281C10.2148 9.62109 9.67578 9.875 9.19141 9.70312C8.70703 9.53125 8.44922 8.99219 8.62109 8.50781L8.63672 8.46094L8.63281 8.45703ZM10.75 15.75C10.75 15.4185 10.8817 15.1005 11.1161 14.8661C11.3505 14.6317 11.6685 14.5 12 14.5C12.3315 14.5 12.6495 14.6317 12.8839 14.8661C13.1183 15.1005 13.25 15.4185 13.25 15.75C13.25 16.0815 13.1183 16.3995 12.8839 16.6339C12.6495 16.8683 12.3315 17 12 17C11.6685 17 11.3505 16.8683 11.1161 16.6339C10.8817 16.3995 10.75 16.0815 10.75 15.75Z" fill="#434E61"/>
</svg>
