<svg width="24" height="24" viewBox="0 0 24 24" fill="none" xmlns="http://www.w3.org/2000/svg">
<g clip-path="url(#clip0_3205_41529)">
<path d="M12.216 1.04705L12.2267 1.0519L12.2375 1.05649L21.0641 4.80181L21.0653 4.80233C21.7591 5.09562 22.2529 5.76928 22.25 6.55833C22.2272 11.0462 20.3739 19.0618 12.8057 22.6856L12.8055 22.6856C12.2958 22.9298 11.7042 22.9298 11.1946 22.6856L11.1944 22.6856C3.62604 19.0617 1.77282 11.046 1.75001 6.55817C1.74722 5.76919 2.24096 5.0956 2.9347 4.80233L2.93577 4.80188L11.767 1.05657L11.7821 1.05015L11.797 1.04325C11.8545 1.01665 11.9263 1 12 1C12.0722 1 12.1474 1.01603 12.216 1.04705Z" fill="url(#paint0_linear_3205_41529)" stroke="#FFCA1B" stroke-width="2"/>
<path d="M15.4456 8.25369C15.6184 8.08917 15.8483 7.99822 16.0869 8.00003C16.3255 8.00183 16.5541 8.09625 16.7244 8.26336C16.8947 8.43048 16.9934 8.65721 16.9997 8.89572C17.006 9.13423 16.9194 9.36586 16.7582 9.54174L11.8636 15.663C11.7794 15.7537 11.6778 15.8264 11.5649 15.8769C11.452 15.9274 11.33 15.9546 11.2064 15.9569C11.0827 15.9592 10.9598 15.9366 10.8451 15.8903C10.7304 15.844 10.6262 15.7751 10.5387 15.6876L7.29283 12.4417C7.20243 12.3575 7.12993 12.2559 7.07965 12.143C7.02936 12.0302 7.00232 11.9083 7.00014 11.7848C6.99796 11.6613 7.02069 11.5386 7.06696 11.424C7.11323 11.3095 7.18211 11.2054 7.26947 11.118C7.35684 11.0307 7.4609 10.9618 7.57547 10.9155C7.69003 10.8692 7.81273 10.8465 7.93627 10.8487C8.0598 10.8509 8.18163 10.8779 8.29449 10.9282C8.40734 10.9785 8.50892 11.051 8.59315 11.1414L11.1619 13.7089L15.4223 8.28068L15.4456 8.25369Z" fill="white"/>
</g>
<defs>
<linearGradient id="paint0_linear_3205_41529" x1="11.9876" y1="-0.00143028" x2="22.8556" y2="7.05675" gradientUnits="userSpaceOnUse">
<stop stop-color="#FFA800"/>
<stop offset="1" stop-color="#E27F00"/>
</linearGradient>
<clipPath id="clip0_3205_41529">
<rect width="24" height="24" fill="white"/>
</clipPath>
</defs>
</svg>
