<svg width="24" height="24" viewBox="0 0 24 24" fill="none" xmlns="http://www.w3.org/2000/svg">
<rect x="1" y="1" width="22" height="22" rx="3" stroke="#E8917D" stroke-width="2"/>
<path d="M14.6674 5.82871C14.1758 5.82871 13.7786 5.42011 13.7786 4.91436C13.7786 4.4086 14.1758 4 14.6674 4H19.1112C19.6028 4 20 4.4086 20 4.91436V9.48614C20 9.9919 19.6028 10.4005 19.1112 10.4005C18.6196 10.4005 18.2225 9.9919 18.2225 9.48614V7.1231L13.5175 11.9606C13.1703 12.3178 12.6065 12.3178 12.2593 11.9606L9.33472 8.95182L5.51855 12.875C5.17138 13.2322 4.60756 13.2322 4.26038 12.875C3.91321 12.5178 3.91321 11.9378 4.26038 11.5806L8.70425 7.00881C9.05143 6.65164 9.61524 6.65164 9.96242 7.00881L12.8898 10.0205L16.9643 5.82871H14.6674Z" fill="#DB5130"/>
<path d="M4 14.6667C4 14.2459 4.34112 13.9048 4.7619 13.9048H5.52381C5.9446 13.9048 6.28571 14.2459 6.28571 14.6667V20H4V14.6667Z" fill="#DB5130"/>
<path d="M13.1429 14.6667C13.1429 14.2459 13.484 13.9048 13.9048 13.9048H14.6667C15.0875 13.9048 15.4286 14.2459 15.4286 14.6667V20H13.1429V14.6667Z" fill="#DB5130"/>
<path d="M8.57143 12.381C8.57143 11.9602 8.91255 11.619 9.33333 11.619H10.0952C10.516 11.619 10.8571 11.9602 10.8571 12.381V20H8.57143V12.381Z" fill="#DB5130"/>
<path d="M17.7143 12.381C17.7143 11.9602 18.0554 11.619 18.4762 11.619H19.2381C19.6589 11.619 20 11.9602 20 12.381V20H17.7143V12.381Z" fill="#DB5130"/>
</svg>
