<svg width="40" height="40" viewBox="0 0 40 40" fill="none" xmlns="http://www.w3.org/2000/svg">
<path d="M22.7021 8.76416C26.0738 8.80654 30.6745 9.5991 33.334 11.7328C34.3144 12.5193 35.244 13.6319 35.3799 14.9238C35.7091 18.0512 32.6865 18.5865 32.533 20.6677C32.5129 20.9398 32.5269 21.2175 32.5276 21.4903L32.5295 28.8277C32.5313 30.5008 31.8901 32.0607 29.9658 32.2554C29.7676 32.2831 29.552 32.27 29.3516 32.2693L25.7088 32.266C25.1311 32.2663 24.5513 32.254 23.9745 32.2851C25.5816 31.091 25.3415 28.9978 25.341 27.257L25.3411 23.0884C25.342 21.3945 25.1014 21.325 26.287 20.1613C27.0142 19.4475 27.8357 18.7732 28.4669 17.9715C29.5061 16.6515 29.6143 14.8425 28.9478 13.3214C27.9968 11.1509 25.6043 9.77147 23.441 9.0126C23.1958 8.9266 22.9443 8.85854 22.7021 8.76416Z" fill="url(#paint0_linear_2640_20009)"/>
<path d="M15.5448 8.87817C19.2157 8.61679 24.3096 9.82635 26.9364 12.4052C28.0328 13.4815 28.6672 15.2333 27.9448 16.6889C27.5711 17.442 26.1247 18.7668 25.4572 19.3983C24.3765 20.4208 24.2137 20.4203 24.2175 21.8536L24.2187 27.9036C24.2192 29.7304 24.2627 31.6769 21.9402 32.2099C21.456 32.321 20.7448 32.267 20.2347 32.2669L17.412 32.2655L11.2635 32.2676C9.62785 32.2682 8.16373 31.9396 7.70623 30.0414C7.5916 29.5655 7.6146 29.0528 7.61504 28.5662L7.61641 22.4002C7.61647 21.798 7.67941 20.9661 7.5556 20.3919C7.25316 18.9891 5.31831 18.0608 4.85711 16.3749C4.45198 14.8939 5.05179 13.4482 6.086 12.3632C8.45354 9.87935 12.2249 8.9631 15.5448 8.87817ZM20.6664 13.168C20.267 13.2543 19.2146 14.5179 18.8552 14.8846L12.3252 21.6134C11.82 22.1297 11.273 22.6375 10.8218 23.2015C10.5293 23.5673 10.7871 24.1547 11.391 24.0728C11.8295 23.8656 12.3247 23.2069 12.6635 22.8556L19.7341 15.5175C20.058 15.1787 21.1275 14.2437 21.2777 13.8547C21.4417 13.4298 21.0609 13.1145 20.6664 13.168ZM20.5437 17.8347C20.1142 17.9465 19.8343 18.3452 19.5404 18.6519L11.8741 26.5308C11.5601 26.8568 10.68 27.5147 10.8625 28.0382C10.9573 28.3098 11.2163 28.3766 11.4727 28.3777C11.9258 28.3156 12.9663 27.0419 13.3223 26.6732L16.4942 23.4007C17.6628 22.2159 18.8335 21.033 19.9736 19.8206C20.3117 19.461 20.7192 19.1339 21.0157 18.742C21.3101 18.353 21.0274 17.7974 20.5437 17.8347ZM17.0279 12.5039C16.578 12.5974 15.8659 13.4783 15.5428 13.8086L11.6082 17.8655C11.2655 18.2252 10.8363 18.5336 10.7162 19.0358C10.8184 19.4306 10.9552 19.5638 11.3665 19.5458C11.8041 19.4565 12.1327 18.8897 12.4351 18.582L15.408 15.5319C15.8168 15.116 16.2232 14.6962 16.6423 14.2907C16.9302 14.0122 17.7517 13.4597 17.6414 12.9806C17.5755 12.6947 17.3172 12.4942 17.0279 12.5039ZM20.4529 22.3294C19.8975 22.5192 19.0662 23.6012 18.6378 24.0434C18.2183 24.4764 16.3366 26.2568 16.1134 26.7074C15.8744 27.19 16.1878 27.5372 16.672 27.479C17.142 27.2877 17.4618 26.8047 17.8096 26.4516L19.9625 24.2396C20.2113 23.9815 20.8926 23.3628 21.0245 23.0832C21.2242 22.6602 20.8659 22.3035 20.4529 22.3294Z" fill="url(#paint1_linear_2640_20009)"/>
<defs>
<linearGradient id="paint0_linear_2640_20009" x1="29.0465" y1="8.76275" x2="36.7093" y2="11.6139" gradientUnits="userSpaceOnUse">
<stop stop-color="#FFA800"/>
<stop offset="1" stop-color="#E27F00"/>
</linearGradient>
<linearGradient id="paint1_linear_2640_20009" x1="16.4782" y1="8.84186" x2="27.407" y2="16.3991" gradientUnits="userSpaceOnUse">
<stop stop-color="#FFA800"/>
<stop offset="1" stop-color="#E27F00"/>
</linearGradient>
</defs>
</svg>
