<svg width="40" height="40" viewBox="0 0 40 40" fill="none" xmlns="http://www.w3.org/2000/svg">
<path d="M21.7053 9.00525C22.8897 8.91316 24.1154 10.0549 25.0039 10.6349L28.2814 12.7777C29.1972 13.3687 30.9538 14.2018 30.9988 15.143C31.0422 16.0511 29.9125 16.5348 29.0621 17.0517L24.2857 19.9575C23.3467 20.5258 22.0691 21.5344 20.8027 20.6529C20.1228 20.1795 20.3433 18.9492 20.3226 18.2513L19.9571 18.2475C19.0729 18.188 17.9903 18.2253 17.0883 18.2254L11.4578 18.2258C10.791 18.2258 8.42107 18.2836 8.04305 18.1451C7.38005 17.9021 7.02171 17.561 7.00192 16.996C6.90348 14.1854 10.602 11.577 14.2952 11.182C16.07 10.9922 18.482 11.1356 20.3317 11.101C20.318 10.193 20.1315 9.22852 21.7053 9.00525Z" fill="url(#paint0_linear_2925_53554)"/>
<path d="M16.2947 32.9952C15.1103 33.0796 13.8846 32.033 12.9961 31.5013L9.71857 29.5371C8.80283 28.9953 7.04617 28.2317 7.00121 27.3689C6.9578 26.5365 8.08753 26.0931 8.93793 25.6193L13.7143 22.9556C14.6533 22.4346 15.9309 21.5101 17.1973 22.3182C17.8772 22.7521 17.6567 23.8799 17.6774 24.5196L18.0429 24.5231C18.9271 24.5777 20.0097 24.5434 20.9117 24.5434L26.5422 24.543C27.209 24.543 29.5789 24.4901 29.957 24.617C30.6199 24.8398 30.9783 25.1525 30.9981 25.6703C31.0965 28.2468 27.398 30.6378 23.7048 30.9998C21.93 31.1738 19.518 31.0423 17.6683 31.0741C17.682 31.9064 17.8685 32.7905 16.2947 32.9952Z" fill="url(#paint1_linear_2925_53554)"/>
<defs>
<linearGradient id="paint0_linear_2925_53554" x1="22" y1="33" x2="19.839" y2="9.25898" gradientUnits="userSpaceOnUse">
<stop stop-color="#3087DB"/>
<stop offset="1" stop-color="#AAD4FC" stop-opacity="0.8"/>
</linearGradient>
<linearGradient id="paint1_linear_2925_53554" x1="17" y1="9" x2="17.5493" y2="32.6467" gradientUnits="userSpaceOnUse">
<stop stop-color="#AAD4FC" stop-opacity="0.8"/>
<stop offset="1" stop-color="#3087DB"/>
</linearGradient>
</defs>
</svg>
