<svg width="24" height="24" viewBox="0 0 24 24" fill="none" xmlns="http://www.w3.org/2000/svg">
<g clip-path="url(#clip0_2020_5037)">
<path d="M19.2132 7.24678C19.8149 6.64506 19.8149 5.67279 19.2132 5.07107C18.6114 4.46935 17.6392 4.46935 17.0374 5.07107L12.1421 9.96642L7.24674 5.07107C6.64501 4.46935 5.67274 4.46935 5.07102 5.07107C4.4693 5.67279 4.4693 6.64506 5.07102 7.24678L9.96638 12.1421L5.07102 17.0375C4.4693 17.6392 4.4693 18.6115 5.07102 19.2132C5.67274 19.8149 6.64501 19.8149 7.24674 19.2132L12.1421 14.3178L17.0374 19.2132C17.6392 19.8149 18.6114 19.8149 19.2132 19.2132C19.8149 18.6115 19.8149 17.6392 19.2132 17.0375L14.3178 12.1421L19.2132 7.24678Z" fill="#434E61"/>
</g>
<defs>
<clipPath id="clip0_2020_5037">
<rect width="24" height="24" fill="white"/>
</clipPath>
</defs>
</svg>
